G04 #@! TF.FileFunction,Copper,L1,Top,Signal*
%FSLAX46Y46*%
G04 Gerber Fmt 4.6, Leading zero omitted, Abs format (unit mm)*
G04 Created by KiCad (PCBNEW 4.0.7) date 07/23/18 11:35:42*
%MOMM*%
%LPD*%
G01*
G04 APERTURE LIST*
%ADD10C,0.400000*%
%ADD11C,2.000000*%
%ADD12O,0.450000X2.000000*%
%ADD13R,2.500000X1.600000*%
%ADD14C,3.300000*%
%ADD15C,1.000000*%
%ADD16C,0.600000*%
G04 APERTURE END LIST*
D10*
D11*
X147000000Y-108800000D03*
X147000000Y-106300000D03*
X147000000Y-103800000D03*
X147000000Y-101300000D03*
D12*
X159250000Y-107050000D03*
X160250000Y-107050000D03*
X161250000Y-107050000D03*
X159250000Y-103050000D03*
X160250000Y-103050000D03*
X161250000Y-103050000D03*
D13*
X160250000Y-105050000D03*
D14*
X155500000Y-105050000D03*
X165000000Y-105050000D03*
D15*
X158000000Y-105050000D03*
X162500000Y-105050000D03*
D10*
X148500000Y-101300000D02*
X147000000Y-101300000D01*
X160250000Y-103050000D02*
X160250000Y-100775000D01*
X158950000Y-99475000D02*
X153575000Y-99475000D01*
X153575000Y-99475000D02*
X151750000Y-101300000D01*
X151750000Y-101300000D02*
X148500000Y-101300000D01*
X160250000Y-100775000D02*
X158950000Y-99475000D01*
X148500000Y-108800000D02*
X147000000Y-108800000D01*
X148500000Y-108800000D02*
X151750000Y-108800000D01*
X151750000Y-108800000D02*
X153500000Y-110550000D01*
X153500000Y-110550000D02*
X159000000Y-110550000D01*
X159000000Y-110550000D02*
X160250000Y-109300000D01*
X160250000Y-107050000D02*
X160250000Y-109300000D01*
X159250000Y-107050000D02*
X159250000Y-108450000D01*
X159250000Y-108450000D02*
X158650000Y-109050000D01*
X158650000Y-109050000D02*
X153750000Y-109050000D01*
X153750000Y-109050000D02*
X151000000Y-106300000D01*
X151000000Y-106300000D02*
X148500000Y-106300000D01*
X148500000Y-106300000D02*
X147000000Y-106300000D01*
X148500000Y-103800000D02*
X147000000Y-103800000D01*
X148500000Y-103800000D02*
X151075000Y-103800000D01*
X151075000Y-103800000D02*
X153850000Y-101025000D01*
X153850000Y-101025000D02*
X158825000Y-101025000D01*
X158825000Y-101025000D02*
X159250000Y-101450000D01*
X159250000Y-101450000D02*
X159250000Y-103050000D01*
D16*
X160250000Y-105050000D02*
X158000000Y-105050000D01*
X160250000Y-105050000D02*
X162500000Y-105050000D01*
M02*
