G04 #@! TF.FileFunction,Copper,L2,Bot,Signal*
%FSLAX46Y46*%
G04 Gerber Fmt 4.6, Leading zero omitted, Abs format (unit mm)*
G04 Created by KiCad (PCBNEW 4.0.7) date 07/23/18 11:35:42*
%MOMM*%
%LPD*%
G01*
G04 APERTURE LIST*
%ADD10C,0.400000*%
%ADD11C,2.000000*%
%ADD12R,1.200000X0.750000*%
%ADD13R,0.900000X1.200000*%
%ADD14C,3.300000*%
%ADD15R,5.000000X5.000000*%
%ADD16C,1.000000*%
%ADD17C,0.600000*%
G04 APERTURE END LIST*
D10*
D11*
X147000000Y-108800000D03*
X147000000Y-106300000D03*
X147000000Y-103800000D03*
X147000000Y-101300000D03*
D12*
X142100000Y-108800000D03*
X144000000Y-108800000D03*
D13*
X144500000Y-103500000D03*
X144500000Y-101300000D03*
X142000000Y-103500000D03*
X142000000Y-101300000D03*
D14*
X155500000Y-105050000D03*
X165000000Y-105050000D03*
D15*
X160250000Y-105050000D03*
D16*
X158000000Y-105050000D03*
X162500000Y-105050000D03*
D10*
X142100000Y-108800000D02*
X141100000Y-108800000D01*
X141100000Y-108800000D02*
X140500000Y-108200000D01*
X140500000Y-108200000D02*
X140500000Y-101800000D01*
X140500000Y-101800000D02*
X141000000Y-101300000D01*
X141000000Y-101300000D02*
X142000000Y-101300000D01*
X144500000Y-101300000D02*
X142000000Y-101300000D01*
X144500000Y-101300000D02*
X147000000Y-101300000D01*
X144000000Y-108800000D02*
X147000000Y-108800000D01*
X142000000Y-103500000D02*
X142000000Y-105800000D01*
X142000000Y-105800000D02*
X142500000Y-106300000D01*
X142500000Y-106300000D02*
X147000000Y-106300000D01*
X144500000Y-103500000D02*
X146700000Y-103500000D01*
X146700000Y-103500000D02*
X147000000Y-103800000D01*
D17*
X158732106Y-105025000D02*
X160400000Y-105025000D01*
X158000000Y-105050000D02*
X158707106Y-105050000D01*
X158707106Y-105050000D02*
X158732106Y-105025000D01*
M02*
