M48
;DRILL file {KiCad 4.0.7} date 07/23/18 16:58:45
;FORMAT={-:-/ absolute / metric / decimal}
FMAT,2
METRIC,TZ
T1C0.500
T2C0.800
T3C0.998
T4C1.000
T5C1.001
T6C1.300
T7C3.300
T8C3.500
%
G90
G05
M71
T1
X94.Y-134.
X96.Y-152.
X102.Y-145.5
X104.5Y-156.5
X110.29Y-49.55
X111.Y-81.4
X111.Y-109.5
X113.19Y-150.71
X113.5Y-69.5
X113.5Y-98.5
X115.Y-132.
X118.Y-45.5
X119.Y-53.
X119.Y-62.
X122.5Y-98.5
X122.5Y-132.
X124.Y-129.5
X124.Y-146.
X125.29Y-94.05
X125.29Y-119.05
X125.5Y-69.5
X127.Y-148.
X129.Y-88.
X129.9Y-106.
X130.3Y-98.5
X130.3Y-101.
X131.Y-108.
X131.99Y-131.6
X132.Y-96.
X132.Y-124.
X132.Y-126.5
X132.Y-129.
X132.3Y-110.
X135.96Y-156.16
X143.Y-126.5
X143.Y-129.
X144.29Y-49.99
X166.29Y-44.05
X182.046Y-85.854
X192.29Y-46.05
X192.89Y-139.19
X194.Y-76.
X195.Y-125.17
X198.69Y-106.05
X199.29Y-108.05
X199.29Y-111.05
X199.48Y-135.01
X200.29Y-91.05
X208.Y-34.6
X209.6Y-101.4
T2
X80.29Y-153.67
X80.29Y-158.75
X82.83Y-156.21
X105.5Y-130.
X110.38Y-130.
X122.8Y-156.2
X125.34Y-153.66
X125.34Y-158.74
T3
X136.33Y-85.87
X136.33Y-88.41
X136.33Y-90.95
X136.33Y-93.49
X136.33Y-96.03
X136.33Y-98.57
X136.33Y-101.11
X136.33Y-103.65
X136.33Y-106.19
X136.33Y-108.73
X136.33Y-111.27
X136.33Y-113.81
X136.33Y-116.35
X136.33Y-118.89
X136.33Y-121.43
X136.33Y-123.97
X136.33Y-126.51
X136.33Y-129.05
X136.33Y-131.59
X136.33Y-134.13
X136.33Y-136.67
X136.33Y-139.21
X136.33Y-141.75
X136.33Y-144.29
X187.13Y-85.87
X187.13Y-88.41
X187.13Y-90.95
X187.13Y-93.49
X187.13Y-96.03
X187.13Y-98.57
X187.13Y-101.11
X187.13Y-103.65
X187.13Y-106.19
X187.13Y-108.73
X187.13Y-111.27
X187.13Y-113.81
X187.13Y-116.35
X187.13Y-118.89
X187.13Y-121.43
X187.13Y-123.97
X187.13Y-126.51
X187.13Y-129.05
X187.13Y-131.59
X187.13Y-134.13
X187.13Y-136.67
X187.13Y-139.21
X187.13Y-141.75
X187.13Y-144.29
T4
X74.5Y-41.5
X74.5Y-44.
X74.5Y-55.
X74.5Y-57.5
X74.5Y-83.5
X74.5Y-86.
X74.5Y-112.
X74.5Y-114.5
X74.5Y-126.5
X74.5Y-129.
X74.5Y-135.5
X74.5Y-138.
X74.5Y-144.5
X74.5Y-147.
X76.Y-71.
X76.Y-100.
X88.3Y-153.4
X90.8Y-153.4
X96.29Y-148.35
X100.86Y-53.834
X100.86Y-56.374
X100.86Y-58.914
X100.95Y-39.97
X100.95Y-42.51
X100.95Y-45.05
X101.Y-156.
X101.28Y-83.07
X101.28Y-85.61
X101.28Y-88.15
X101.29Y-110.95
X101.29Y-113.49
X101.29Y-116.03
X105.29Y-144.05
X108.Y-71.
X108.Y-100.
X114.9Y-153.4
X117.4Y-153.4
X124.Y-138.
X201.29Y-50.95
X201.29Y-53.45
X201.29Y-55.95
X201.29Y-58.45
X214.5Y-34.5
X214.5Y-37.
X214.5Y-39.5
X214.5Y-42.
X214.5Y-49.643
X214.5Y-52.143
X214.5Y-54.643
X214.5Y-57.143
X214.5Y-64.786
X214.5Y-67.286
X214.5Y-69.786
X214.5Y-72.286
X214.5Y-79.929
X214.5Y-82.429
X214.5Y-84.929
X214.5Y-87.429
X214.5Y-95.071
X214.5Y-97.571
X214.5Y-100.071
X214.5Y-102.571
X214.5Y-110.214
X214.5Y-112.714
X214.5Y-115.214
X214.5Y-117.714
X214.5Y-125.357
X214.5Y-127.857
X214.5Y-130.357
X214.5Y-132.857
X214.5Y-140.5
X214.5Y-143.
X214.5Y-145.5
X214.5Y-148.
T5
X136.33Y-52.85
X136.33Y-55.39
X136.33Y-83.33
X138.87Y-83.33
X138.87Y-85.87
X138.87Y-88.41
X138.87Y-90.95
X138.87Y-93.49
X138.87Y-96.03
X138.87Y-98.57
X138.87Y-101.11
X138.87Y-103.65
X138.87Y-106.19
X138.87Y-108.73
X138.87Y-111.27
X138.87Y-113.81
X138.87Y-116.35
X138.87Y-118.89
X138.87Y-121.43
X138.87Y-123.97
X138.87Y-126.51
X138.87Y-129.05
X138.87Y-131.59
X138.87Y-134.13
X138.87Y-136.67
X138.87Y-139.21
X138.87Y-141.75
X138.87Y-144.29
X187.13Y-83.33
X189.67Y-52.85
X189.67Y-55.39
X189.67Y-83.33
X189.67Y-85.87
X189.67Y-88.41
X189.67Y-90.95
X189.67Y-93.49
X189.67Y-96.03
X189.67Y-98.57
X189.67Y-101.11
X189.67Y-103.65
X189.67Y-106.19
X189.67Y-108.73
X189.67Y-111.27
X189.67Y-113.81
X189.67Y-116.35
X189.67Y-118.89
X189.67Y-121.43
X189.67Y-123.97
X189.67Y-126.51
X189.67Y-129.05
X189.67Y-131.59
X189.67Y-134.13
X189.67Y-136.67
X189.67Y-139.21
X189.67Y-141.75
X189.67Y-144.29
T6
X111.29Y-27.05
X116.29Y-27.05
T7
X72.Y-26.
X72.Y-156.
X217.Y-26.
X217.Y-156.
T8
X84.2Y-56.374
X84.29Y-42.51
X84.62Y-85.61
X84.63Y-113.49
T0
M30
