G04 #@! TF.FileFunction,Soldermask,Top*
%FSLAX46Y46*%
G04 Gerber Fmt 4.6, Leading zero omitted, Abs format (unit mm)*
G04 Created by KiCad (PCBNEW 4.0.7) date 07/23/18 11:07:22*
%MOMM*%
%LPD*%
G01*
G04 APERTURE LIST*
%ADD10C,0.400000*%
%ADD11O,3.900000X3.900000*%
%ADD12R,2.200000X2.200000*%
%ADD13O,2.200000X2.200000*%
%ADD14C,3.400000*%
%ADD15R,1.900000X1.650000*%
%ADD16R,3.000000X2.000000*%
%ADD17R,1.650000X1.900000*%
%ADD18C,2.400000*%
%ADD19R,1.200000X1.300000*%
%ADD20R,1.700000X1.900000*%
%ADD21R,1.900000X1.700000*%
%ADD22C,1.840000*%
%ADD23R,1.050000X1.460000*%
%ADD24R,4.200000X2.400000*%
%ADD25R,1.900000X2.400000*%
%ADD26C,1.900000*%
%ADD27C,2.900000*%
%ADD28R,0.800000X1.750000*%
%ADD29C,5.400000*%
%ADD30R,0.910000X2.100000*%
%ADD31R,1.900000X1.160000*%
%ADD32R,2.600000X1.900000*%
%ADD33O,2.600000X1.900000*%
%ADD34O,2.400000X1.900000*%
%ADD35R,2.400000X1.900000*%
G04 APERTURE END LIST*
D10*
D11*
X84620000Y-85610000D03*
D12*
X101280000Y-88150000D03*
D13*
X101280000Y-85610000D03*
X101280000Y-83070000D03*
D11*
X84630000Y-113490000D03*
D12*
X101290000Y-116030000D03*
D13*
X101290000Y-113490000D03*
X101290000Y-110950000D03*
D14*
X116290000Y-27050000D03*
X111290000Y-27050000D03*
D15*
X147500000Y-31000000D03*
X150000000Y-31000000D03*
D16*
X144290000Y-39848000D03*
X147890000Y-39848000D03*
D15*
X196000000Y-31000000D03*
X198500000Y-31000000D03*
D16*
X192290000Y-39848000D03*
X195890000Y-39848000D03*
D15*
X172000000Y-31000000D03*
X174500000Y-31000000D03*
D16*
X168290000Y-40050000D03*
X171890000Y-40050000D03*
D15*
X83790000Y-125050000D03*
X81290000Y-125050000D03*
X83790000Y-134050000D03*
X81290000Y-134050000D03*
X83790000Y-143050000D03*
X81290000Y-143050000D03*
D17*
X120500000Y-132000000D03*
X120500000Y-129500000D03*
X117000000Y-132000000D03*
X117000000Y-129500000D03*
D15*
X109500000Y-156500000D03*
X107000000Y-156500000D03*
D17*
X129000000Y-143000000D03*
X129000000Y-140500000D03*
D18*
X124000000Y-138000000D03*
X101000000Y-156000000D03*
X105290000Y-144050000D03*
X96290000Y-148350000D03*
D19*
X114600000Y-43500000D03*
X116500000Y-43500000D03*
X115550000Y-41500000D03*
X114600000Y-59500000D03*
X116500000Y-59500000D03*
X115550000Y-57500000D03*
D11*
X84290000Y-42510000D03*
D12*
X100950000Y-45050000D03*
D13*
X100950000Y-42510000D03*
X100950000Y-39970000D03*
D11*
X84200000Y-56374000D03*
D12*
X100860000Y-58914000D03*
D13*
X100860000Y-56374000D03*
X100860000Y-53834000D03*
D20*
X121290000Y-44050000D03*
X121290000Y-46750000D03*
X121290000Y-36350000D03*
X121290000Y-39050000D03*
X121290000Y-55050000D03*
X121290000Y-52350000D03*
X121290000Y-61750000D03*
X121290000Y-59050000D03*
X110290000Y-44050000D03*
X110290000Y-46750000D03*
X110290000Y-55050000D03*
X110290000Y-52350000D03*
D21*
X106290000Y-40050000D03*
X108990000Y-40050000D03*
X106290000Y-59050000D03*
X108990000Y-59050000D03*
D20*
X121290000Y-81476000D03*
X121290000Y-84176000D03*
X121290000Y-109350000D03*
X121290000Y-112050000D03*
D21*
X106290000Y-88150000D03*
X108990000Y-88150000D03*
X106290000Y-116050000D03*
X108990000Y-116050000D03*
D20*
X106290000Y-84150000D03*
X106290000Y-81450000D03*
X106274000Y-112192000D03*
X106274000Y-109492000D03*
X157000000Y-33000000D03*
X157000000Y-30300000D03*
D21*
X83990000Y-129050000D03*
X81290000Y-129050000D03*
X83990000Y-138050000D03*
X81290000Y-138050000D03*
X83990000Y-147050000D03*
X81290000Y-147050000D03*
D20*
X195000000Y-132000000D03*
X195000000Y-129300000D03*
X199000000Y-132000000D03*
X199000000Y-129300000D03*
D21*
X99290000Y-132150000D03*
X96590000Y-132150000D03*
X99290000Y-136150000D03*
X96590000Y-136150000D03*
D22*
X125340000Y-158740000D03*
X122800000Y-156200000D03*
X125340000Y-153660000D03*
X80290000Y-153670000D03*
X82830000Y-156210000D03*
X80290000Y-158750000D03*
D23*
X114440000Y-88200000D03*
X115390000Y-88200000D03*
X116340000Y-88200000D03*
X116340000Y-86000000D03*
X114440000Y-86000000D03*
X114440000Y-116050000D03*
X115390000Y-116050000D03*
X116340000Y-116050000D03*
X116340000Y-113850000D03*
X114440000Y-113850000D03*
D24*
X141000000Y-26700000D03*
D25*
X141000000Y-33000000D03*
X143300000Y-33000000D03*
X138700000Y-33000000D03*
D24*
X189000000Y-26700000D03*
D25*
X189000000Y-33000000D03*
X191300000Y-33000000D03*
X186700000Y-33000000D03*
D24*
X165000000Y-26700000D03*
D25*
X165000000Y-33000000D03*
X167300000Y-33000000D03*
X162700000Y-33000000D03*
D26*
X110380000Y-130000000D03*
X105500000Y-130000000D03*
D21*
X121290000Y-88150000D03*
X123990000Y-88150000D03*
X121290000Y-116050000D03*
X123990000Y-116050000D03*
D20*
X133000000Y-33000000D03*
X133000000Y-30300000D03*
X181000000Y-33000000D03*
X181000000Y-30300000D03*
D27*
X108000000Y-71000000D03*
X76000000Y-71000000D03*
X108000000Y-100000000D03*
X76000000Y-100000000D03*
D18*
X201290000Y-58450000D03*
X201290000Y-55950000D03*
X201290000Y-53450000D03*
X201290000Y-50950000D03*
D28*
X200440000Y-97550000D03*
X200440000Y-103400000D03*
X201090000Y-97550000D03*
X201090000Y-103400000D03*
X201740000Y-97550000D03*
X201740000Y-103400000D03*
X202390000Y-97550000D03*
X202390000Y-103400000D03*
X203040000Y-97550000D03*
X203040000Y-103400000D03*
X203690000Y-97550000D03*
X203690000Y-103400000D03*
X204340000Y-97550000D03*
X204340000Y-103400000D03*
X204990000Y-97550000D03*
X204990000Y-103400000D03*
X205640000Y-97550000D03*
X205640000Y-103400000D03*
X206290000Y-97550000D03*
X206290000Y-103400000D03*
X206940000Y-97550000D03*
X206940000Y-103400000D03*
X207590000Y-97550000D03*
X207590000Y-103400000D03*
D29*
X72000000Y-26000000D03*
X217000000Y-26000000D03*
X217000000Y-156000000D03*
X72000000Y-156000000D03*
D30*
X119540000Y-148000000D03*
X119540000Y-138250000D03*
X118270000Y-148000000D03*
X118270000Y-138250000D03*
X117000000Y-148000000D03*
X117000000Y-138250000D03*
X115730000Y-148000000D03*
X115730000Y-138250000D03*
X114460000Y-148000000D03*
X114460000Y-138250000D03*
X113190000Y-148000000D03*
X113190000Y-138250000D03*
X111920000Y-148000000D03*
X111920000Y-138250000D03*
X110650000Y-148000000D03*
X110650000Y-138250000D03*
D31*
X105520000Y-147785000D03*
X100380000Y-147785000D03*
X105520000Y-149055000D03*
X100380000Y-149055000D03*
X105520000Y-150325000D03*
X100380000Y-150325000D03*
X105520000Y-151595000D03*
X100380000Y-151595000D03*
D18*
X214500000Y-140499999D03*
X214500000Y-142999999D03*
X214500000Y-145499999D03*
X214500000Y-147999999D03*
X214500000Y-125357142D03*
X214500000Y-127857142D03*
X214500000Y-130357142D03*
X214500000Y-132857142D03*
X214500000Y-110214285D03*
X214500000Y-112714285D03*
X214500000Y-115214285D03*
X214500000Y-117714285D03*
X214500000Y-95071428D03*
X214500000Y-97571428D03*
X214500000Y-100071428D03*
X214500000Y-102571428D03*
X214500000Y-79928571D03*
X214500000Y-82428571D03*
X214500000Y-84928571D03*
X214500000Y-87428571D03*
X214500000Y-64785714D03*
X214500000Y-67285714D03*
X214500000Y-69785714D03*
X214500000Y-72285714D03*
X214500000Y-49642857D03*
X214500000Y-52142857D03*
X214500000Y-54642857D03*
X214500000Y-57142857D03*
X214500000Y-34500000D03*
X214500000Y-37000000D03*
X214500000Y-39500000D03*
X214500000Y-42000000D03*
X74500000Y-44000000D03*
X74500000Y-41500000D03*
X74500000Y-57500000D03*
X74500000Y-55000000D03*
X74500000Y-86000000D03*
X74500000Y-83500000D03*
X74500000Y-114500000D03*
X74500000Y-112000000D03*
X74500000Y-129000000D03*
X74500000Y-126500000D03*
X74500000Y-138000000D03*
X74500000Y-135500000D03*
X74500000Y-147000000D03*
X74500000Y-144500000D03*
X117400000Y-153400000D03*
X114900000Y-153400000D03*
X90800000Y-153400000D03*
X88300000Y-153400000D03*
D21*
X133000000Y-40000000D03*
X135700000Y-40000000D03*
X181000000Y-40000000D03*
X183700000Y-40000000D03*
X157000000Y-40000000D03*
X159700000Y-40000000D03*
D32*
X189670000Y-52850000D03*
D33*
X189670000Y-55390000D03*
D34*
X186880000Y-144290000D03*
X186880000Y-141750000D03*
X186880000Y-139210000D03*
X186880000Y-136670000D03*
X186880000Y-134130000D03*
X186880000Y-131590000D03*
X186880000Y-129050000D03*
X186880000Y-126510000D03*
X186880000Y-123970000D03*
X186880000Y-121430000D03*
X186880000Y-118890000D03*
X186880000Y-116350000D03*
X186880000Y-113810000D03*
X186880000Y-111270000D03*
X186880000Y-108730000D03*
X186880000Y-106190000D03*
X186880000Y-103650000D03*
X186880000Y-101110000D03*
X186880000Y-98570000D03*
X186880000Y-96030000D03*
X186880000Y-93490000D03*
X186880000Y-90950000D03*
X186880000Y-88410000D03*
X186880000Y-85870000D03*
D35*
X186880000Y-83330000D03*
D34*
X189920000Y-83330000D03*
X189920000Y-85870000D03*
X189920000Y-88410000D03*
X189920000Y-90950000D03*
X189920000Y-93490000D03*
X189920000Y-96030000D03*
X189920000Y-98570000D03*
X189920000Y-101110000D03*
X189920000Y-103650000D03*
X189920000Y-106190000D03*
X189920000Y-108730000D03*
X189920000Y-111270000D03*
X189920000Y-113810000D03*
X189920000Y-116350000D03*
X189920000Y-118890000D03*
X189920000Y-121430000D03*
X189920000Y-123970000D03*
X189920000Y-126510000D03*
X189920000Y-129050000D03*
X189920000Y-131590000D03*
X189920000Y-134130000D03*
X189920000Y-136670000D03*
X189920000Y-139210000D03*
X189920000Y-141750000D03*
X189920000Y-144290000D03*
X139120000Y-144290000D03*
X139120000Y-141750000D03*
X139120000Y-139210000D03*
X139120000Y-136670000D03*
X139120000Y-134130000D03*
X139120000Y-131590000D03*
X139120000Y-129050000D03*
X139120000Y-126510000D03*
X139120000Y-123970000D03*
X139120000Y-121430000D03*
X139120000Y-118890000D03*
X139120000Y-116350000D03*
X139120000Y-113810000D03*
X139120000Y-111270000D03*
X139120000Y-108730000D03*
X139120000Y-106190000D03*
X139120000Y-103650000D03*
X139120000Y-101110000D03*
X139120000Y-98570000D03*
X139120000Y-96030000D03*
X139120000Y-93490000D03*
X139120000Y-90950000D03*
X139120000Y-88410000D03*
X139120000Y-85870000D03*
X139120000Y-83330000D03*
D35*
X136080000Y-83330000D03*
D34*
X136080000Y-85870000D03*
X136080000Y-88410000D03*
X136080000Y-90950000D03*
X136080000Y-93490000D03*
X136080000Y-96030000D03*
X136080000Y-98570000D03*
X136080000Y-101110000D03*
X136080000Y-103650000D03*
X136080000Y-106190000D03*
X136080000Y-108730000D03*
X136080000Y-111270000D03*
X136080000Y-113810000D03*
X136080000Y-116350000D03*
X136080000Y-118890000D03*
X136080000Y-121430000D03*
X136080000Y-123970000D03*
X136080000Y-126510000D03*
X136080000Y-129050000D03*
X136080000Y-131590000D03*
X136080000Y-134130000D03*
X136080000Y-136670000D03*
X136080000Y-139210000D03*
X136080000Y-141750000D03*
X136080000Y-144290000D03*
D33*
X136330000Y-55390000D03*
D32*
X136330000Y-52850000D03*
M02*
