G04 #@! TF.FileFunction,Copper,L2,Bot,Signal*
%FSLAX46Y46*%
G04 Gerber Fmt 4.6, Leading zero omitted, Abs format (unit mm)*
G04 Created by KiCad (PCBNEW 4.0.7) date 07/23/18 11:07:22*
%MOMM*%
%LPD*%
G01*
G04 APERTURE LIST*
%ADD10C,0.400000*%
%ADD11R,1.800000X1.800000*%
%ADD12O,1.800000X1.800000*%
%ADD13C,3.000000*%
%ADD14C,2.000000*%
%ADD15C,1.440000*%
%ADD16C,1.500000*%
%ADD17C,2.500000*%
%ADD18C,5.000000*%
%ADD19R,2.200000X1.500000*%
%ADD20O,2.200000X1.500000*%
%ADD21O,2.000000X1.500000*%
%ADD22R,2.000000X1.500000*%
%ADD23C,1.000000*%
%ADD24C,0.800000*%
G04 APERTURE END LIST*
D10*
D11*
X101280000Y-88150000D03*
D12*
X101280000Y-85610000D03*
X101280000Y-83070000D03*
D11*
X101290000Y-116030000D03*
D12*
X101290000Y-113490000D03*
X101290000Y-110950000D03*
D13*
X116290000Y-27050000D03*
X111290000Y-27050000D03*
D14*
X124000000Y-138000000D03*
X101000000Y-156000000D03*
X105290000Y-144050000D03*
X96290000Y-148350000D03*
D11*
X100950000Y-45050000D03*
D12*
X100950000Y-42510000D03*
X100950000Y-39970000D03*
D11*
X100860000Y-58914000D03*
D12*
X100860000Y-56374000D03*
X100860000Y-53834000D03*
D15*
X125340000Y-158740000D03*
X122800000Y-156200000D03*
X125340000Y-153660000D03*
X80290000Y-153670000D03*
X82830000Y-156210000D03*
X80290000Y-158750000D03*
D16*
X110380000Y-130000000D03*
X105500000Y-130000000D03*
D17*
X108000000Y-71000000D03*
X76000000Y-71000000D03*
X108000000Y-100000000D03*
X76000000Y-100000000D03*
D14*
X201290000Y-58450000D03*
X201290000Y-55950000D03*
X201290000Y-53450000D03*
X201290000Y-50950000D03*
D18*
X72000000Y-26000000D03*
X217000000Y-26000000D03*
X217000000Y-156000000D03*
X72000000Y-156000000D03*
D14*
X214500000Y-140499999D03*
X214500000Y-142999999D03*
X214500000Y-145499999D03*
X214500000Y-147999999D03*
X214500000Y-125357142D03*
X214500000Y-127857142D03*
X214500000Y-130357142D03*
X214500000Y-132857142D03*
X214500000Y-110214285D03*
X214500000Y-112714285D03*
X214500000Y-115214285D03*
X214500000Y-117714285D03*
X214500000Y-95071428D03*
X214500000Y-97571428D03*
X214500000Y-100071428D03*
X214500000Y-102571428D03*
X214500000Y-79928571D03*
X214500000Y-82428571D03*
X214500000Y-84928571D03*
X214500000Y-87428571D03*
X214500000Y-64785714D03*
X214500000Y-67285714D03*
X214500000Y-69785714D03*
X214500000Y-72285714D03*
X214500000Y-49642857D03*
X214500000Y-52142857D03*
X214500000Y-54642857D03*
X214500000Y-57142857D03*
X214500000Y-34500000D03*
X214500000Y-37000000D03*
X214500000Y-39500000D03*
X214500000Y-42000000D03*
X74500000Y-44000000D03*
X74500000Y-41500000D03*
X74500000Y-57500000D03*
X74500000Y-55000000D03*
X74500000Y-86000000D03*
X74500000Y-83500000D03*
X74500000Y-114500000D03*
X74500000Y-112000000D03*
X74500000Y-129000000D03*
X74500000Y-126500000D03*
X74500000Y-138000000D03*
X74500000Y-135500000D03*
X74500000Y-147000000D03*
X74500000Y-144500000D03*
X117400000Y-153400000D03*
X114900000Y-153400000D03*
X90800000Y-153400000D03*
X88300000Y-153400000D03*
D19*
X189670000Y-52850000D03*
D20*
X189670000Y-55390000D03*
D21*
X186880000Y-144290000D03*
X186880000Y-141750000D03*
X186880000Y-139210000D03*
X186880000Y-136670000D03*
X186880000Y-134130000D03*
X186880000Y-131590000D03*
X186880000Y-129050000D03*
X186880000Y-126510000D03*
X186880000Y-123970000D03*
X186880000Y-121430000D03*
X186880000Y-118890000D03*
X186880000Y-116350000D03*
X186880000Y-113810000D03*
X186880000Y-111270000D03*
X186880000Y-108730000D03*
X186880000Y-106190000D03*
X186880000Y-103650000D03*
X186880000Y-101110000D03*
X186880000Y-98570000D03*
X186880000Y-96030000D03*
X186880000Y-93490000D03*
X186880000Y-90950000D03*
X186880000Y-88410000D03*
X186880000Y-85870000D03*
D22*
X186880000Y-83330000D03*
D21*
X189920000Y-83330000D03*
X189920000Y-85870000D03*
X189920000Y-88410000D03*
X189920000Y-90950000D03*
X189920000Y-93490000D03*
X189920000Y-96030000D03*
X189920000Y-98570000D03*
X189920000Y-101110000D03*
X189920000Y-103650000D03*
X189920000Y-106190000D03*
X189920000Y-108730000D03*
X189920000Y-111270000D03*
X189920000Y-113810000D03*
X189920000Y-116350000D03*
X189920000Y-118890000D03*
X189920000Y-121430000D03*
X189920000Y-123970000D03*
X189920000Y-126510000D03*
X189920000Y-129050000D03*
X189920000Y-131590000D03*
X189920000Y-134130000D03*
X189920000Y-136670000D03*
X189920000Y-139210000D03*
X189920000Y-141750000D03*
X189920000Y-144290000D03*
X139120000Y-144290000D03*
X139120000Y-141750000D03*
X139120000Y-139210000D03*
X139120000Y-136670000D03*
X139120000Y-134130000D03*
X139120000Y-131590000D03*
X139120000Y-129050000D03*
X139120000Y-126510000D03*
X139120000Y-123970000D03*
X139120000Y-121430000D03*
X139120000Y-118890000D03*
X139120000Y-116350000D03*
X139120000Y-113810000D03*
X139120000Y-111270000D03*
X139120000Y-108730000D03*
X139120000Y-106190000D03*
X139120000Y-103650000D03*
X139120000Y-101110000D03*
X139120000Y-98570000D03*
X139120000Y-96030000D03*
X139120000Y-93490000D03*
X139120000Y-90950000D03*
X139120000Y-88410000D03*
X139120000Y-85870000D03*
X139120000Y-83330000D03*
D22*
X136080000Y-83330000D03*
D21*
X136080000Y-85870000D03*
X136080000Y-88410000D03*
X136080000Y-90950000D03*
X136080000Y-93490000D03*
X136080000Y-96030000D03*
X136080000Y-98570000D03*
X136080000Y-101110000D03*
X136080000Y-103650000D03*
X136080000Y-106190000D03*
X136080000Y-108730000D03*
X136080000Y-111270000D03*
X136080000Y-113810000D03*
X136080000Y-116350000D03*
X136080000Y-118890000D03*
X136080000Y-121430000D03*
X136080000Y-123970000D03*
X136080000Y-126510000D03*
X136080000Y-129050000D03*
X136080000Y-131590000D03*
X136080000Y-134130000D03*
X136080000Y-136670000D03*
X136080000Y-139210000D03*
X136080000Y-141750000D03*
X136080000Y-144290000D03*
D20*
X136330000Y-55390000D03*
D19*
X136330000Y-52850000D03*
D23*
X135960000Y-156160000D03*
X194000000Y-76000000D03*
X102000000Y-145500000D03*
X104500000Y-156500000D03*
X124000000Y-129500000D03*
X113500000Y-98500000D03*
X113500000Y-69500000D03*
X111000000Y-81400000D03*
X122500000Y-98500000D03*
X125500000Y-69500000D03*
X127000000Y-148000000D03*
X209600000Y-101400000D03*
X111000000Y-109500000D03*
X94000000Y-134000000D03*
X144290000Y-49990000D03*
X182046000Y-85854000D03*
X110290000Y-49550000D03*
X199480000Y-135010000D03*
X119000000Y-62000000D03*
X119000000Y-53000000D03*
X96000000Y-152000000D03*
X208000000Y-34600000D03*
X124000000Y-146000000D03*
X118000000Y-45500000D03*
X192290000Y-46050000D03*
X125290000Y-119050000D03*
X125290000Y-94050000D03*
X166290000Y-44050000D03*
X129900000Y-106000000D03*
X131000000Y-108000000D03*
X132300000Y-110000000D03*
X122500000Y-132000000D03*
X115000000Y-132000000D03*
X195000000Y-125170000D03*
X198690000Y-106050000D03*
X199290000Y-108050000D03*
X199290000Y-111050000D03*
X200290000Y-91050000D03*
X192890000Y-139190000D03*
X143000000Y-129000000D03*
X143000000Y-126500000D03*
X129000000Y-88000000D03*
X132000000Y-96000000D03*
X130300000Y-98500000D03*
X130300000Y-101000000D03*
X132000000Y-124000000D03*
X132000000Y-126500000D03*
X132000000Y-129000000D03*
X131990000Y-131600000D03*
X113190000Y-150710000D03*
D10*
X138870000Y-144290000D02*
X138870000Y-153250000D01*
X138870000Y-153250000D02*
X135960000Y-156160000D01*
X193814000Y-83314000D02*
X194000000Y-83128000D01*
X194000000Y-83128000D02*
X194000000Y-76000000D01*
X189666000Y-83314000D02*
X193814000Y-83314000D01*
D24*
X110290000Y-49550000D02*
X143850000Y-49550000D01*
X143850000Y-49550000D02*
X144290000Y-49990000D01*
X187126000Y-85854000D02*
X182046000Y-85854000D01*
X189666000Y-85854000D02*
X187126000Y-85854000D01*
D10*
X199480000Y-135010000D02*
X204969999Y-140499999D01*
X204969999Y-140499999D02*
X214500000Y-140499999D01*
D24*
X119000000Y-53000000D02*
X119000000Y-62000000D01*
X119000000Y-62000000D02*
X119000000Y-120900000D01*
X119000000Y-120900000D02*
X128000000Y-129900000D01*
X128000000Y-129900000D02*
X128000000Y-142000000D01*
X128000000Y-142000000D02*
X124000000Y-146000000D01*
D10*
X124000000Y-146000000D02*
X109900000Y-146000000D01*
X109900000Y-146000000D02*
X103900000Y-152000000D01*
X103900000Y-152000000D02*
X96000000Y-152000000D01*
D24*
X214500000Y-34500000D02*
X208100000Y-34500000D01*
X208100000Y-34500000D02*
X208000000Y-34600000D01*
X116290000Y-36050000D02*
X116290000Y-43790000D01*
X116290000Y-43790000D02*
X118000000Y-45500000D01*
X192290000Y-46050000D02*
X177150000Y-46050000D01*
X177150000Y-46050000D02*
X160300000Y-29200000D01*
X160300000Y-29200000D02*
X123140000Y-29200000D01*
X123140000Y-29200000D02*
X116290000Y-36050000D01*
X214500000Y-34500000D02*
X217000000Y-34500000D01*
X217000000Y-34500000D02*
X219000000Y-36500000D01*
X219000000Y-110200000D02*
X219000000Y-125500000D01*
X219000000Y-125500000D02*
X219000000Y-136000000D01*
X214500000Y-125357142D02*
X218857142Y-125357142D01*
X218857142Y-125357142D02*
X219000000Y-125500000D01*
X219000000Y-95100000D02*
X219000000Y-110200000D01*
X214500000Y-110214285D02*
X218985715Y-110214285D01*
X218985715Y-110214285D02*
X219000000Y-110200000D01*
X219000000Y-79900000D02*
X219000000Y-95100000D01*
X214500000Y-95071428D02*
X218971428Y-95071428D01*
X218971428Y-95071428D02*
X219000000Y-95100000D01*
X219000000Y-64800000D02*
X219000000Y-79900000D01*
X218971429Y-79928571D02*
X219000000Y-79900000D01*
X214500000Y-79928571D02*
X218971429Y-79928571D01*
X219000000Y-49400000D02*
X219000000Y-64800000D01*
X214500000Y-64785714D02*
X218985714Y-64785714D01*
X218985714Y-64785714D02*
X219000000Y-64800000D01*
X219000000Y-36500000D02*
X219000000Y-49400000D01*
X214500000Y-49642857D02*
X218757143Y-49642857D01*
X218757143Y-49642857D02*
X219000000Y-49400000D01*
X219000000Y-136000000D02*
X215499999Y-139500000D01*
X215499999Y-139500000D02*
X214500000Y-140499999D01*
X125290000Y-94050000D02*
X125289999Y-93342893D01*
X125289999Y-93342893D02*
X125289999Y-81220001D01*
X125289999Y-81220001D02*
X144750000Y-61760000D01*
X144750000Y-61760000D02*
X153940000Y-61760000D01*
X166290000Y-49410000D02*
X166290000Y-44050000D01*
X153940000Y-61760000D02*
X166290000Y-49410000D01*
X125290000Y-119050000D02*
X125290000Y-118342894D01*
X125290000Y-118342894D02*
X125290000Y-94050000D01*
D10*
X129900000Y-106000000D02*
X132266000Y-103634000D01*
X132266000Y-103634000D02*
X136326000Y-103634000D01*
X131000000Y-108000000D02*
X132826000Y-106174000D01*
X132826000Y-106174000D02*
X136326000Y-106174000D01*
X136326000Y-108714000D02*
X133586000Y-108714000D01*
X133586000Y-108714000D02*
X132300000Y-110000000D01*
X119000000Y-130000000D02*
X110380000Y-130000000D01*
X121000000Y-132000000D02*
X119000000Y-130000000D01*
X122500000Y-132000000D02*
X121000000Y-132000000D01*
X115000000Y-132000000D02*
X107500000Y-132000000D01*
X107500000Y-132000000D02*
X105500000Y-130000000D01*
X187126000Y-136654000D02*
X184686000Y-136654000D01*
X194500000Y-148000000D02*
X197000000Y-145500000D01*
X184686000Y-136654000D02*
X182500000Y-138840000D01*
X182500000Y-138840000D02*
X182500000Y-145510000D01*
X182500000Y-145510000D02*
X184990000Y-148000000D01*
X184990000Y-148000000D02*
X194500000Y-148000000D01*
X197000000Y-145500000D02*
X197000000Y-127170000D01*
X197000000Y-127170000D02*
X195000000Y-125170000D01*
X195190000Y-106050000D02*
X192774000Y-103634000D01*
X192774000Y-103634000D02*
X189666000Y-103634000D01*
X198690000Y-106050000D02*
X195190000Y-106050000D01*
X199290000Y-108050000D02*
X194590000Y-108050000D01*
X194590000Y-108050000D02*
X192714000Y-106174000D01*
X192714000Y-106174000D02*
X189666000Y-106174000D01*
X199290000Y-111050000D02*
X189870000Y-111050000D01*
X189870000Y-111050000D02*
X189666000Y-111254000D01*
X201290000Y-53450000D02*
X198550000Y-53450000D01*
X198550000Y-53450000D02*
X178000000Y-74000000D01*
X178000000Y-74000000D02*
X178000000Y-113460000D01*
X178000000Y-113460000D02*
X183414000Y-118874000D01*
X183414000Y-118874000D02*
X187126000Y-118874000D01*
X189666000Y-118874000D02*
X196026000Y-118874000D01*
X196026000Y-118874000D02*
X206000000Y-108900000D01*
X206000000Y-58000000D02*
X203950000Y-55950000D01*
X206000000Y-108900000D02*
X206000000Y-58000000D01*
X203950000Y-55950000D02*
X201290000Y-55950000D01*
X200290000Y-91050000D02*
X199865736Y-91050000D01*
X199865736Y-91050000D02*
X194901736Y-96014000D01*
X194901736Y-96014000D02*
X189666000Y-96014000D01*
X189666000Y-139194000D02*
X192886000Y-139194000D01*
X192886000Y-139194000D02*
X192890000Y-139190000D01*
X138866000Y-129034000D02*
X138900000Y-129000000D01*
X138900000Y-129000000D02*
X143000000Y-129000000D01*
X143000000Y-126500000D02*
X138872000Y-126500000D01*
X138872000Y-126500000D02*
X138866000Y-126494000D01*
X138866000Y-101094000D02*
X141246000Y-101094000D01*
X141246000Y-101094000D02*
X142290000Y-100050000D01*
X142290000Y-100050000D02*
X142290000Y-79490000D01*
X142290000Y-79490000D02*
X139900000Y-77100000D01*
X139900000Y-77100000D02*
X135100000Y-77100000D01*
X135100000Y-77100000D02*
X129000000Y-83200000D01*
X129000000Y-83200000D02*
X129000000Y-86632894D01*
X129000000Y-86632894D02*
X129000000Y-88000000D01*
X132000000Y-96000000D02*
X136312000Y-96000000D01*
X136312000Y-96000000D02*
X136326000Y-96014000D01*
X136326000Y-98554000D02*
X136272000Y-98500000D01*
X136272000Y-98500000D02*
X130300000Y-98500000D01*
X130300000Y-101000000D02*
X136232000Y-101000000D01*
X136232000Y-101000000D02*
X136326000Y-101094000D01*
X136326000Y-123954000D02*
X136280000Y-124000000D01*
X136280000Y-124000000D02*
X132000000Y-124000000D01*
X136320000Y-126500000D02*
X132000000Y-126500000D01*
X132000000Y-129000000D02*
X136292000Y-129000000D01*
X136292000Y-129000000D02*
X136326000Y-129034000D01*
X136330000Y-131590000D02*
X132000000Y-131590000D01*
X132000000Y-131590000D02*
X131990000Y-131600000D01*
X118700000Y-152100000D02*
X117310000Y-150710000D01*
X117310000Y-150710000D02*
X113190000Y-150710000D01*
X118700000Y-152100000D02*
X117400000Y-153400000D01*
X122800000Y-156200000D02*
X118700000Y-152100000D01*
X116730000Y-158740000D02*
X114900000Y-156910000D01*
X114900000Y-156910000D02*
X114900000Y-153400000D01*
X125340000Y-158740000D02*
X116730000Y-158740000D01*
X125080000Y-159000000D02*
X125340000Y-158740000D01*
X89590000Y-156210000D02*
X82830000Y-156210000D01*
X90800000Y-155000000D02*
X89590000Y-156210000D01*
X90800000Y-153400000D02*
X90800000Y-155000000D01*
X80290000Y-153670000D02*
X88030000Y-153670000D01*
X88030000Y-153670000D02*
X88300000Y-153400000D01*
G36*
X221217000Y-160217000D02*
X152200000Y-160217000D01*
X152200000Y-156635311D01*
X213791445Y-156635311D01*
X214278805Y-157814812D01*
X215180442Y-158718024D01*
X216359090Y-159207441D01*
X217635311Y-159208555D01*
X218814812Y-158721195D01*
X219718024Y-157819558D01*
X220207441Y-156640910D01*
X220208555Y-155364689D01*
X219721195Y-154185188D01*
X218819558Y-153281976D01*
X217640910Y-152792559D01*
X216364689Y-152791445D01*
X215185188Y-153278805D01*
X214281976Y-154180442D01*
X213792559Y-155359090D01*
X213791445Y-156635311D01*
X152200000Y-156635311D01*
X152200000Y-149297843D01*
X213626420Y-149297843D01*
X213734402Y-149564144D01*
X214391252Y-149738063D01*
X215064658Y-149647376D01*
X215265598Y-149564144D01*
X215373580Y-149297843D01*
X214500000Y-148424263D01*
X213626420Y-149297843D01*
X152200000Y-149297843D01*
X152200000Y-120000000D01*
X152184243Y-119922189D01*
X152139454Y-119856638D01*
X152072691Y-119813678D01*
X152000000Y-119800000D01*
X150000000Y-119800000D01*
X149922189Y-119815757D01*
X149856638Y-119860546D01*
X149813678Y-119927309D01*
X149800000Y-120000000D01*
X149800000Y-160217000D01*
X67783000Y-160217000D01*
X67783000Y-156635311D01*
X68791445Y-156635311D01*
X69278805Y-157814812D01*
X70180442Y-158718024D01*
X71359090Y-159207441D01*
X72635311Y-159208555D01*
X73060668Y-159032801D01*
X78861753Y-159032801D01*
X79078695Y-159557840D01*
X79480047Y-159959893D01*
X80004707Y-160177751D01*
X80572801Y-160178247D01*
X81097840Y-159961305D01*
X81499893Y-159559953D01*
X81717751Y-159035293D01*
X81718247Y-158467199D01*
X81501305Y-157942160D01*
X81099953Y-157540107D01*
X80575293Y-157322249D01*
X80007199Y-157321753D01*
X79482160Y-157538695D01*
X79080107Y-157940047D01*
X78862249Y-158464707D01*
X78861753Y-159032801D01*
X73060668Y-159032801D01*
X73814812Y-158721195D01*
X74718024Y-157819558D01*
X75207441Y-156640910D01*
X75208555Y-155364689D01*
X74721195Y-154185188D01*
X74489214Y-153952801D01*
X78861753Y-153952801D01*
X79078695Y-154477840D01*
X79480047Y-154879893D01*
X80004707Y-155097751D01*
X80572801Y-155098247D01*
X81097840Y-154881305D01*
X81401675Y-154578000D01*
X87062574Y-154578000D01*
X87331232Y-154847128D01*
X87958767Y-155107703D01*
X88638252Y-155108296D01*
X89266240Y-154848816D01*
X89550074Y-154565478D01*
X89750070Y-154765824D01*
X89213894Y-155302000D01*
X83941320Y-155302000D01*
X83639953Y-155000107D01*
X83115293Y-154782249D01*
X82547199Y-154781753D01*
X82022160Y-154998695D01*
X81620107Y-155400047D01*
X81402249Y-155924707D01*
X81401753Y-156492801D01*
X81618695Y-157017840D01*
X82020047Y-157419893D01*
X82544707Y-157637751D01*
X83112801Y-157638247D01*
X83637840Y-157421305D01*
X83941675Y-157118000D01*
X89590000Y-157118000D01*
X89937477Y-157048883D01*
X90232053Y-156852053D01*
X90745854Y-156338252D01*
X99291704Y-156338252D01*
X99551184Y-156966240D01*
X100031232Y-157447128D01*
X100658767Y-157707703D01*
X101338252Y-157708296D01*
X101966240Y-157448816D01*
X102447128Y-156968768D01*
X102707703Y-156341233D01*
X102708296Y-155661748D01*
X102448816Y-155033760D01*
X101968768Y-154552872D01*
X101341233Y-154292297D01*
X100661748Y-154291704D01*
X100033760Y-154551184D01*
X99552872Y-155031232D01*
X99292297Y-155658767D01*
X99291704Y-156338252D01*
X90745854Y-156338252D01*
X91442053Y-155642053D01*
X91638883Y-155347477D01*
X91708000Y-155000000D01*
X91708000Y-154872880D01*
X91766240Y-154848816D01*
X92247128Y-154368768D01*
X92507703Y-153741233D01*
X92508296Y-153061748D01*
X92248816Y-152433760D01*
X91768768Y-151952872D01*
X91141233Y-151692297D01*
X90461748Y-151691704D01*
X89833760Y-151951184D01*
X89549926Y-152234522D01*
X89268768Y-151952872D01*
X88641233Y-151692297D01*
X87961748Y-151691704D01*
X87333760Y-151951184D01*
X86852872Y-152431232D01*
X86715525Y-152762000D01*
X81401320Y-152762000D01*
X81099953Y-152460107D01*
X80575293Y-152242249D01*
X80007199Y-152241753D01*
X79482160Y-152458695D01*
X79080107Y-152860047D01*
X78862249Y-153384707D01*
X78861753Y-153952801D01*
X74489214Y-153952801D01*
X73819558Y-153281976D01*
X72640910Y-152792559D01*
X71364689Y-152791445D01*
X70185188Y-153278805D01*
X69281976Y-154180442D01*
X68792559Y-155359090D01*
X68791445Y-156635311D01*
X67783000Y-156635311D01*
X67783000Y-147338252D01*
X72791704Y-147338252D01*
X73051184Y-147966240D01*
X73531232Y-148447128D01*
X74158767Y-148707703D01*
X74838252Y-148708296D01*
X74886762Y-148688252D01*
X94581704Y-148688252D01*
X94841184Y-149316240D01*
X95321232Y-149797128D01*
X95948767Y-150057703D01*
X96628252Y-150058296D01*
X97256240Y-149798816D01*
X97737128Y-149318768D01*
X97997703Y-148691233D01*
X97998296Y-148011748D01*
X97738816Y-147383760D01*
X97258768Y-146902872D01*
X96631233Y-146642297D01*
X95951748Y-146641704D01*
X95323760Y-146901184D01*
X94842872Y-147381232D01*
X94582297Y-148008767D01*
X94581704Y-148688252D01*
X74886762Y-148688252D01*
X75466240Y-148448816D01*
X75947128Y-147968768D01*
X76207703Y-147341233D01*
X76208296Y-146661748D01*
X75948816Y-146033760D01*
X75468768Y-145552872D01*
X74887063Y-145311327D01*
X74500000Y-144924264D01*
X74112008Y-145312256D01*
X73533760Y-145551184D01*
X73052872Y-146031232D01*
X72792297Y-146658767D01*
X72791704Y-147338252D01*
X67783000Y-147338252D01*
X67783000Y-144391252D01*
X72761936Y-144391252D01*
X72852623Y-145064658D01*
X72935855Y-145265598D01*
X73202156Y-145373580D01*
X74075736Y-144500000D01*
X74924264Y-144500000D01*
X75797844Y-145373580D01*
X76064145Y-145265598D01*
X76238064Y-144608748D01*
X76208370Y-144388252D01*
X103581704Y-144388252D01*
X103841184Y-145016240D01*
X104321232Y-145497128D01*
X104948767Y-145757703D01*
X105628252Y-145758296D01*
X106256240Y-145498816D01*
X106737128Y-145018768D01*
X106997703Y-144391233D01*
X106998296Y-143711748D01*
X106738816Y-143083760D01*
X106258768Y-142602872D01*
X105631233Y-142342297D01*
X104951748Y-142341704D01*
X104323760Y-142601184D01*
X103842872Y-143081232D01*
X103582297Y-143708767D01*
X103581704Y-144388252D01*
X76208370Y-144388252D01*
X76147377Y-143935342D01*
X76064145Y-143734402D01*
X75797844Y-143626420D01*
X74924264Y-144500000D01*
X74075736Y-144500000D01*
X73202156Y-143626420D01*
X72935855Y-143734402D01*
X72761936Y-144391252D01*
X67783000Y-144391252D01*
X67783000Y-143202156D01*
X73626420Y-143202156D01*
X74500000Y-144075736D01*
X75373580Y-143202156D01*
X75265598Y-142935855D01*
X74608748Y-142761936D01*
X73935342Y-142852623D01*
X73734402Y-142935855D01*
X73626420Y-143202156D01*
X67783000Y-143202156D01*
X67783000Y-138338252D01*
X72791704Y-138338252D01*
X73051184Y-138966240D01*
X73531232Y-139447128D01*
X74158767Y-139707703D01*
X74838252Y-139708296D01*
X75466240Y-139448816D01*
X75947128Y-138968768D01*
X76207703Y-138341233D01*
X76207705Y-138338252D01*
X122291704Y-138338252D01*
X122551184Y-138966240D01*
X123031232Y-139447128D01*
X123658767Y-139707703D01*
X124338252Y-139708296D01*
X124966240Y-139448816D01*
X125447128Y-138968768D01*
X125707703Y-138341233D01*
X125708296Y-137661748D01*
X125448816Y-137033760D01*
X124968768Y-136552872D01*
X124341233Y-136292297D01*
X123661748Y-136291704D01*
X123033760Y-136551184D01*
X122552872Y-137031232D01*
X122292297Y-137658767D01*
X122291704Y-138338252D01*
X76207705Y-138338252D01*
X76208296Y-137661748D01*
X75948816Y-137033760D01*
X75468768Y-136552872D01*
X74887063Y-136311327D01*
X74500000Y-135924264D01*
X74112008Y-136312256D01*
X73533760Y-136551184D01*
X73052872Y-137031232D01*
X72792297Y-137658767D01*
X72791704Y-138338252D01*
X67783000Y-138338252D01*
X67783000Y-135391252D01*
X72761936Y-135391252D01*
X72852623Y-136064658D01*
X72935855Y-136265598D01*
X73202156Y-136373580D01*
X74075736Y-135500000D01*
X74924264Y-135500000D01*
X75797844Y-136373580D01*
X76064145Y-136265598D01*
X76238064Y-135608748D01*
X76147377Y-134935342D01*
X76064145Y-134734402D01*
X75797844Y-134626420D01*
X74924264Y-135500000D01*
X74075736Y-135500000D01*
X73202156Y-134626420D01*
X72935855Y-134734402D01*
X72761936Y-135391252D01*
X67783000Y-135391252D01*
X67783000Y-134202156D01*
X73626420Y-134202156D01*
X74500000Y-135075736D01*
X75373580Y-134202156D01*
X75265598Y-133935855D01*
X74608748Y-133761936D01*
X73935342Y-133852623D01*
X73734402Y-133935855D01*
X73626420Y-134202156D01*
X67783000Y-134202156D01*
X67783000Y-129338252D01*
X72791704Y-129338252D01*
X73051184Y-129966240D01*
X73531232Y-130447128D01*
X74158767Y-130707703D01*
X74838252Y-130708296D01*
X75466240Y-130448816D01*
X75626594Y-130288742D01*
X104041747Y-130288742D01*
X104263247Y-130824812D01*
X104673031Y-131235312D01*
X105208714Y-131457746D01*
X105674047Y-131458153D01*
X106857947Y-132642053D01*
X107152523Y-132838883D01*
X107500000Y-132908000D01*
X114199536Y-132908000D01*
X114314830Y-133023495D01*
X114758660Y-133207790D01*
X115239232Y-133208209D01*
X115683383Y-133024690D01*
X116023495Y-132685170D01*
X116207790Y-132241340D01*
X116208209Y-131760768D01*
X116024690Y-131316617D01*
X115685170Y-130976505D01*
X115520192Y-130908000D01*
X118623894Y-130908000D01*
X120357947Y-132642053D01*
X120652523Y-132838883D01*
X121000000Y-132908000D01*
X121699536Y-132908000D01*
X121814830Y-133023495D01*
X122258660Y-133207790D01*
X122739232Y-133208209D01*
X123183383Y-133024690D01*
X123523495Y-132685170D01*
X123707790Y-132241340D01*
X123708209Y-131760768D01*
X123524690Y-131316617D01*
X123185170Y-130976505D01*
X122741340Y-130792210D01*
X122260768Y-130791791D01*
X121816617Y-130975310D01*
X121699724Y-131092000D01*
X121376106Y-131092000D01*
X119642053Y-129357947D01*
X119347477Y-129161117D01*
X119000000Y-129092000D01*
X111533710Y-129092000D01*
X111206969Y-128764688D01*
X110671286Y-128542254D01*
X110091258Y-128541747D01*
X109555188Y-128763247D01*
X109144688Y-129173031D01*
X108922254Y-129708714D01*
X108921747Y-130288742D01*
X109143247Y-130824812D01*
X109409969Y-131092000D01*
X107876106Y-131092000D01*
X106957849Y-130173743D01*
X106958253Y-129711258D01*
X106736753Y-129175188D01*
X106326969Y-128764688D01*
X105791286Y-128542254D01*
X105211258Y-128541747D01*
X104675188Y-128763247D01*
X104264688Y-129173031D01*
X104042254Y-129708714D01*
X104041747Y-130288742D01*
X75626594Y-130288742D01*
X75947128Y-129968768D01*
X76207703Y-129341233D01*
X76208296Y-128661748D01*
X75948816Y-128033760D01*
X75468768Y-127552872D01*
X74887063Y-127311327D01*
X74500000Y-126924264D01*
X74112008Y-127312256D01*
X73533760Y-127551184D01*
X73052872Y-128031232D01*
X72792297Y-128658767D01*
X72791704Y-129338252D01*
X67783000Y-129338252D01*
X67783000Y-126391252D01*
X72761936Y-126391252D01*
X72852623Y-127064658D01*
X72935855Y-127265598D01*
X73202156Y-127373580D01*
X74075736Y-126500000D01*
X74924264Y-126500000D01*
X75797844Y-127373580D01*
X76064145Y-127265598D01*
X76238064Y-126608748D01*
X76147377Y-125935342D01*
X76064145Y-125734402D01*
X75797844Y-125626420D01*
X74924264Y-126500000D01*
X74075736Y-126500000D01*
X73202156Y-125626420D01*
X72935855Y-125734402D01*
X72761936Y-126391252D01*
X67783000Y-126391252D01*
X67783000Y-125202156D01*
X73626420Y-125202156D01*
X74500000Y-126075736D01*
X75373580Y-125202156D01*
X75265598Y-124935855D01*
X74608748Y-124761936D01*
X73935342Y-124852623D01*
X73734402Y-124935855D01*
X73626420Y-125202156D01*
X67783000Y-125202156D01*
X67783000Y-121200000D01*
X117951673Y-121200000D01*
X117976341Y-121324014D01*
X118216526Y-121683474D01*
X126892000Y-130358948D01*
X126892000Y-141541052D01*
X123557112Y-144875940D01*
X123316617Y-144975310D01*
X123199724Y-145092000D01*
X109900000Y-145092000D01*
X109552523Y-145161117D01*
X109257947Y-145357947D01*
X103523894Y-151092000D01*
X96800464Y-151092000D01*
X96685170Y-150976505D01*
X96241340Y-150792210D01*
X95760768Y-150791791D01*
X95316617Y-150975310D01*
X94976505Y-151314830D01*
X94792210Y-151758660D01*
X94791791Y-152239232D01*
X94975310Y-152683383D01*
X95314830Y-153023495D01*
X95758660Y-153207790D01*
X96239232Y-153208209D01*
X96683383Y-153024690D01*
X96800276Y-152908000D01*
X103900000Y-152908000D01*
X104247477Y-152838883D01*
X104542053Y-152642053D01*
X106234874Y-150949232D01*
X111981791Y-150949232D01*
X112165310Y-151393383D01*
X112504830Y-151733495D01*
X112948660Y-151917790D01*
X113429232Y-151918209D01*
X113873383Y-151734690D01*
X113990276Y-151618000D01*
X116933894Y-151618000D01*
X117023431Y-151707537D01*
X116433760Y-151951184D01*
X116149926Y-152234522D01*
X115868768Y-151952872D01*
X115241233Y-151692297D01*
X114561748Y-151691704D01*
X113933760Y-151951184D01*
X113452872Y-152431232D01*
X113192297Y-153058767D01*
X113191704Y-153738252D01*
X113451184Y-154366240D01*
X113931232Y-154847128D01*
X113992000Y-154872361D01*
X113992000Y-156910000D01*
X114061117Y-157257477D01*
X114257947Y-157552053D01*
X116087947Y-159382053D01*
X116382523Y-159578883D01*
X116730000Y-159648000D01*
X124228680Y-159648000D01*
X124530047Y-159949893D01*
X125054707Y-160167751D01*
X125622801Y-160168247D01*
X126147840Y-159951305D01*
X126549893Y-159549953D01*
X126767751Y-159025293D01*
X126768247Y-158457199D01*
X126551305Y-157932160D01*
X126149953Y-157530107D01*
X125625293Y-157312249D01*
X125057199Y-157311753D01*
X124532160Y-157528695D01*
X124228325Y-157832000D01*
X117106106Y-157832000D01*
X115808000Y-156533894D01*
X115808000Y-154872880D01*
X115866240Y-154848816D01*
X116150074Y-154565478D01*
X116431232Y-154847128D01*
X117058767Y-155107703D01*
X117738252Y-155108296D01*
X118366240Y-154848816D01*
X118847128Y-154368768D01*
X119092864Y-153776970D01*
X121372125Y-156056231D01*
X121371753Y-156482801D01*
X121588695Y-157007840D01*
X121990047Y-157409893D01*
X122514707Y-157627751D01*
X123082801Y-157628247D01*
X123607840Y-157411305D01*
X124009893Y-157009953D01*
X124227751Y-156485293D01*
X124228247Y-155917199D01*
X124011305Y-155392160D01*
X123609953Y-154990107D01*
X123085293Y-154772249D01*
X122655980Y-154771874D01*
X121826907Y-153942801D01*
X123911753Y-153942801D01*
X124128695Y-154467840D01*
X124530047Y-154869893D01*
X125054707Y-155087751D01*
X125622801Y-155088247D01*
X126147840Y-154871305D01*
X126549893Y-154469953D01*
X126767751Y-153945293D01*
X126768247Y-153377199D01*
X126551305Y-152852160D01*
X126149953Y-152450107D01*
X125625293Y-152232249D01*
X125057199Y-152231753D01*
X124532160Y-152448695D01*
X124130107Y-152850047D01*
X123912249Y-153374707D01*
X123911753Y-153942801D01*
X121826907Y-153942801D01*
X117952053Y-150067947D01*
X117657477Y-149871117D01*
X117310000Y-149802000D01*
X113990464Y-149802000D01*
X113875170Y-149686505D01*
X113431340Y-149502210D01*
X112950768Y-149501791D01*
X112506617Y-149685310D01*
X112166505Y-150024830D01*
X111982210Y-150468660D01*
X111981791Y-150949232D01*
X106234874Y-150949232D01*
X110276106Y-146908000D01*
X123199536Y-146908000D01*
X123314830Y-147023495D01*
X123758660Y-147207790D01*
X124239232Y-147208209D01*
X124683383Y-147024690D01*
X125023495Y-146685170D01*
X125124128Y-146442820D01*
X126757440Y-144809508D01*
X134467695Y-144809508D01*
X134625230Y-145103514D01*
X135028256Y-145502634D01*
X135553340Y-145717142D01*
X135780000Y-145565851D01*
X135780000Y-144590000D01*
X136380000Y-144590000D01*
X136380000Y-145565851D01*
X136606660Y-145717142D01*
X137131744Y-145502634D01*
X137534770Y-145103514D01*
X137600000Y-144981776D01*
X137665230Y-145103514D01*
X138068256Y-145502634D01*
X138593340Y-145717142D01*
X138820000Y-145565851D01*
X138820000Y-144590000D01*
X139420000Y-144590000D01*
X139420000Y-145565851D01*
X139646660Y-145717142D01*
X140171744Y-145502634D01*
X140574770Y-145103514D01*
X140732305Y-144809508D01*
X140615376Y-144590000D01*
X139420000Y-144590000D01*
X138820000Y-144590000D01*
X137624624Y-144590000D01*
X137600000Y-144636226D01*
X137575376Y-144590000D01*
X136380000Y-144590000D01*
X135780000Y-144590000D01*
X134584624Y-144590000D01*
X134467695Y-144809508D01*
X126757440Y-144809508D01*
X128783474Y-142783474D01*
X129023659Y-142424014D01*
X129046745Y-142307952D01*
X129108000Y-142000000D01*
X129108000Y-129900000D01*
X129065268Y-129685170D01*
X129023659Y-129475986D01*
X128783474Y-129116526D01*
X120866948Y-121200000D01*
X127000000Y-121200000D01*
X127077811Y-121184243D01*
X127143362Y-121139454D01*
X127185695Y-121074278D01*
X129185695Y-116074278D01*
X129200000Y-116000000D01*
X129200000Y-107082842D01*
X129246285Y-107036557D01*
X129658660Y-107207790D01*
X130083361Y-107208160D01*
X129976505Y-107314830D01*
X129792210Y-107758660D01*
X129791791Y-108239232D01*
X129975310Y-108683383D01*
X130314830Y-109023495D01*
X130758660Y-109207790D01*
X131239232Y-109208209D01*
X131485065Y-109106633D01*
X131276505Y-109314830D01*
X131092210Y-109758660D01*
X131091791Y-110239232D01*
X131275310Y-110683383D01*
X131614830Y-111023495D01*
X132058660Y-111207790D01*
X132539232Y-111208209D01*
X132983383Y-111024690D01*
X133323495Y-110685170D01*
X133507790Y-110241340D01*
X133507934Y-110076172D01*
X133962106Y-109622000D01*
X134672725Y-109622000D01*
X134765576Y-109760962D01*
X135123323Y-110000000D01*
X134765576Y-110239038D01*
X134449522Y-110712048D01*
X134338538Y-111270000D01*
X134449522Y-111827952D01*
X134765576Y-112300962D01*
X135123323Y-112540000D01*
X134765576Y-112779038D01*
X134449522Y-113252048D01*
X134338538Y-113810000D01*
X134449522Y-114367952D01*
X134765576Y-114840962D01*
X135123323Y-115080000D01*
X134765576Y-115319038D01*
X134449522Y-115792048D01*
X134338538Y-116350000D01*
X134449522Y-116907952D01*
X134765576Y-117380962D01*
X135123323Y-117620000D01*
X134765576Y-117859038D01*
X134449522Y-118332048D01*
X134338538Y-118890000D01*
X134449522Y-119447952D01*
X134765576Y-119920962D01*
X135123323Y-120160000D01*
X134765576Y-120399038D01*
X134449522Y-120872048D01*
X134338538Y-121430000D01*
X134449522Y-121987952D01*
X134765576Y-122460962D01*
X135123323Y-122700000D01*
X134765576Y-122939038D01*
X134663370Y-123092000D01*
X132800464Y-123092000D01*
X132685170Y-122976505D01*
X132241340Y-122792210D01*
X131760768Y-122791791D01*
X131316617Y-122975310D01*
X130976505Y-123314830D01*
X130792210Y-123758660D01*
X130791791Y-124239232D01*
X130975310Y-124683383D01*
X131314830Y-125023495D01*
X131758660Y-125207790D01*
X132239232Y-125208209D01*
X132683383Y-125024690D01*
X132800276Y-124908000D01*
X134703461Y-124908000D01*
X134765576Y-125000962D01*
X135123323Y-125240000D01*
X134765576Y-125479038D01*
X134690097Y-125592000D01*
X132800464Y-125592000D01*
X132685170Y-125476505D01*
X132241340Y-125292210D01*
X131760768Y-125291791D01*
X131316617Y-125475310D01*
X130976505Y-125814830D01*
X130792210Y-126258660D01*
X130791791Y-126739232D01*
X130975310Y-127183383D01*
X131314830Y-127523495D01*
X131758660Y-127707790D01*
X132239232Y-127708209D01*
X132683383Y-127524690D01*
X132800276Y-127408000D01*
X134676734Y-127408000D01*
X134765576Y-127540962D01*
X135123323Y-127780000D01*
X134765576Y-128019038D01*
X134716825Y-128092000D01*
X132800464Y-128092000D01*
X132685170Y-127976505D01*
X132241340Y-127792210D01*
X131760768Y-127791791D01*
X131316617Y-127975310D01*
X130976505Y-128314830D01*
X130792210Y-128758660D01*
X130791791Y-129239232D01*
X130975310Y-129683383D01*
X131314830Y-130023495D01*
X131758660Y-130207790D01*
X132239232Y-130208209D01*
X132683383Y-130024690D01*
X132800276Y-129908000D01*
X134650007Y-129908000D01*
X134765576Y-130080962D01*
X135123323Y-130320000D01*
X134765576Y-130559038D01*
X134683416Y-130682000D01*
X132780481Y-130682000D01*
X132675170Y-130576505D01*
X132231340Y-130392210D01*
X131750768Y-130391791D01*
X131306617Y-130575310D01*
X130966505Y-130914830D01*
X130782210Y-131358660D01*
X130781791Y-131839232D01*
X130965310Y-132283383D01*
X131304830Y-132623495D01*
X131748660Y-132807790D01*
X132229232Y-132808209D01*
X132673383Y-132624690D01*
X132800294Y-132498000D01*
X134683416Y-132498000D01*
X134765576Y-132620962D01*
X135123323Y-132860000D01*
X134765576Y-133099038D01*
X134449522Y-133572048D01*
X134338538Y-134130000D01*
X134449522Y-134687952D01*
X134765576Y-135160962D01*
X135123323Y-135400000D01*
X134765576Y-135639038D01*
X134449522Y-136112048D01*
X134338538Y-136670000D01*
X134449522Y-137227952D01*
X134765576Y-137700962D01*
X135123323Y-137940000D01*
X134765576Y-138179038D01*
X134449522Y-138652048D01*
X134338538Y-139210000D01*
X134449522Y-139767952D01*
X134765576Y-140240962D01*
X135123323Y-140480000D01*
X134765576Y-140719038D01*
X134449522Y-141192048D01*
X134338538Y-141750000D01*
X134449522Y-142307952D01*
X134765576Y-142780962D01*
X135140532Y-143031499D01*
X135028256Y-143077366D01*
X134625230Y-143476486D01*
X134467695Y-143770492D01*
X134584624Y-143990000D01*
X135780000Y-143990000D01*
X135780000Y-143970000D01*
X136380000Y-143970000D01*
X136380000Y-143990000D01*
X137575376Y-143990000D01*
X137600000Y-143943774D01*
X137624624Y-143990000D01*
X138820000Y-143990000D01*
X138820000Y-143970000D01*
X139420000Y-143970000D01*
X139420000Y-143990000D01*
X140615376Y-143990000D01*
X140732305Y-143770492D01*
X140574770Y-143476486D01*
X140171744Y-143077366D01*
X140059468Y-143031499D01*
X140434424Y-142780962D01*
X140750478Y-142307952D01*
X140861462Y-141750000D01*
X140750478Y-141192048D01*
X140434424Y-140719038D01*
X140076677Y-140480000D01*
X140434424Y-140240962D01*
X140750478Y-139767952D01*
X140861462Y-139210000D01*
X140750478Y-138652048D01*
X140434424Y-138179038D01*
X140076677Y-137940000D01*
X140434424Y-137700962D01*
X140750478Y-137227952D01*
X140861462Y-136670000D01*
X140750478Y-136112048D01*
X140434424Y-135639038D01*
X140076677Y-135400000D01*
X140434424Y-135160962D01*
X140750478Y-134687952D01*
X140861462Y-134130000D01*
X140750478Y-133572048D01*
X140434424Y-133099038D01*
X140076677Y-132860000D01*
X140434424Y-132620962D01*
X140750478Y-132147952D01*
X140861462Y-131590000D01*
X140750478Y-131032048D01*
X140434424Y-130559038D01*
X140076677Y-130320000D01*
X140434424Y-130080962D01*
X140549993Y-129908000D01*
X142199536Y-129908000D01*
X142314830Y-130023495D01*
X142758660Y-130207790D01*
X143239232Y-130208209D01*
X143683383Y-130024690D01*
X144023495Y-129685170D01*
X144207790Y-129241340D01*
X144208209Y-128760768D01*
X144024690Y-128316617D01*
X143685170Y-127976505D01*
X143241340Y-127792210D01*
X142760768Y-127791791D01*
X142316617Y-127975310D01*
X142199724Y-128092000D01*
X140483175Y-128092000D01*
X140434424Y-128019038D01*
X140076677Y-127780000D01*
X140434424Y-127540962D01*
X140523266Y-127408000D01*
X142199536Y-127408000D01*
X142314830Y-127523495D01*
X142758660Y-127707790D01*
X143239232Y-127708209D01*
X143683383Y-127524690D01*
X144023495Y-127185170D01*
X144207790Y-126741340D01*
X144208209Y-126260768D01*
X144024690Y-125816617D01*
X143685170Y-125476505D01*
X143241340Y-125292210D01*
X142760768Y-125291791D01*
X142316617Y-125475310D01*
X142199724Y-125592000D01*
X140509903Y-125592000D01*
X140434424Y-125479038D01*
X140076677Y-125240000D01*
X140434424Y-125000962D01*
X140750478Y-124527952D01*
X140861462Y-123970000D01*
X140750478Y-123412048D01*
X140434424Y-122939038D01*
X140076677Y-122700000D01*
X140434424Y-122460962D01*
X140750478Y-121987952D01*
X140861462Y-121430000D01*
X140750478Y-120872048D01*
X140434424Y-120399038D01*
X140076677Y-120160000D01*
X140434424Y-119920962D01*
X140750478Y-119447952D01*
X140861462Y-118890000D01*
X140750478Y-118332048D01*
X140434424Y-117859038D01*
X140076677Y-117620000D01*
X140434424Y-117380962D01*
X140750478Y-116907952D01*
X140861462Y-116350000D01*
X140750478Y-115792048D01*
X140434424Y-115319038D01*
X140076677Y-115080000D01*
X140434424Y-114840962D01*
X140750478Y-114367952D01*
X140861462Y-113810000D01*
X140750478Y-113252048D01*
X140434424Y-112779038D01*
X140076677Y-112540000D01*
X140434424Y-112300962D01*
X140750478Y-111827952D01*
X140861462Y-111270000D01*
X140750478Y-110712048D01*
X140434424Y-110239038D01*
X140076677Y-110000000D01*
X140434424Y-109760962D01*
X140750478Y-109287952D01*
X140861462Y-108730000D01*
X140750478Y-108172048D01*
X140434424Y-107699038D01*
X140076677Y-107460000D01*
X140434424Y-107220962D01*
X140750478Y-106747952D01*
X140861462Y-106190000D01*
X140750478Y-105632048D01*
X140434424Y-105159038D01*
X140076677Y-104920000D01*
X140434424Y-104680962D01*
X140750478Y-104207952D01*
X140861462Y-103650000D01*
X140750478Y-103092048D01*
X140434424Y-102619038D01*
X140076677Y-102380000D01*
X140434424Y-102140962D01*
X140527275Y-102002000D01*
X141246000Y-102002000D01*
X141593477Y-101932883D01*
X141888053Y-101736053D01*
X142932053Y-100692053D01*
X142990181Y-100605059D01*
X143128883Y-100397477D01*
X143198000Y-100050000D01*
X143198000Y-79490000D01*
X143128883Y-79142523D01*
X142932053Y-78847947D01*
X140542053Y-76457947D01*
X140247477Y-76261117D01*
X139900000Y-76192000D01*
X135100000Y-76192000D01*
X134752523Y-76261117D01*
X134457947Y-76457947D01*
X128357947Y-82557947D01*
X128161117Y-82852523D01*
X128092000Y-83200000D01*
X128092000Y-87199536D01*
X127976505Y-87314830D01*
X127792210Y-87758660D01*
X127791791Y-88239232D01*
X127975310Y-88683383D01*
X128314830Y-89023495D01*
X128758660Y-89207790D01*
X129239232Y-89208209D01*
X129683383Y-89024690D01*
X130023495Y-88685170D01*
X130207790Y-88241340D01*
X130208209Y-87760768D01*
X130024690Y-87316617D01*
X129908000Y-87199724D01*
X129908000Y-83576106D01*
X131044936Y-82439170D01*
X134372000Y-82439170D01*
X134372000Y-82853000D01*
X134549000Y-83030000D01*
X135780000Y-83030000D01*
X135780000Y-82049000D01*
X136380000Y-82049000D01*
X136380000Y-83030000D01*
X137611000Y-83030000D01*
X137619889Y-83021111D01*
X137624624Y-83030000D01*
X138820000Y-83030000D01*
X138820000Y-82054149D01*
X139420000Y-82054149D01*
X139420000Y-83030000D01*
X140615376Y-83030000D01*
X140732305Y-82810492D01*
X140574770Y-82516486D01*
X140171744Y-82117366D01*
X139646660Y-81902858D01*
X139420000Y-82054149D01*
X138820000Y-82054149D01*
X138593340Y-81902858D01*
X138068256Y-82117366D01*
X137774998Y-82407781D01*
X137680213Y-82178950D01*
X137481050Y-81979787D01*
X137220830Y-81872000D01*
X136557000Y-81872000D01*
X136380000Y-82049000D01*
X135780000Y-82049000D01*
X135603000Y-81872000D01*
X134939170Y-81872000D01*
X134678950Y-81979787D01*
X134479787Y-82178950D01*
X134372000Y-82439170D01*
X131044936Y-82439170D01*
X135476106Y-78008000D01*
X139523894Y-78008000D01*
X141382000Y-79866106D01*
X141382000Y-99673894D01*
X140869894Y-100186000D01*
X140505893Y-100186000D01*
X140434424Y-100079038D01*
X140076677Y-99840000D01*
X140434424Y-99600962D01*
X140750478Y-99127952D01*
X140861462Y-98570000D01*
X140750478Y-98012048D01*
X140434424Y-97539038D01*
X140076677Y-97300000D01*
X140434424Y-97060962D01*
X140750478Y-96587952D01*
X140861462Y-96030000D01*
X140750478Y-95472048D01*
X140434424Y-94999038D01*
X140076677Y-94760000D01*
X140434424Y-94520962D01*
X140750478Y-94047952D01*
X140861462Y-93490000D01*
X140750478Y-92932048D01*
X140434424Y-92459038D01*
X140076677Y-92220000D01*
X140434424Y-91980962D01*
X140750478Y-91507952D01*
X140861462Y-90950000D01*
X140750478Y-90392048D01*
X140434424Y-89919038D01*
X140076677Y-89680000D01*
X140434424Y-89440962D01*
X140750478Y-88967952D01*
X140861462Y-88410000D01*
X140750478Y-87852048D01*
X140434424Y-87379038D01*
X140076677Y-87140000D01*
X140434424Y-86900962D01*
X140750478Y-86427952D01*
X140861462Y-85870000D01*
X140750478Y-85312048D01*
X140434424Y-84839038D01*
X140059468Y-84588501D01*
X140171744Y-84542634D01*
X140574770Y-84143514D01*
X140732305Y-83849508D01*
X140615376Y-83630000D01*
X139420000Y-83630000D01*
X139420000Y-83650000D01*
X138820000Y-83650000D01*
X138820000Y-83630000D01*
X137624624Y-83630000D01*
X137619889Y-83638889D01*
X137611000Y-83630000D01*
X136380000Y-83630000D01*
X136380000Y-83650000D01*
X135780000Y-83650000D01*
X135780000Y-83630000D01*
X134549000Y-83630000D01*
X134372000Y-83807000D01*
X134372000Y-84220830D01*
X134479787Y-84481050D01*
X134678950Y-84680213D01*
X134879161Y-84763143D01*
X134765576Y-84839038D01*
X134449522Y-85312048D01*
X134338538Y-85870000D01*
X134449522Y-86427952D01*
X134765576Y-86900962D01*
X135123323Y-87140000D01*
X134765576Y-87379038D01*
X134449522Y-87852048D01*
X134338538Y-88410000D01*
X134449522Y-88967952D01*
X134765576Y-89440962D01*
X135123323Y-89680000D01*
X134765576Y-89919038D01*
X134449522Y-90392048D01*
X134338538Y-90950000D01*
X134449522Y-91507952D01*
X134765576Y-91980962D01*
X135123323Y-92220000D01*
X134765576Y-92459038D01*
X134449522Y-92932048D01*
X134338538Y-93490000D01*
X134449522Y-94047952D01*
X134765576Y-94520962D01*
X135123323Y-94760000D01*
X134765576Y-94999038D01*
X134703461Y-95092000D01*
X132800464Y-95092000D01*
X132685170Y-94976505D01*
X132241340Y-94792210D01*
X131760768Y-94791791D01*
X131316617Y-94975310D01*
X130976505Y-95314830D01*
X130792210Y-95758660D01*
X130791791Y-96239232D01*
X130975310Y-96683383D01*
X131314830Y-97023495D01*
X131758660Y-97207790D01*
X132239232Y-97208209D01*
X132683383Y-97024690D01*
X132800276Y-96908000D01*
X134663370Y-96908000D01*
X134765576Y-97060962D01*
X135123323Y-97300000D01*
X134765576Y-97539038D01*
X134730188Y-97592000D01*
X131100464Y-97592000D01*
X130985170Y-97476505D01*
X130541340Y-97292210D01*
X130060768Y-97291791D01*
X129616617Y-97475310D01*
X129276505Y-97814830D01*
X129092210Y-98258660D01*
X129091791Y-98739232D01*
X129275310Y-99183383D01*
X129614830Y-99523495D01*
X130058660Y-99707790D01*
X130539232Y-99708209D01*
X130983383Y-99524690D01*
X131100276Y-99408000D01*
X134636643Y-99408000D01*
X134765576Y-99600962D01*
X135123323Y-99840000D01*
X134765576Y-100079038D01*
X134756915Y-100092000D01*
X131100464Y-100092000D01*
X130985170Y-99976505D01*
X130541340Y-99792210D01*
X130060768Y-99791791D01*
X129616617Y-99975310D01*
X129276505Y-100314830D01*
X129092210Y-100758660D01*
X129091791Y-101239232D01*
X129275310Y-101683383D01*
X129614830Y-102023495D01*
X130058660Y-102207790D01*
X130539232Y-102208209D01*
X130983383Y-102024690D01*
X131100276Y-101908000D01*
X131809158Y-101908000D01*
X127858579Y-105858579D01*
X127814700Y-105924741D01*
X127800000Y-106000000D01*
X127800000Y-113961485D01*
X126398000Y-117466485D01*
X126398000Y-94531660D01*
X126497790Y-94291340D01*
X126498209Y-93810768D01*
X126397999Y-93568241D01*
X126397999Y-81678949D01*
X134076948Y-74000000D01*
X177092000Y-74000000D01*
X177092000Y-113460000D01*
X177161117Y-113807477D01*
X177357947Y-114102053D01*
X182771947Y-119516053D01*
X183066523Y-119712883D01*
X183414000Y-119782000D01*
X185472725Y-119782000D01*
X185565576Y-119920962D01*
X185923323Y-120160000D01*
X185565576Y-120399038D01*
X185249522Y-120872048D01*
X185138538Y-121430000D01*
X185249522Y-121987952D01*
X185565576Y-122460962D01*
X185923323Y-122700000D01*
X185565576Y-122939038D01*
X185249522Y-123412048D01*
X185138538Y-123970000D01*
X185249522Y-124527952D01*
X185565576Y-125000962D01*
X185923323Y-125240000D01*
X185565576Y-125479038D01*
X185249522Y-125952048D01*
X185138538Y-126510000D01*
X185249522Y-127067952D01*
X185565576Y-127540962D01*
X185923323Y-127780000D01*
X185565576Y-128019038D01*
X185249522Y-128492048D01*
X185138538Y-129050000D01*
X185249522Y-129607952D01*
X185565576Y-130080962D01*
X185923323Y-130320000D01*
X185565576Y-130559038D01*
X185249522Y-131032048D01*
X185138538Y-131590000D01*
X185249522Y-132147952D01*
X185565576Y-132620962D01*
X185923323Y-132860000D01*
X185565576Y-133099038D01*
X185249522Y-133572048D01*
X185138538Y-134130000D01*
X185249522Y-134687952D01*
X185565576Y-135160962D01*
X185923323Y-135400000D01*
X185565576Y-135639038D01*
X185494107Y-135746000D01*
X184686000Y-135746000D01*
X184338523Y-135815117D01*
X184061827Y-136000000D01*
X184043947Y-136011947D01*
X181857947Y-138197947D01*
X181661117Y-138492523D01*
X181592000Y-138840000D01*
X181592000Y-145510000D01*
X181661117Y-145857477D01*
X181857947Y-146152053D01*
X184347947Y-148642053D01*
X184642523Y-148838883D01*
X184990000Y-148908000D01*
X194500000Y-148908000D01*
X194847477Y-148838883D01*
X195142053Y-148642053D01*
X195892855Y-147891251D01*
X212761936Y-147891251D01*
X212852623Y-148564657D01*
X212935855Y-148765597D01*
X213202156Y-148873579D01*
X214075736Y-147999999D01*
X214924264Y-147999999D01*
X215797844Y-148873579D01*
X216064145Y-148765597D01*
X216238064Y-148108747D01*
X216147377Y-147435341D01*
X216064145Y-147234401D01*
X215797844Y-147126419D01*
X214924264Y-147999999D01*
X214075736Y-147999999D01*
X213202156Y-147126419D01*
X212935855Y-147234401D01*
X212761936Y-147891251D01*
X195892855Y-147891251D01*
X197642053Y-146142053D01*
X197838883Y-145847477D01*
X197908000Y-145500000D01*
X197908000Y-135249232D01*
X198271791Y-135249232D01*
X198455310Y-135693383D01*
X198794830Y-136033495D01*
X199238660Y-136217790D01*
X199403828Y-136217934D01*
X204327946Y-141142052D01*
X204622522Y-141338882D01*
X204969999Y-141407999D01*
X213027120Y-141407999D01*
X213051184Y-141466239D01*
X213334522Y-141750073D01*
X213052872Y-142031231D01*
X212792297Y-142658766D01*
X212791704Y-143338251D01*
X213051184Y-143966239D01*
X213334522Y-144250073D01*
X213052872Y-144531231D01*
X212792297Y-145158766D01*
X212791704Y-145838251D01*
X213051184Y-146466239D01*
X213531232Y-146947127D01*
X214112937Y-147188672D01*
X214500000Y-147575735D01*
X214887992Y-147187743D01*
X215466240Y-146948815D01*
X215947128Y-146468767D01*
X216207703Y-145841232D01*
X216208296Y-145161747D01*
X215948816Y-144533759D01*
X215665478Y-144249925D01*
X215947128Y-143968767D01*
X216207703Y-143341232D01*
X216208296Y-142661747D01*
X215948816Y-142033759D01*
X215665478Y-141749925D01*
X215947128Y-141468767D01*
X216207703Y-140841232D01*
X216208124Y-140358823D01*
X216283473Y-140283474D01*
X219783474Y-136783475D01*
X220023659Y-136424014D01*
X220049977Y-136291704D01*
X220108000Y-136000000D01*
X220108000Y-36500000D01*
X220023659Y-36075987D01*
X220023659Y-36075986D01*
X219783474Y-35716526D01*
X217783474Y-33716526D01*
X217424014Y-33476341D01*
X217000000Y-33392000D01*
X215807304Y-33392000D01*
X215468768Y-33052872D01*
X214841233Y-32792297D01*
X214161748Y-32791704D01*
X213533760Y-33051184D01*
X213192348Y-33392000D01*
X208100000Y-33392000D01*
X208099566Y-33392086D01*
X207760768Y-33391791D01*
X207316617Y-33575310D01*
X206976505Y-33914830D01*
X206792210Y-34358660D01*
X206791791Y-34839232D01*
X206975310Y-35283383D01*
X207314830Y-35623495D01*
X207758660Y-35807790D01*
X208239232Y-35808209D01*
X208683383Y-35624690D01*
X208700102Y-35608000D01*
X213192696Y-35608000D01*
X213334522Y-35750074D01*
X213052872Y-36031232D01*
X212792297Y-36658767D01*
X212791704Y-37338252D01*
X213051184Y-37966240D01*
X213334522Y-38250074D01*
X213052872Y-38531232D01*
X212792297Y-39158767D01*
X212791704Y-39838252D01*
X213051184Y-40466240D01*
X213531232Y-40947128D01*
X214112937Y-41188673D01*
X214500000Y-41575736D01*
X214887992Y-41187744D01*
X215466240Y-40948816D01*
X215947128Y-40468768D01*
X216207703Y-39841233D01*
X216208296Y-39161748D01*
X215948816Y-38533760D01*
X215665478Y-38249926D01*
X215947128Y-37968768D01*
X216207703Y-37341233D01*
X216208296Y-36661748D01*
X215948816Y-36033760D01*
X215665478Y-35749926D01*
X215807652Y-35608000D01*
X216541052Y-35608000D01*
X217892000Y-36958948D01*
X217892000Y-48534857D01*
X215807304Y-48534857D01*
X215468768Y-48195729D01*
X214841233Y-47935154D01*
X214161748Y-47934561D01*
X213533760Y-48194041D01*
X213052872Y-48674089D01*
X212792297Y-49301624D01*
X212791704Y-49981109D01*
X213051184Y-50609097D01*
X213334522Y-50892931D01*
X213052872Y-51174089D01*
X212792297Y-51801624D01*
X212791704Y-52481109D01*
X213051184Y-53109097D01*
X213334522Y-53392931D01*
X213052872Y-53674089D01*
X212792297Y-54301624D01*
X212791704Y-54981109D01*
X213051184Y-55609097D01*
X213531232Y-56089985D01*
X214112937Y-56331530D01*
X214500000Y-56718593D01*
X214887992Y-56330601D01*
X215466240Y-56091673D01*
X215947128Y-55611625D01*
X216207703Y-54984090D01*
X216208296Y-54304605D01*
X215948816Y-53676617D01*
X215665478Y-53392783D01*
X215947128Y-53111625D01*
X216207703Y-52484090D01*
X216208296Y-51804605D01*
X215948816Y-51176617D01*
X215665478Y-50892783D01*
X215807652Y-50750857D01*
X217892000Y-50750857D01*
X217892000Y-63677714D01*
X215807304Y-63677714D01*
X215468768Y-63338586D01*
X214841233Y-63078011D01*
X214161748Y-63077418D01*
X213533760Y-63336898D01*
X213052872Y-63816946D01*
X212792297Y-64444481D01*
X212791704Y-65123966D01*
X213051184Y-65751954D01*
X213334522Y-66035788D01*
X213052872Y-66316946D01*
X212792297Y-66944481D01*
X212791704Y-67623966D01*
X213051184Y-68251954D01*
X213334522Y-68535788D01*
X213052872Y-68816946D01*
X212792297Y-69444481D01*
X212791704Y-70123966D01*
X213051184Y-70751954D01*
X213531232Y-71232842D01*
X214112937Y-71474387D01*
X214500000Y-71861450D01*
X214887992Y-71473458D01*
X215466240Y-71234530D01*
X215947128Y-70754482D01*
X216207703Y-70126947D01*
X216208296Y-69447462D01*
X215948816Y-68819474D01*
X215665478Y-68535640D01*
X215947128Y-68254482D01*
X216207703Y-67626947D01*
X216208296Y-66947462D01*
X215948816Y-66319474D01*
X215665478Y-66035640D01*
X215807652Y-65893714D01*
X217892000Y-65893714D01*
X217892000Y-78820571D01*
X215807304Y-78820571D01*
X215468768Y-78481443D01*
X214841233Y-78220868D01*
X214161748Y-78220275D01*
X213533760Y-78479755D01*
X213052872Y-78959803D01*
X212792297Y-79587338D01*
X212791704Y-80266823D01*
X213051184Y-80894811D01*
X213334522Y-81178645D01*
X213052872Y-81459803D01*
X212792297Y-82087338D01*
X212791704Y-82766823D01*
X213051184Y-83394811D01*
X213334522Y-83678645D01*
X213052872Y-83959803D01*
X212792297Y-84587338D01*
X212791704Y-85266823D01*
X213051184Y-85894811D01*
X213531232Y-86375699D01*
X214112937Y-86617244D01*
X214500000Y-87004307D01*
X214887992Y-86616315D01*
X215466240Y-86377387D01*
X215947128Y-85897339D01*
X216207703Y-85269804D01*
X216208296Y-84590319D01*
X215948816Y-83962331D01*
X215665478Y-83678497D01*
X215947128Y-83397339D01*
X216207703Y-82769804D01*
X216208296Y-82090319D01*
X215948816Y-81462331D01*
X215665478Y-81178497D01*
X215807652Y-81036571D01*
X217892000Y-81036571D01*
X217892000Y-93963428D01*
X215807304Y-93963428D01*
X215468768Y-93624300D01*
X214841233Y-93363725D01*
X214161748Y-93363132D01*
X213533760Y-93622612D01*
X213052872Y-94102660D01*
X212792297Y-94730195D01*
X212791704Y-95409680D01*
X213051184Y-96037668D01*
X213334522Y-96321502D01*
X213052872Y-96602660D01*
X212792297Y-97230195D01*
X212791704Y-97909680D01*
X213051184Y-98537668D01*
X213334522Y-98821502D01*
X213052872Y-99102660D01*
X212792297Y-99730195D01*
X212791704Y-100409680D01*
X213051184Y-101037668D01*
X213531232Y-101518556D01*
X214112937Y-101760101D01*
X214500000Y-102147164D01*
X214887992Y-101759172D01*
X215466240Y-101520244D01*
X215947128Y-101040196D01*
X216207703Y-100412661D01*
X216208296Y-99733176D01*
X215948816Y-99105188D01*
X215665478Y-98821354D01*
X215947128Y-98540196D01*
X216207703Y-97912661D01*
X216208296Y-97233176D01*
X215948816Y-96605188D01*
X215665478Y-96321354D01*
X215807652Y-96179428D01*
X217892000Y-96179428D01*
X217892000Y-109106285D01*
X215807304Y-109106285D01*
X215468768Y-108767157D01*
X214841233Y-108506582D01*
X214161748Y-108505989D01*
X213533760Y-108765469D01*
X213052872Y-109245517D01*
X212792297Y-109873052D01*
X212791704Y-110552537D01*
X213051184Y-111180525D01*
X213334522Y-111464359D01*
X213052872Y-111745517D01*
X212792297Y-112373052D01*
X212791704Y-113052537D01*
X213051184Y-113680525D01*
X213334522Y-113964359D01*
X213052872Y-114245517D01*
X212792297Y-114873052D01*
X212791704Y-115552537D01*
X213051184Y-116180525D01*
X213531232Y-116661413D01*
X214112937Y-116902958D01*
X214500000Y-117290021D01*
X214887992Y-116902029D01*
X215466240Y-116663101D01*
X215947128Y-116183053D01*
X216207703Y-115555518D01*
X216208296Y-114876033D01*
X215948816Y-114248045D01*
X215665478Y-113964211D01*
X215947128Y-113683053D01*
X216207703Y-113055518D01*
X216208296Y-112376033D01*
X215948816Y-111748045D01*
X215665478Y-111464211D01*
X215807652Y-111322285D01*
X217892000Y-111322285D01*
X217892000Y-124249142D01*
X215807304Y-124249142D01*
X215468768Y-123910014D01*
X214841233Y-123649439D01*
X214161748Y-123648846D01*
X213533760Y-123908326D01*
X213052872Y-124388374D01*
X212792297Y-125015909D01*
X212791704Y-125695394D01*
X213051184Y-126323382D01*
X213334522Y-126607216D01*
X213052872Y-126888374D01*
X212792297Y-127515909D01*
X212791704Y-128195394D01*
X213051184Y-128823382D01*
X213334522Y-129107216D01*
X213052872Y-129388374D01*
X212792297Y-130015909D01*
X212791704Y-130695394D01*
X213051184Y-131323382D01*
X213531232Y-131804270D01*
X214112937Y-132045815D01*
X214500000Y-132432878D01*
X214887992Y-132044886D01*
X215466240Y-131805958D01*
X215947128Y-131325910D01*
X216207703Y-130698375D01*
X216208296Y-130018890D01*
X215948816Y-129390902D01*
X215665478Y-129107068D01*
X215947128Y-128825910D01*
X216207703Y-128198375D01*
X216208296Y-127518890D01*
X215948816Y-126890902D01*
X215665478Y-126607068D01*
X215807652Y-126465142D01*
X217892000Y-126465142D01*
X217892000Y-135541052D01*
X214716525Y-138716526D01*
X214640930Y-138792121D01*
X214161748Y-138791703D01*
X213533760Y-139051183D01*
X213052872Y-139531231D01*
X213027639Y-139591999D01*
X205346105Y-139591999D01*
X200688067Y-134933961D01*
X200688209Y-134770768D01*
X200504690Y-134326617D01*
X200333358Y-134154986D01*
X213626420Y-134154986D01*
X213734402Y-134421287D01*
X214391252Y-134595206D01*
X215064658Y-134504519D01*
X215265598Y-134421287D01*
X215373580Y-134154986D01*
X214500000Y-133281406D01*
X213626420Y-134154986D01*
X200333358Y-134154986D01*
X200165170Y-133986505D01*
X199721340Y-133802210D01*
X199240768Y-133801791D01*
X198796617Y-133985310D01*
X198456505Y-134324830D01*
X198272210Y-134768660D01*
X198271791Y-135249232D01*
X197908000Y-135249232D01*
X197908000Y-132748394D01*
X212761936Y-132748394D01*
X212852623Y-133421800D01*
X212935855Y-133622740D01*
X213202156Y-133730722D01*
X214075736Y-132857142D01*
X214924264Y-132857142D01*
X215797844Y-133730722D01*
X216064145Y-133622740D01*
X216238064Y-132965890D01*
X216147377Y-132292484D01*
X216064145Y-132091544D01*
X215797844Y-131983562D01*
X214924264Y-132857142D01*
X214075736Y-132857142D01*
X213202156Y-131983562D01*
X212935855Y-132091544D01*
X212761936Y-132748394D01*
X197908000Y-132748394D01*
X197908000Y-127170000D01*
X197838883Y-126822523D01*
X197642053Y-126527947D01*
X196208067Y-125093961D01*
X196208209Y-124930768D01*
X196024690Y-124486617D01*
X195685170Y-124146505D01*
X195241340Y-123962210D01*
X194760768Y-123961791D01*
X194316617Y-124145310D01*
X193976505Y-124484830D01*
X193792210Y-124928660D01*
X193791791Y-125409232D01*
X193975310Y-125853383D01*
X194314830Y-126193495D01*
X194758660Y-126377790D01*
X194923828Y-126377934D01*
X196092000Y-127546106D01*
X196092000Y-145123894D01*
X194123894Y-147092000D01*
X185366106Y-147092000D01*
X183408000Y-145133894D01*
X183408000Y-144809508D01*
X185267695Y-144809508D01*
X185425230Y-145103514D01*
X185828256Y-145502634D01*
X186353340Y-145717142D01*
X186580000Y-145565851D01*
X186580000Y-144590000D01*
X187180000Y-144590000D01*
X187180000Y-145565851D01*
X187406660Y-145717142D01*
X187931744Y-145502634D01*
X188334770Y-145103514D01*
X188400000Y-144981776D01*
X188465230Y-145103514D01*
X188868256Y-145502634D01*
X189393340Y-145717142D01*
X189620000Y-145565851D01*
X189620000Y-144590000D01*
X190220000Y-144590000D01*
X190220000Y-145565851D01*
X190446660Y-145717142D01*
X190971744Y-145502634D01*
X191374770Y-145103514D01*
X191532305Y-144809508D01*
X191415376Y-144590000D01*
X190220000Y-144590000D01*
X189620000Y-144590000D01*
X188424624Y-144590000D01*
X188400000Y-144636226D01*
X188375376Y-144590000D01*
X187180000Y-144590000D01*
X186580000Y-144590000D01*
X185384624Y-144590000D01*
X185267695Y-144809508D01*
X183408000Y-144809508D01*
X183408000Y-139216106D01*
X185062106Y-137562000D01*
X185472725Y-137562000D01*
X185565576Y-137700962D01*
X185923323Y-137940000D01*
X185565576Y-138179038D01*
X185249522Y-138652048D01*
X185138538Y-139210000D01*
X185249522Y-139767952D01*
X185565576Y-140240962D01*
X185923323Y-140480000D01*
X185565576Y-140719038D01*
X185249522Y-141192048D01*
X185138538Y-141750000D01*
X185249522Y-142307952D01*
X185565576Y-142780962D01*
X185940532Y-143031499D01*
X185828256Y-143077366D01*
X185425230Y-143476486D01*
X185267695Y-143770492D01*
X185384624Y-143990000D01*
X186580000Y-143990000D01*
X186580000Y-143970000D01*
X187180000Y-143970000D01*
X187180000Y-143990000D01*
X188375376Y-143990000D01*
X188400000Y-143943774D01*
X188424624Y-143990000D01*
X189620000Y-143990000D01*
X189620000Y-143970000D01*
X190220000Y-143970000D01*
X190220000Y-143990000D01*
X191415376Y-143990000D01*
X191532305Y-143770492D01*
X191374770Y-143476486D01*
X190971744Y-143077366D01*
X190859468Y-143031499D01*
X191234424Y-142780962D01*
X191550478Y-142307952D01*
X191661462Y-141750000D01*
X191550478Y-141192048D01*
X191234424Y-140719038D01*
X190876677Y-140480000D01*
X191234424Y-140240962D01*
X191327275Y-140102000D01*
X192093529Y-140102000D01*
X192204830Y-140213495D01*
X192648660Y-140397790D01*
X193129232Y-140398209D01*
X193573383Y-140214690D01*
X193913495Y-139875170D01*
X194097790Y-139431340D01*
X194098209Y-138950768D01*
X193914690Y-138506617D01*
X193575170Y-138166505D01*
X193131340Y-137982210D01*
X192650768Y-137981791D01*
X192206617Y-138165310D01*
X192085717Y-138286000D01*
X191305893Y-138286000D01*
X191234424Y-138179038D01*
X190876677Y-137940000D01*
X191234424Y-137700962D01*
X191550478Y-137227952D01*
X191661462Y-136670000D01*
X191550478Y-136112048D01*
X191234424Y-135639038D01*
X190876677Y-135400000D01*
X191234424Y-135160962D01*
X191550478Y-134687952D01*
X191661462Y-134130000D01*
X191550478Y-133572048D01*
X191234424Y-133099038D01*
X190876677Y-132860000D01*
X191234424Y-132620962D01*
X191550478Y-132147952D01*
X191661462Y-131590000D01*
X191550478Y-131032048D01*
X191234424Y-130559038D01*
X190876677Y-130320000D01*
X191234424Y-130080962D01*
X191550478Y-129607952D01*
X191661462Y-129050000D01*
X191550478Y-128492048D01*
X191234424Y-128019038D01*
X190876677Y-127780000D01*
X191234424Y-127540962D01*
X191550478Y-127067952D01*
X191661462Y-126510000D01*
X191550478Y-125952048D01*
X191234424Y-125479038D01*
X190876677Y-125240000D01*
X191234424Y-125000962D01*
X191550478Y-124527952D01*
X191661462Y-123970000D01*
X191550478Y-123412048D01*
X191234424Y-122939038D01*
X190876677Y-122700000D01*
X191234424Y-122460962D01*
X191550478Y-121987952D01*
X191661462Y-121430000D01*
X191550478Y-120872048D01*
X191234424Y-120399038D01*
X190876677Y-120160000D01*
X191234424Y-119920962D01*
X191327275Y-119782000D01*
X196026000Y-119782000D01*
X196373477Y-119712883D01*
X196668053Y-119516053D01*
X197171977Y-119012129D01*
X213626420Y-119012129D01*
X213734402Y-119278430D01*
X214391252Y-119452349D01*
X215064658Y-119361662D01*
X215265598Y-119278430D01*
X215373580Y-119012129D01*
X214500000Y-118138549D01*
X213626420Y-119012129D01*
X197171977Y-119012129D01*
X198578569Y-117605537D01*
X212761936Y-117605537D01*
X212852623Y-118278943D01*
X212935855Y-118479883D01*
X213202156Y-118587865D01*
X214075736Y-117714285D01*
X214924264Y-117714285D01*
X215797844Y-118587865D01*
X216064145Y-118479883D01*
X216238064Y-117823033D01*
X216147377Y-117149627D01*
X216064145Y-116948687D01*
X215797844Y-116840705D01*
X214924264Y-117714285D01*
X214075736Y-117714285D01*
X213202156Y-116840705D01*
X212935855Y-116948687D01*
X212761936Y-117605537D01*
X198578569Y-117605537D01*
X206642053Y-109542053D01*
X206838883Y-109247477D01*
X206908000Y-108900000D01*
X206908000Y-103869272D01*
X213626420Y-103869272D01*
X213734402Y-104135573D01*
X214391252Y-104309492D01*
X215064658Y-104218805D01*
X215265598Y-104135573D01*
X215373580Y-103869272D01*
X214500000Y-102995692D01*
X213626420Y-103869272D01*
X206908000Y-103869272D01*
X206908000Y-102462680D01*
X212761936Y-102462680D01*
X212852623Y-103136086D01*
X212935855Y-103337026D01*
X213202156Y-103445008D01*
X214075736Y-102571428D01*
X214924264Y-102571428D01*
X215797844Y-103445008D01*
X216064145Y-103337026D01*
X216238064Y-102680176D01*
X216147377Y-102006770D01*
X216064145Y-101805830D01*
X215797844Y-101697848D01*
X214924264Y-102571428D01*
X214075736Y-102571428D01*
X213202156Y-101697848D01*
X212935855Y-101805830D01*
X212761936Y-102462680D01*
X206908000Y-102462680D01*
X206908000Y-88726415D01*
X213626420Y-88726415D01*
X213734402Y-88992716D01*
X214391252Y-89166635D01*
X215064658Y-89075948D01*
X215265598Y-88992716D01*
X215373580Y-88726415D01*
X214500000Y-87852835D01*
X213626420Y-88726415D01*
X206908000Y-88726415D01*
X206908000Y-87319823D01*
X212761936Y-87319823D01*
X212852623Y-87993229D01*
X212935855Y-88194169D01*
X213202156Y-88302151D01*
X214075736Y-87428571D01*
X214924264Y-87428571D01*
X215797844Y-88302151D01*
X216064145Y-88194169D01*
X216238064Y-87537319D01*
X216147377Y-86863913D01*
X216064145Y-86662973D01*
X215797844Y-86554991D01*
X214924264Y-87428571D01*
X214075736Y-87428571D01*
X213202156Y-86554991D01*
X212935855Y-86662973D01*
X212761936Y-87319823D01*
X206908000Y-87319823D01*
X206908000Y-73583558D01*
X213626420Y-73583558D01*
X213734402Y-73849859D01*
X214391252Y-74023778D01*
X215064658Y-73933091D01*
X215265598Y-73849859D01*
X215373580Y-73583558D01*
X214500000Y-72709978D01*
X213626420Y-73583558D01*
X206908000Y-73583558D01*
X206908000Y-72176966D01*
X212761936Y-72176966D01*
X212852623Y-72850372D01*
X212935855Y-73051312D01*
X213202156Y-73159294D01*
X214075736Y-72285714D01*
X214924264Y-72285714D01*
X215797844Y-73159294D01*
X216064145Y-73051312D01*
X216238064Y-72394462D01*
X216147377Y-71721056D01*
X216064145Y-71520116D01*
X215797844Y-71412134D01*
X214924264Y-72285714D01*
X214075736Y-72285714D01*
X213202156Y-71412134D01*
X212935855Y-71520116D01*
X212761936Y-72176966D01*
X206908000Y-72176966D01*
X206908000Y-58440701D01*
X213626420Y-58440701D01*
X213734402Y-58707002D01*
X214391252Y-58880921D01*
X215064658Y-58790234D01*
X215265598Y-58707002D01*
X215373580Y-58440701D01*
X214500000Y-57567121D01*
X213626420Y-58440701D01*
X206908000Y-58440701D01*
X206908000Y-58000000D01*
X206838883Y-57652523D01*
X206642053Y-57357947D01*
X206318215Y-57034109D01*
X212761936Y-57034109D01*
X212852623Y-57707515D01*
X212935855Y-57908455D01*
X213202156Y-58016437D01*
X214075736Y-57142857D01*
X214924264Y-57142857D01*
X215797844Y-58016437D01*
X216064145Y-57908455D01*
X216238064Y-57251605D01*
X216147377Y-56578199D01*
X216064145Y-56377259D01*
X215797844Y-56269277D01*
X214924264Y-57142857D01*
X214075736Y-57142857D01*
X213202156Y-56269277D01*
X212935855Y-56377259D01*
X212761936Y-57034109D01*
X206318215Y-57034109D01*
X204592053Y-55307947D01*
X204297477Y-55111117D01*
X203950000Y-55042000D01*
X202762880Y-55042000D01*
X202738816Y-54983760D01*
X202455478Y-54699926D01*
X202737128Y-54418768D01*
X202997703Y-53791233D01*
X202998296Y-53111748D01*
X202738816Y-52483760D01*
X202258768Y-52002872D01*
X201677063Y-51761327D01*
X201290000Y-51374264D01*
X200902008Y-51762256D01*
X200323760Y-52001184D01*
X199842872Y-52481232D01*
X199817639Y-52542000D01*
X198550000Y-52542000D01*
X198202523Y-52611117D01*
X197981710Y-52758660D01*
X197907947Y-52807947D01*
X177357947Y-73357947D01*
X177161117Y-73652523D01*
X177092000Y-74000000D01*
X134076948Y-74000000D01*
X145208949Y-62868000D01*
X153940000Y-62868000D01*
X154364014Y-62783659D01*
X154723474Y-62543474D01*
X161357440Y-55909508D01*
X187957695Y-55909508D01*
X188165691Y-56290457D01*
X188598148Y-56663649D01*
X189140500Y-56842939D01*
X189370000Y-56676131D01*
X189370000Y-55690000D01*
X189970000Y-55690000D01*
X189970000Y-56676131D01*
X190199500Y-56842939D01*
X190741852Y-56663649D01*
X191174309Y-56290457D01*
X191382305Y-55909508D01*
X191265376Y-55690000D01*
X189970000Y-55690000D01*
X189370000Y-55690000D01*
X188074624Y-55690000D01*
X187957695Y-55909508D01*
X161357440Y-55909508D01*
X163939948Y-53327000D01*
X187862000Y-53327000D01*
X187862000Y-53740830D01*
X187969787Y-54001050D01*
X188168950Y-54200213D01*
X188393287Y-54293137D01*
X188165691Y-54489543D01*
X187957695Y-54870492D01*
X188074624Y-55090000D01*
X189370000Y-55090000D01*
X189370000Y-53150000D01*
X189970000Y-53150000D01*
X189970000Y-55090000D01*
X191265376Y-55090000D01*
X191382305Y-54870492D01*
X191174309Y-54489543D01*
X190946713Y-54293137D01*
X191171050Y-54200213D01*
X191370213Y-54001050D01*
X191478000Y-53740830D01*
X191478000Y-53327000D01*
X191301000Y-53150000D01*
X189970000Y-53150000D01*
X189370000Y-53150000D01*
X188039000Y-53150000D01*
X187862000Y-53327000D01*
X163939948Y-53327000D01*
X165307778Y-51959170D01*
X187862000Y-51959170D01*
X187862000Y-52373000D01*
X188039000Y-52550000D01*
X189370000Y-52550000D01*
X189370000Y-51569000D01*
X189970000Y-51569000D01*
X189970000Y-52550000D01*
X191301000Y-52550000D01*
X191478000Y-52373000D01*
X191478000Y-51959170D01*
X191370213Y-51698950D01*
X191171050Y-51499787D01*
X190910830Y-51392000D01*
X190147000Y-51392000D01*
X189970000Y-51569000D01*
X189370000Y-51569000D01*
X189193000Y-51392000D01*
X188429170Y-51392000D01*
X188168950Y-51499787D01*
X187969787Y-51698950D01*
X187862000Y-51959170D01*
X165307778Y-51959170D01*
X166425696Y-50841252D01*
X199551936Y-50841252D01*
X199642623Y-51514658D01*
X199725855Y-51715598D01*
X199992156Y-51823580D01*
X200865736Y-50950000D01*
X201714264Y-50950000D01*
X202587844Y-51823580D01*
X202854145Y-51715598D01*
X203028064Y-51058748D01*
X202937377Y-50385342D01*
X202854145Y-50184402D01*
X202587844Y-50076420D01*
X201714264Y-50950000D01*
X200865736Y-50950000D01*
X199992156Y-50076420D01*
X199725855Y-50184402D01*
X199551936Y-50841252D01*
X166425696Y-50841252D01*
X167073474Y-50193475D01*
X167313658Y-49834014D01*
X167313659Y-49834013D01*
X167349832Y-49652156D01*
X200416420Y-49652156D01*
X201290000Y-50525736D01*
X202163580Y-49652156D01*
X202055598Y-49385855D01*
X201398748Y-49211936D01*
X200725342Y-49302623D01*
X200524402Y-49385855D01*
X200416420Y-49652156D01*
X167349832Y-49652156D01*
X167398000Y-49410000D01*
X167398000Y-44531660D01*
X167497790Y-44291340D01*
X167498209Y-43810768D01*
X167314690Y-43366617D01*
X166975170Y-43026505D01*
X166531340Y-42842210D01*
X166050768Y-42841791D01*
X165606617Y-43025310D01*
X165266505Y-43364830D01*
X165082210Y-43808660D01*
X165081791Y-44289232D01*
X165182000Y-44531757D01*
X165182000Y-48951051D01*
X153481052Y-60652000D01*
X144750000Y-60652000D01*
X144325987Y-60736341D01*
X144206710Y-60816040D01*
X143966525Y-60976526D01*
X124506525Y-80436527D01*
X124266340Y-80795987D01*
X124266340Y-80795988D01*
X124181999Y-81220001D01*
X124181999Y-93568342D01*
X124082210Y-93808660D01*
X124081791Y-94289232D01*
X124182000Y-94531757D01*
X124182000Y-118568340D01*
X124085806Y-118800000D01*
X120108000Y-118800000D01*
X120108000Y-62481660D01*
X120207790Y-62241340D01*
X120208209Y-61760768D01*
X120108000Y-61518243D01*
X120108000Y-55909508D01*
X134617695Y-55909508D01*
X134825691Y-56290457D01*
X135258148Y-56663649D01*
X135800500Y-56842939D01*
X136030000Y-56676131D01*
X136030000Y-55690000D01*
X136630000Y-55690000D01*
X136630000Y-56676131D01*
X136859500Y-56842939D01*
X137401852Y-56663649D01*
X137834309Y-56290457D01*
X138042305Y-55909508D01*
X137925376Y-55690000D01*
X136630000Y-55690000D01*
X136030000Y-55690000D01*
X134734624Y-55690000D01*
X134617695Y-55909508D01*
X120108000Y-55909508D01*
X120108000Y-53481660D01*
X120172220Y-53327000D01*
X134522000Y-53327000D01*
X134522000Y-53740830D01*
X134629787Y-54001050D01*
X134828950Y-54200213D01*
X135053287Y-54293137D01*
X134825691Y-54489543D01*
X134617695Y-54870492D01*
X134734624Y-55090000D01*
X136030000Y-55090000D01*
X136030000Y-53150000D01*
X136630000Y-53150000D01*
X136630000Y-55090000D01*
X137925376Y-55090000D01*
X138042305Y-54870492D01*
X137834309Y-54489543D01*
X137606713Y-54293137D01*
X137831050Y-54200213D01*
X138030213Y-54001050D01*
X138138000Y-53740830D01*
X138138000Y-53327000D01*
X137961000Y-53150000D01*
X136630000Y-53150000D01*
X136030000Y-53150000D01*
X134699000Y-53150000D01*
X134522000Y-53327000D01*
X120172220Y-53327000D01*
X120207790Y-53241340D01*
X120208209Y-52760768D01*
X120024690Y-52316617D01*
X119685170Y-51976505D01*
X119643423Y-51959170D01*
X134522000Y-51959170D01*
X134522000Y-52373000D01*
X134699000Y-52550000D01*
X136030000Y-52550000D01*
X136030000Y-51569000D01*
X136630000Y-51569000D01*
X136630000Y-52550000D01*
X137961000Y-52550000D01*
X138138000Y-52373000D01*
X138138000Y-51959170D01*
X138030213Y-51698950D01*
X137831050Y-51499787D01*
X137570830Y-51392000D01*
X136807000Y-51392000D01*
X136630000Y-51569000D01*
X136030000Y-51569000D01*
X135853000Y-51392000D01*
X135089170Y-51392000D01*
X134828950Y-51499787D01*
X134629787Y-51698950D01*
X134522000Y-51959170D01*
X119643423Y-51959170D01*
X119241340Y-51792210D01*
X118760768Y-51791791D01*
X118316617Y-51975310D01*
X117976505Y-52314830D01*
X117792210Y-52758660D01*
X117791791Y-53239232D01*
X117892000Y-53481757D01*
X117892000Y-61518340D01*
X117792210Y-61758660D01*
X117791791Y-62239232D01*
X117892000Y-62481757D01*
X117892000Y-118800000D01*
X106200000Y-118800000D01*
X106200000Y-100770971D01*
X106339121Y-101107669D01*
X106889434Y-101658943D01*
X107608821Y-101957659D01*
X108387761Y-101958339D01*
X109107669Y-101660879D01*
X109658943Y-101110566D01*
X109957659Y-100391179D01*
X109958339Y-99612239D01*
X109660879Y-98892331D01*
X109110566Y-98341057D01*
X108391179Y-98042341D01*
X107612239Y-98041661D01*
X106892331Y-98339121D01*
X106341057Y-98889434D01*
X106200000Y-99229137D01*
X106200000Y-71770971D01*
X106339121Y-72107669D01*
X106889434Y-72658943D01*
X107608821Y-72957659D01*
X108387761Y-72958339D01*
X109107669Y-72660879D01*
X109658943Y-72110566D01*
X109957659Y-71391179D01*
X109958339Y-70612239D01*
X109660879Y-69892331D01*
X109110566Y-69341057D01*
X108391179Y-69042341D01*
X107612239Y-69041661D01*
X106892331Y-69339121D01*
X106341057Y-69889434D01*
X106200000Y-70229137D01*
X106200000Y-49789232D01*
X109081791Y-49789232D01*
X109265310Y-50233383D01*
X109604830Y-50573495D01*
X110048660Y-50757790D01*
X110529232Y-50758209D01*
X110771757Y-50658000D01*
X143258954Y-50658000D01*
X143265310Y-50673383D01*
X143604830Y-51013495D01*
X144048660Y-51197790D01*
X144529232Y-51198209D01*
X144973383Y-51014690D01*
X145313495Y-50675170D01*
X145497790Y-50231340D01*
X145498209Y-49750768D01*
X145314690Y-49306617D01*
X144975170Y-48966505D01*
X144732820Y-48865872D01*
X144633474Y-48766526D01*
X144274014Y-48526341D01*
X143850000Y-48442000D01*
X110771660Y-48442000D01*
X110531340Y-48342210D01*
X110050768Y-48341791D01*
X109606617Y-48525310D01*
X109266505Y-48864830D01*
X109082210Y-49308660D01*
X109081791Y-49789232D01*
X106200000Y-49789232D01*
X106200000Y-36050000D01*
X115182000Y-36050000D01*
X115182000Y-43790000D01*
X115266341Y-44214014D01*
X115506526Y-44573474D01*
X116875940Y-45942888D01*
X116975310Y-46183383D01*
X117314830Y-46523495D01*
X117758660Y-46707790D01*
X118239232Y-46708209D01*
X118683383Y-46524690D01*
X119023495Y-46185170D01*
X119207790Y-45741340D01*
X119208209Y-45260768D01*
X119024690Y-44816617D01*
X118685170Y-44476505D01*
X118442820Y-44375872D01*
X117398000Y-43331052D01*
X117398000Y-36508948D01*
X123598948Y-30308000D01*
X159841052Y-30308000D01*
X176366526Y-46833475D01*
X176725987Y-47073659D01*
X177150000Y-47158000D01*
X191808340Y-47158000D01*
X192048660Y-47257790D01*
X192529232Y-47258209D01*
X192973383Y-47074690D01*
X193313495Y-46735170D01*
X193497790Y-46291340D01*
X193498209Y-45810768D01*
X193314690Y-45366617D01*
X192975170Y-45026505D01*
X192531340Y-44842210D01*
X192050768Y-44841791D01*
X191808243Y-44942000D01*
X177608949Y-44942000D01*
X175964793Y-43297844D01*
X213626420Y-43297844D01*
X213734402Y-43564145D01*
X214391252Y-43738064D01*
X215064658Y-43647377D01*
X215265598Y-43564145D01*
X215373580Y-43297844D01*
X214500000Y-42424264D01*
X213626420Y-43297844D01*
X175964793Y-43297844D01*
X174558201Y-41891252D01*
X212761936Y-41891252D01*
X212852623Y-42564658D01*
X212935855Y-42765598D01*
X213202156Y-42873580D01*
X214075736Y-42000000D01*
X214924264Y-42000000D01*
X215797844Y-42873580D01*
X216064145Y-42765598D01*
X216238064Y-42108748D01*
X216147377Y-41435342D01*
X216064145Y-41234402D01*
X215797844Y-41126420D01*
X214924264Y-42000000D01*
X214075736Y-42000000D01*
X213202156Y-41126420D01*
X212935855Y-41234402D01*
X212761936Y-41891252D01*
X174558201Y-41891252D01*
X161083474Y-28416526D01*
X160724014Y-28176341D01*
X160300000Y-28092000D01*
X123140000Y-28092000D01*
X122715986Y-28176341D01*
X122356526Y-28416526D01*
X115506526Y-35266526D01*
X115266341Y-35625986D01*
X115266341Y-35625987D01*
X115182000Y-36050000D01*
X106200000Y-36050000D01*
X106200000Y-35000000D01*
X106184243Y-34922189D01*
X106139454Y-34856638D01*
X106072691Y-34813678D01*
X106000000Y-34800000D01*
X104000000Y-34800000D01*
X103922189Y-34815757D01*
X103856638Y-34860546D01*
X103813678Y-34927309D01*
X103800000Y-35000000D01*
X103800000Y-118800000D01*
X67783000Y-118800000D01*
X67783000Y-112338252D01*
X72791704Y-112338252D01*
X73051184Y-112966240D01*
X73334522Y-113250074D01*
X73052872Y-113531232D01*
X72792297Y-114158767D01*
X72791704Y-114838252D01*
X73051184Y-115466240D01*
X73531232Y-115947128D01*
X74158767Y-116207703D01*
X74838252Y-116208296D01*
X75466240Y-115948816D01*
X75947128Y-115468768D01*
X76207703Y-114841233D01*
X76208296Y-114161748D01*
X75948816Y-113533760D01*
X75857062Y-113441845D01*
X82172000Y-113441845D01*
X82172000Y-113538155D01*
X82359104Y-114478791D01*
X82891932Y-115276223D01*
X83689364Y-115809051D01*
X84630000Y-115996155D01*
X85570636Y-115809051D01*
X86368068Y-115276223D01*
X86465771Y-115130000D01*
X99668130Y-115130000D01*
X99668130Y-116930000D01*
X99717498Y-117192369D01*
X99872558Y-117433339D01*
X100109152Y-117594997D01*
X100390000Y-117651870D01*
X102190000Y-117651870D01*
X102452369Y-117602502D01*
X102693339Y-117447442D01*
X102854997Y-117210848D01*
X102911870Y-116930000D01*
X102911870Y-115130000D01*
X102862502Y-114867631D01*
X102707442Y-114626661D01*
X102529542Y-114505107D01*
X102775598Y-114136858D01*
X102898000Y-113521503D01*
X102898000Y-113458497D01*
X102775598Y-112843142D01*
X102427028Y-112321469D01*
X102275169Y-112220000D01*
X102427028Y-112118531D01*
X102775598Y-111596858D01*
X102898000Y-110981503D01*
X102898000Y-110918497D01*
X102775598Y-110303142D01*
X102427028Y-109781469D01*
X101905355Y-109432899D01*
X101290000Y-109310497D01*
X100674645Y-109432899D01*
X100152972Y-109781469D01*
X99804402Y-110303142D01*
X99682000Y-110918497D01*
X99682000Y-110981503D01*
X99804402Y-111596858D01*
X100152972Y-112118531D01*
X100304831Y-112220000D01*
X100152972Y-112321469D01*
X99804402Y-112843142D01*
X99682000Y-113458497D01*
X99682000Y-113521503D01*
X99804402Y-114136858D01*
X100051416Y-114506541D01*
X99886661Y-114612558D01*
X99725003Y-114849152D01*
X99668130Y-115130000D01*
X86465771Y-115130000D01*
X86900896Y-114478791D01*
X87088000Y-113538155D01*
X87088000Y-113441845D01*
X86900896Y-112501209D01*
X86368068Y-111703777D01*
X85570636Y-111170949D01*
X84630000Y-110983845D01*
X83689364Y-111170949D01*
X82891932Y-111703777D01*
X82359104Y-112501209D01*
X82172000Y-113441845D01*
X75857062Y-113441845D01*
X75665478Y-113249926D01*
X75947128Y-112968768D01*
X76207703Y-112341233D01*
X76208296Y-111661748D01*
X75948816Y-111033760D01*
X75468768Y-110552872D01*
X74841233Y-110292297D01*
X74161748Y-110291704D01*
X73533760Y-110551184D01*
X73052872Y-111031232D01*
X72792297Y-111658767D01*
X72791704Y-112338252D01*
X67783000Y-112338252D01*
X67783000Y-101481003D01*
X74943261Y-101481003D01*
X75082600Y-101773083D01*
X75830962Y-101989189D01*
X76605059Y-101902459D01*
X76917400Y-101773083D01*
X77056739Y-101481003D01*
X76000000Y-100424264D01*
X74943261Y-101481003D01*
X67783000Y-101481003D01*
X67783000Y-99830962D01*
X74010811Y-99830962D01*
X74097541Y-100605059D01*
X74226917Y-100917400D01*
X74518997Y-101056739D01*
X75575736Y-100000000D01*
X76424264Y-100000000D01*
X77481003Y-101056739D01*
X77773083Y-100917400D01*
X77989189Y-100169038D01*
X77902459Y-99394941D01*
X77773083Y-99082600D01*
X77481003Y-98943261D01*
X76424264Y-100000000D01*
X75575736Y-100000000D01*
X74518997Y-98943261D01*
X74226917Y-99082600D01*
X74010811Y-99830962D01*
X67783000Y-99830962D01*
X67783000Y-98518997D01*
X74943261Y-98518997D01*
X76000000Y-99575736D01*
X77056739Y-98518997D01*
X76917400Y-98226917D01*
X76169038Y-98010811D01*
X75394941Y-98097541D01*
X75082600Y-98226917D01*
X74943261Y-98518997D01*
X67783000Y-98518997D01*
X67783000Y-83838252D01*
X72791704Y-83838252D01*
X73051184Y-84466240D01*
X73334522Y-84750074D01*
X73052872Y-85031232D01*
X72792297Y-85658767D01*
X72791704Y-86338252D01*
X73051184Y-86966240D01*
X73531232Y-87447128D01*
X74158767Y-87707703D01*
X74838252Y-87708296D01*
X75466240Y-87448816D01*
X75947128Y-86968768D01*
X76207703Y-86341233D01*
X76208296Y-85661748D01*
X76167017Y-85561845D01*
X82162000Y-85561845D01*
X82162000Y-85658155D01*
X82349104Y-86598791D01*
X82881932Y-87396223D01*
X83679364Y-87929051D01*
X84620000Y-88116155D01*
X85560636Y-87929051D01*
X86358068Y-87396223D01*
X86455771Y-87250000D01*
X99658130Y-87250000D01*
X99658130Y-89050000D01*
X99707498Y-89312369D01*
X99862558Y-89553339D01*
X100099152Y-89714997D01*
X100380000Y-89771870D01*
X102180000Y-89771870D01*
X102442369Y-89722502D01*
X102683339Y-89567442D01*
X102844997Y-89330848D01*
X102901870Y-89050000D01*
X102901870Y-87250000D01*
X102852502Y-86987631D01*
X102697442Y-86746661D01*
X102519542Y-86625107D01*
X102765598Y-86256858D01*
X102888000Y-85641503D01*
X102888000Y-85578497D01*
X102765598Y-84963142D01*
X102417028Y-84441469D01*
X102265169Y-84340000D01*
X102417028Y-84238531D01*
X102765598Y-83716858D01*
X102888000Y-83101503D01*
X102888000Y-83038497D01*
X102765598Y-82423142D01*
X102417028Y-81901469D01*
X101895355Y-81552899D01*
X101280000Y-81430497D01*
X100664645Y-81552899D01*
X100142972Y-81901469D01*
X99794402Y-82423142D01*
X99672000Y-83038497D01*
X99672000Y-83101503D01*
X99794402Y-83716858D01*
X100142972Y-84238531D01*
X100294831Y-84340000D01*
X100142972Y-84441469D01*
X99794402Y-84963142D01*
X99672000Y-85578497D01*
X99672000Y-85641503D01*
X99794402Y-86256858D01*
X100041416Y-86626541D01*
X99876661Y-86732558D01*
X99715003Y-86969152D01*
X99658130Y-87250000D01*
X86455771Y-87250000D01*
X86890896Y-86598791D01*
X87078000Y-85658155D01*
X87078000Y-85561845D01*
X86890896Y-84621209D01*
X86358068Y-83823777D01*
X85560636Y-83290949D01*
X84620000Y-83103845D01*
X83679364Y-83290949D01*
X82881932Y-83823777D01*
X82349104Y-84621209D01*
X82162000Y-85561845D01*
X76167017Y-85561845D01*
X75948816Y-85033760D01*
X75665478Y-84749926D01*
X75947128Y-84468768D01*
X76207703Y-83841233D01*
X76208296Y-83161748D01*
X75948816Y-82533760D01*
X75468768Y-82052872D01*
X74841233Y-81792297D01*
X74161748Y-81791704D01*
X73533760Y-82051184D01*
X73052872Y-82531232D01*
X72792297Y-83158767D01*
X72791704Y-83838252D01*
X67783000Y-83838252D01*
X67783000Y-72481003D01*
X74943261Y-72481003D01*
X75082600Y-72773083D01*
X75830962Y-72989189D01*
X76605059Y-72902459D01*
X76917400Y-72773083D01*
X77056739Y-72481003D01*
X76000000Y-71424264D01*
X74943261Y-72481003D01*
X67783000Y-72481003D01*
X67783000Y-70830962D01*
X74010811Y-70830962D01*
X74097541Y-71605059D01*
X74226917Y-71917400D01*
X74518997Y-72056739D01*
X75575736Y-71000000D01*
X76424264Y-71000000D01*
X77481003Y-72056739D01*
X77773083Y-71917400D01*
X77989189Y-71169038D01*
X77902459Y-70394941D01*
X77773083Y-70082600D01*
X77481003Y-69943261D01*
X76424264Y-71000000D01*
X75575736Y-71000000D01*
X74518997Y-69943261D01*
X74226917Y-70082600D01*
X74010811Y-70830962D01*
X67783000Y-70830962D01*
X67783000Y-69518997D01*
X74943261Y-69518997D01*
X76000000Y-70575736D01*
X77056739Y-69518997D01*
X76917400Y-69226917D01*
X76169038Y-69010811D01*
X75394941Y-69097541D01*
X75082600Y-69226917D01*
X74943261Y-69518997D01*
X67783000Y-69518997D01*
X67783000Y-55338252D01*
X72791704Y-55338252D01*
X73051184Y-55966240D01*
X73334522Y-56250074D01*
X73052872Y-56531232D01*
X72792297Y-57158767D01*
X72791704Y-57838252D01*
X73051184Y-58466240D01*
X73531232Y-58947128D01*
X74158767Y-59207703D01*
X74838252Y-59208296D01*
X75466240Y-58948816D01*
X75947128Y-58468768D01*
X76207703Y-57841233D01*
X76208296Y-57161748D01*
X75948816Y-56533760D01*
X75741265Y-56325845D01*
X81742000Y-56325845D01*
X81742000Y-56422155D01*
X81929104Y-57362791D01*
X82461932Y-58160223D01*
X83259364Y-58693051D01*
X84200000Y-58880155D01*
X85140636Y-58693051D01*
X85938068Y-58160223D01*
X86035771Y-58014000D01*
X99238130Y-58014000D01*
X99238130Y-59814000D01*
X99287498Y-60076369D01*
X99442558Y-60317339D01*
X99679152Y-60478997D01*
X99960000Y-60535870D01*
X101760000Y-60535870D01*
X102022369Y-60486502D01*
X102263339Y-60331442D01*
X102424997Y-60094848D01*
X102481870Y-59814000D01*
X102481870Y-58014000D01*
X102432502Y-57751631D01*
X102277442Y-57510661D01*
X102099542Y-57389107D01*
X102345598Y-57020858D01*
X102468000Y-56405503D01*
X102468000Y-56342497D01*
X102345598Y-55727142D01*
X101997028Y-55205469D01*
X101818864Y-55086424D01*
X102050241Y-54915229D01*
X102373408Y-54377440D01*
X102262788Y-54134000D01*
X101160000Y-54134000D01*
X101160000Y-54154000D01*
X100560000Y-54154000D01*
X100560000Y-54134000D01*
X99457212Y-54134000D01*
X99346592Y-54377440D01*
X99669759Y-54915229D01*
X99901136Y-55086424D01*
X99722972Y-55205469D01*
X99374402Y-55727142D01*
X99252000Y-56342497D01*
X99252000Y-56405503D01*
X99374402Y-57020858D01*
X99621416Y-57390541D01*
X99456661Y-57496558D01*
X99295003Y-57733152D01*
X99238130Y-58014000D01*
X86035771Y-58014000D01*
X86470896Y-57362791D01*
X86658000Y-56422155D01*
X86658000Y-56325845D01*
X86470896Y-55385209D01*
X85938068Y-54587777D01*
X85140636Y-54054949D01*
X84200000Y-53867845D01*
X83259364Y-54054949D01*
X82461932Y-54587777D01*
X81929104Y-55385209D01*
X81742000Y-56325845D01*
X75741265Y-56325845D01*
X75665478Y-56249926D01*
X75947128Y-55968768D01*
X76207703Y-55341233D01*
X76208296Y-54661748D01*
X75948816Y-54033760D01*
X75468768Y-53552872D01*
X74841233Y-53292297D01*
X74161748Y-53291704D01*
X73533760Y-53551184D01*
X73052872Y-54031232D01*
X72792297Y-54658767D01*
X72791704Y-55338252D01*
X67783000Y-55338252D01*
X67783000Y-53290560D01*
X99346592Y-53290560D01*
X99457212Y-53534000D01*
X100560000Y-53534000D01*
X100560000Y-52434800D01*
X101160000Y-52434800D01*
X101160000Y-53534000D01*
X102262788Y-53534000D01*
X102373408Y-53290560D01*
X102050241Y-52752771D01*
X101545871Y-52379589D01*
X101403437Y-52320613D01*
X101160000Y-52434800D01*
X100560000Y-52434800D01*
X100316563Y-52320613D01*
X100174129Y-52379589D01*
X99669759Y-52752771D01*
X99346592Y-53290560D01*
X67783000Y-53290560D01*
X67783000Y-41838252D01*
X72791704Y-41838252D01*
X73051184Y-42466240D01*
X73334522Y-42750074D01*
X73052872Y-43031232D01*
X72792297Y-43658767D01*
X72791704Y-44338252D01*
X73051184Y-44966240D01*
X73531232Y-45447128D01*
X74158767Y-45707703D01*
X74838252Y-45708296D01*
X75466240Y-45448816D01*
X75947128Y-44968768D01*
X76207703Y-44341233D01*
X76208296Y-43661748D01*
X75948816Y-43033760D01*
X75665478Y-42749926D01*
X75947128Y-42468768D01*
X75950002Y-42461845D01*
X81832000Y-42461845D01*
X81832000Y-42558155D01*
X82019104Y-43498791D01*
X82551932Y-44296223D01*
X83349364Y-44829051D01*
X84290000Y-45016155D01*
X85230636Y-44829051D01*
X86028068Y-44296223D01*
X86125771Y-44150000D01*
X99328130Y-44150000D01*
X99328130Y-45950000D01*
X99377498Y-46212369D01*
X99532558Y-46453339D01*
X99769152Y-46614997D01*
X100050000Y-46671870D01*
X101850000Y-46671870D01*
X102112369Y-46622502D01*
X102353339Y-46467442D01*
X102514997Y-46230848D01*
X102571870Y-45950000D01*
X102571870Y-44150000D01*
X102522502Y-43887631D01*
X102367442Y-43646661D01*
X102189542Y-43525107D01*
X102435598Y-43156858D01*
X102558000Y-42541503D01*
X102558000Y-42478497D01*
X102435598Y-41863142D01*
X102087028Y-41341469D01*
X101908864Y-41222424D01*
X102140241Y-41051229D01*
X102463408Y-40513440D01*
X102352788Y-40270000D01*
X101250000Y-40270000D01*
X101250000Y-40290000D01*
X100650000Y-40290000D01*
X100650000Y-40270000D01*
X99547212Y-40270000D01*
X99436592Y-40513440D01*
X99759759Y-41051229D01*
X99991136Y-41222424D01*
X99812972Y-41341469D01*
X99464402Y-41863142D01*
X99342000Y-42478497D01*
X99342000Y-42541503D01*
X99464402Y-43156858D01*
X99711416Y-43526541D01*
X99546661Y-43632558D01*
X99385003Y-43869152D01*
X99328130Y-44150000D01*
X86125771Y-44150000D01*
X86560896Y-43498791D01*
X86748000Y-42558155D01*
X86748000Y-42461845D01*
X86560896Y-41521209D01*
X86028068Y-40723777D01*
X85230636Y-40190949D01*
X84290000Y-40003845D01*
X83349364Y-40190949D01*
X82551932Y-40723777D01*
X82019104Y-41521209D01*
X81832000Y-42461845D01*
X75950002Y-42461845D01*
X76207703Y-41841233D01*
X76208296Y-41161748D01*
X75948816Y-40533760D01*
X75468768Y-40052872D01*
X74841233Y-39792297D01*
X74161748Y-39791704D01*
X73533760Y-40051184D01*
X73052872Y-40531232D01*
X72792297Y-41158767D01*
X72791704Y-41838252D01*
X67783000Y-41838252D01*
X67783000Y-39426560D01*
X99436592Y-39426560D01*
X99547212Y-39670000D01*
X100650000Y-39670000D01*
X100650000Y-38570800D01*
X101250000Y-38570800D01*
X101250000Y-39670000D01*
X102352788Y-39670000D01*
X102463408Y-39426560D01*
X102140241Y-38888771D01*
X101635871Y-38515589D01*
X101493437Y-38456613D01*
X101250000Y-38570800D01*
X100650000Y-38570800D01*
X100406563Y-38456613D01*
X100264129Y-38515589D01*
X99759759Y-38888771D01*
X99436592Y-39426560D01*
X67783000Y-39426560D01*
X67783000Y-26635311D01*
X68791445Y-26635311D01*
X69278805Y-27814812D01*
X70180442Y-28718024D01*
X71359090Y-29207441D01*
X72635311Y-29208555D01*
X73814812Y-28721195D01*
X73822588Y-28713432D01*
X110050832Y-28713432D01*
X110221251Y-29031397D01*
X111060853Y-29289565D01*
X111935340Y-29206779D01*
X112358749Y-29031397D01*
X112529168Y-28713432D01*
X111290000Y-27474264D01*
X110050832Y-28713432D01*
X73822588Y-28713432D01*
X74718024Y-27819558D01*
X75132722Y-26820853D01*
X109050435Y-26820853D01*
X109133221Y-27695340D01*
X109308603Y-28118749D01*
X109626568Y-28289168D01*
X110865736Y-27050000D01*
X111714264Y-27050000D01*
X112953432Y-28289168D01*
X113271397Y-28118749D01*
X113465569Y-27487271D01*
X114081618Y-27487271D01*
X114417057Y-28299097D01*
X115037636Y-28920760D01*
X115848875Y-29257616D01*
X116727271Y-29258382D01*
X117539097Y-28922943D01*
X118160760Y-28302364D01*
X118497616Y-27491125D01*
X118498362Y-26635311D01*
X213791445Y-26635311D01*
X214278805Y-27814812D01*
X215180442Y-28718024D01*
X216359090Y-29207441D01*
X217635311Y-29208555D01*
X218814812Y-28721195D01*
X219718024Y-27819558D01*
X220207441Y-26640910D01*
X220208555Y-25364689D01*
X219721195Y-24185188D01*
X218819558Y-23281976D01*
X217640910Y-22792559D01*
X216364689Y-22791445D01*
X215185188Y-23278805D01*
X214281976Y-24180442D01*
X213792559Y-25359090D01*
X213791445Y-26635311D01*
X118498362Y-26635311D01*
X118498382Y-26612729D01*
X118162943Y-25800903D01*
X117542364Y-25179240D01*
X116731125Y-24842384D01*
X115852729Y-24841618D01*
X115040903Y-25177057D01*
X114419240Y-25797636D01*
X114082384Y-26608875D01*
X114081618Y-27487271D01*
X113465569Y-27487271D01*
X113529565Y-27279147D01*
X113446779Y-26404660D01*
X113271397Y-25981251D01*
X112953432Y-25810832D01*
X111714264Y-27050000D01*
X110865736Y-27050000D01*
X109626568Y-25810832D01*
X109308603Y-25981251D01*
X109050435Y-26820853D01*
X75132722Y-26820853D01*
X75207441Y-26640910D01*
X75208535Y-25386568D01*
X110050832Y-25386568D01*
X111290000Y-26625736D01*
X112529168Y-25386568D01*
X112358749Y-25068603D01*
X111519147Y-24810435D01*
X110644660Y-24893221D01*
X110221251Y-25068603D01*
X110050832Y-25386568D01*
X75208535Y-25386568D01*
X75208555Y-25364689D01*
X74721195Y-24185188D01*
X73819558Y-23281976D01*
X72640910Y-22792559D01*
X71364689Y-22791445D01*
X70185188Y-23278805D01*
X69281976Y-24180442D01*
X68792559Y-25359090D01*
X68791445Y-26635311D01*
X67783000Y-26635311D01*
X67783000Y-21783000D01*
X221217000Y-21783000D01*
X221217000Y-160217000D01*
X221217000Y-160217000D01*
G37*
X221217000Y-160217000D02*
X152200000Y-160217000D01*
X152200000Y-156635311D01*
X213791445Y-156635311D01*
X214278805Y-157814812D01*
X215180442Y-158718024D01*
X216359090Y-159207441D01*
X217635311Y-159208555D01*
X218814812Y-158721195D01*
X219718024Y-157819558D01*
X220207441Y-156640910D01*
X220208555Y-155364689D01*
X219721195Y-154185188D01*
X218819558Y-153281976D01*
X217640910Y-152792559D01*
X216364689Y-152791445D01*
X215185188Y-153278805D01*
X214281976Y-154180442D01*
X213792559Y-155359090D01*
X213791445Y-156635311D01*
X152200000Y-156635311D01*
X152200000Y-149297843D01*
X213626420Y-149297843D01*
X213734402Y-149564144D01*
X214391252Y-149738063D01*
X215064658Y-149647376D01*
X215265598Y-149564144D01*
X215373580Y-149297843D01*
X214500000Y-148424263D01*
X213626420Y-149297843D01*
X152200000Y-149297843D01*
X152200000Y-120000000D01*
X152184243Y-119922189D01*
X152139454Y-119856638D01*
X152072691Y-119813678D01*
X152000000Y-119800000D01*
X150000000Y-119800000D01*
X149922189Y-119815757D01*
X149856638Y-119860546D01*
X149813678Y-119927309D01*
X149800000Y-120000000D01*
X149800000Y-160217000D01*
X67783000Y-160217000D01*
X67783000Y-156635311D01*
X68791445Y-156635311D01*
X69278805Y-157814812D01*
X70180442Y-158718024D01*
X71359090Y-159207441D01*
X72635311Y-159208555D01*
X73060668Y-159032801D01*
X78861753Y-159032801D01*
X79078695Y-159557840D01*
X79480047Y-159959893D01*
X80004707Y-160177751D01*
X80572801Y-160178247D01*
X81097840Y-159961305D01*
X81499893Y-159559953D01*
X81717751Y-159035293D01*
X81718247Y-158467199D01*
X81501305Y-157942160D01*
X81099953Y-157540107D01*
X80575293Y-157322249D01*
X80007199Y-157321753D01*
X79482160Y-157538695D01*
X79080107Y-157940047D01*
X78862249Y-158464707D01*
X78861753Y-159032801D01*
X73060668Y-159032801D01*
X73814812Y-158721195D01*
X74718024Y-157819558D01*
X75207441Y-156640910D01*
X75208555Y-155364689D01*
X74721195Y-154185188D01*
X74489214Y-153952801D01*
X78861753Y-153952801D01*
X79078695Y-154477840D01*
X79480047Y-154879893D01*
X80004707Y-155097751D01*
X80572801Y-155098247D01*
X81097840Y-154881305D01*
X81401675Y-154578000D01*
X87062574Y-154578000D01*
X87331232Y-154847128D01*
X87958767Y-155107703D01*
X88638252Y-155108296D01*
X89266240Y-154848816D01*
X89550074Y-154565478D01*
X89750070Y-154765824D01*
X89213894Y-155302000D01*
X83941320Y-155302000D01*
X83639953Y-155000107D01*
X83115293Y-154782249D01*
X82547199Y-154781753D01*
X82022160Y-154998695D01*
X81620107Y-155400047D01*
X81402249Y-155924707D01*
X81401753Y-156492801D01*
X81618695Y-157017840D01*
X82020047Y-157419893D01*
X82544707Y-157637751D01*
X83112801Y-157638247D01*
X83637840Y-157421305D01*
X83941675Y-157118000D01*
X89590000Y-157118000D01*
X89937477Y-157048883D01*
X90232053Y-156852053D01*
X90745854Y-156338252D01*
X99291704Y-156338252D01*
X99551184Y-156966240D01*
X100031232Y-157447128D01*
X100658767Y-157707703D01*
X101338252Y-157708296D01*
X101966240Y-157448816D01*
X102447128Y-156968768D01*
X102707703Y-156341233D01*
X102708296Y-155661748D01*
X102448816Y-155033760D01*
X101968768Y-154552872D01*
X101341233Y-154292297D01*
X100661748Y-154291704D01*
X100033760Y-154551184D01*
X99552872Y-155031232D01*
X99292297Y-155658767D01*
X99291704Y-156338252D01*
X90745854Y-156338252D01*
X91442053Y-155642053D01*
X91638883Y-155347477D01*
X91708000Y-155000000D01*
X91708000Y-154872880D01*
X91766240Y-154848816D01*
X92247128Y-154368768D01*
X92507703Y-153741233D01*
X92508296Y-153061748D01*
X92248816Y-152433760D01*
X91768768Y-151952872D01*
X91141233Y-151692297D01*
X90461748Y-151691704D01*
X89833760Y-151951184D01*
X89549926Y-152234522D01*
X89268768Y-151952872D01*
X88641233Y-151692297D01*
X87961748Y-151691704D01*
X87333760Y-151951184D01*
X86852872Y-152431232D01*
X86715525Y-152762000D01*
X81401320Y-152762000D01*
X81099953Y-152460107D01*
X80575293Y-152242249D01*
X80007199Y-152241753D01*
X79482160Y-152458695D01*
X79080107Y-152860047D01*
X78862249Y-153384707D01*
X78861753Y-153952801D01*
X74489214Y-153952801D01*
X73819558Y-153281976D01*
X72640910Y-152792559D01*
X71364689Y-152791445D01*
X70185188Y-153278805D01*
X69281976Y-154180442D01*
X68792559Y-155359090D01*
X68791445Y-156635311D01*
X67783000Y-156635311D01*
X67783000Y-147338252D01*
X72791704Y-147338252D01*
X73051184Y-147966240D01*
X73531232Y-148447128D01*
X74158767Y-148707703D01*
X74838252Y-148708296D01*
X74886762Y-148688252D01*
X94581704Y-148688252D01*
X94841184Y-149316240D01*
X95321232Y-149797128D01*
X95948767Y-150057703D01*
X96628252Y-150058296D01*
X97256240Y-149798816D01*
X97737128Y-149318768D01*
X97997703Y-148691233D01*
X97998296Y-148011748D01*
X97738816Y-147383760D01*
X97258768Y-146902872D01*
X96631233Y-146642297D01*
X95951748Y-146641704D01*
X95323760Y-146901184D01*
X94842872Y-147381232D01*
X94582297Y-148008767D01*
X94581704Y-148688252D01*
X74886762Y-148688252D01*
X75466240Y-148448816D01*
X75947128Y-147968768D01*
X76207703Y-147341233D01*
X76208296Y-146661748D01*
X75948816Y-146033760D01*
X75468768Y-145552872D01*
X74887063Y-145311327D01*
X74500000Y-144924264D01*
X74112008Y-145312256D01*
X73533760Y-145551184D01*
X73052872Y-146031232D01*
X72792297Y-146658767D01*
X72791704Y-147338252D01*
X67783000Y-147338252D01*
X67783000Y-144391252D01*
X72761936Y-144391252D01*
X72852623Y-145064658D01*
X72935855Y-145265598D01*
X73202156Y-145373580D01*
X74075736Y-144500000D01*
X74924264Y-144500000D01*
X75797844Y-145373580D01*
X76064145Y-145265598D01*
X76238064Y-144608748D01*
X76208370Y-144388252D01*
X103581704Y-144388252D01*
X103841184Y-145016240D01*
X104321232Y-145497128D01*
X104948767Y-145757703D01*
X105628252Y-145758296D01*
X106256240Y-145498816D01*
X106737128Y-145018768D01*
X106997703Y-144391233D01*
X106998296Y-143711748D01*
X106738816Y-143083760D01*
X106258768Y-142602872D01*
X105631233Y-142342297D01*
X104951748Y-142341704D01*
X104323760Y-142601184D01*
X103842872Y-143081232D01*
X103582297Y-143708767D01*
X103581704Y-144388252D01*
X76208370Y-144388252D01*
X76147377Y-143935342D01*
X76064145Y-143734402D01*
X75797844Y-143626420D01*
X74924264Y-144500000D01*
X74075736Y-144500000D01*
X73202156Y-143626420D01*
X72935855Y-143734402D01*
X72761936Y-144391252D01*
X67783000Y-144391252D01*
X67783000Y-143202156D01*
X73626420Y-143202156D01*
X74500000Y-144075736D01*
X75373580Y-143202156D01*
X75265598Y-142935855D01*
X74608748Y-142761936D01*
X73935342Y-142852623D01*
X73734402Y-142935855D01*
X73626420Y-143202156D01*
X67783000Y-143202156D01*
X67783000Y-138338252D01*
X72791704Y-138338252D01*
X73051184Y-138966240D01*
X73531232Y-139447128D01*
X74158767Y-139707703D01*
X74838252Y-139708296D01*
X75466240Y-139448816D01*
X75947128Y-138968768D01*
X76207703Y-138341233D01*
X76207705Y-138338252D01*
X122291704Y-138338252D01*
X122551184Y-138966240D01*
X123031232Y-139447128D01*
X123658767Y-139707703D01*
X124338252Y-139708296D01*
X124966240Y-139448816D01*
X125447128Y-138968768D01*
X125707703Y-138341233D01*
X125708296Y-137661748D01*
X125448816Y-137033760D01*
X124968768Y-136552872D01*
X124341233Y-136292297D01*
X123661748Y-136291704D01*
X123033760Y-136551184D01*
X122552872Y-137031232D01*
X122292297Y-137658767D01*
X122291704Y-138338252D01*
X76207705Y-138338252D01*
X76208296Y-137661748D01*
X75948816Y-137033760D01*
X75468768Y-136552872D01*
X74887063Y-136311327D01*
X74500000Y-135924264D01*
X74112008Y-136312256D01*
X73533760Y-136551184D01*
X73052872Y-137031232D01*
X72792297Y-137658767D01*
X72791704Y-138338252D01*
X67783000Y-138338252D01*
X67783000Y-135391252D01*
X72761936Y-135391252D01*
X72852623Y-136064658D01*
X72935855Y-136265598D01*
X73202156Y-136373580D01*
X74075736Y-135500000D01*
X74924264Y-135500000D01*
X75797844Y-136373580D01*
X76064145Y-136265598D01*
X76238064Y-135608748D01*
X76147377Y-134935342D01*
X76064145Y-134734402D01*
X75797844Y-134626420D01*
X74924264Y-135500000D01*
X74075736Y-135500000D01*
X73202156Y-134626420D01*
X72935855Y-134734402D01*
X72761936Y-135391252D01*
X67783000Y-135391252D01*
X67783000Y-134202156D01*
X73626420Y-134202156D01*
X74500000Y-135075736D01*
X75373580Y-134202156D01*
X75265598Y-133935855D01*
X74608748Y-133761936D01*
X73935342Y-133852623D01*
X73734402Y-133935855D01*
X73626420Y-134202156D01*
X67783000Y-134202156D01*
X67783000Y-129338252D01*
X72791704Y-129338252D01*
X73051184Y-129966240D01*
X73531232Y-130447128D01*
X74158767Y-130707703D01*
X74838252Y-130708296D01*
X75466240Y-130448816D01*
X75626594Y-130288742D01*
X104041747Y-130288742D01*
X104263247Y-130824812D01*
X104673031Y-131235312D01*
X105208714Y-131457746D01*
X105674047Y-131458153D01*
X106857947Y-132642053D01*
X107152523Y-132838883D01*
X107500000Y-132908000D01*
X114199536Y-132908000D01*
X114314830Y-133023495D01*
X114758660Y-133207790D01*
X115239232Y-133208209D01*
X115683383Y-133024690D01*
X116023495Y-132685170D01*
X116207790Y-132241340D01*
X116208209Y-131760768D01*
X116024690Y-131316617D01*
X115685170Y-130976505D01*
X115520192Y-130908000D01*
X118623894Y-130908000D01*
X120357947Y-132642053D01*
X120652523Y-132838883D01*
X121000000Y-132908000D01*
X121699536Y-132908000D01*
X121814830Y-133023495D01*
X122258660Y-133207790D01*
X122739232Y-133208209D01*
X123183383Y-133024690D01*
X123523495Y-132685170D01*
X123707790Y-132241340D01*
X123708209Y-131760768D01*
X123524690Y-131316617D01*
X123185170Y-130976505D01*
X122741340Y-130792210D01*
X122260768Y-130791791D01*
X121816617Y-130975310D01*
X121699724Y-131092000D01*
X121376106Y-131092000D01*
X119642053Y-129357947D01*
X119347477Y-129161117D01*
X119000000Y-129092000D01*
X111533710Y-129092000D01*
X111206969Y-128764688D01*
X110671286Y-128542254D01*
X110091258Y-128541747D01*
X109555188Y-128763247D01*
X109144688Y-129173031D01*
X108922254Y-129708714D01*
X108921747Y-130288742D01*
X109143247Y-130824812D01*
X109409969Y-131092000D01*
X107876106Y-131092000D01*
X106957849Y-130173743D01*
X106958253Y-129711258D01*
X106736753Y-129175188D01*
X106326969Y-128764688D01*
X105791286Y-128542254D01*
X105211258Y-128541747D01*
X104675188Y-128763247D01*
X104264688Y-129173031D01*
X104042254Y-129708714D01*
X104041747Y-130288742D01*
X75626594Y-130288742D01*
X75947128Y-129968768D01*
X76207703Y-129341233D01*
X76208296Y-128661748D01*
X75948816Y-128033760D01*
X75468768Y-127552872D01*
X74887063Y-127311327D01*
X74500000Y-126924264D01*
X74112008Y-127312256D01*
X73533760Y-127551184D01*
X73052872Y-128031232D01*
X72792297Y-128658767D01*
X72791704Y-129338252D01*
X67783000Y-129338252D01*
X67783000Y-126391252D01*
X72761936Y-126391252D01*
X72852623Y-127064658D01*
X72935855Y-127265598D01*
X73202156Y-127373580D01*
X74075736Y-126500000D01*
X74924264Y-126500000D01*
X75797844Y-127373580D01*
X76064145Y-127265598D01*
X76238064Y-126608748D01*
X76147377Y-125935342D01*
X76064145Y-125734402D01*
X75797844Y-125626420D01*
X74924264Y-126500000D01*
X74075736Y-126500000D01*
X73202156Y-125626420D01*
X72935855Y-125734402D01*
X72761936Y-126391252D01*
X67783000Y-126391252D01*
X67783000Y-125202156D01*
X73626420Y-125202156D01*
X74500000Y-126075736D01*
X75373580Y-125202156D01*
X75265598Y-124935855D01*
X74608748Y-124761936D01*
X73935342Y-124852623D01*
X73734402Y-124935855D01*
X73626420Y-125202156D01*
X67783000Y-125202156D01*
X67783000Y-121200000D01*
X117951673Y-121200000D01*
X117976341Y-121324014D01*
X118216526Y-121683474D01*
X126892000Y-130358948D01*
X126892000Y-141541052D01*
X123557112Y-144875940D01*
X123316617Y-144975310D01*
X123199724Y-145092000D01*
X109900000Y-145092000D01*
X109552523Y-145161117D01*
X109257947Y-145357947D01*
X103523894Y-151092000D01*
X96800464Y-151092000D01*
X96685170Y-150976505D01*
X96241340Y-150792210D01*
X95760768Y-150791791D01*
X95316617Y-150975310D01*
X94976505Y-151314830D01*
X94792210Y-151758660D01*
X94791791Y-152239232D01*
X94975310Y-152683383D01*
X95314830Y-153023495D01*
X95758660Y-153207790D01*
X96239232Y-153208209D01*
X96683383Y-153024690D01*
X96800276Y-152908000D01*
X103900000Y-152908000D01*
X104247477Y-152838883D01*
X104542053Y-152642053D01*
X106234874Y-150949232D01*
X111981791Y-150949232D01*
X112165310Y-151393383D01*
X112504830Y-151733495D01*
X112948660Y-151917790D01*
X113429232Y-151918209D01*
X113873383Y-151734690D01*
X113990276Y-151618000D01*
X116933894Y-151618000D01*
X117023431Y-151707537D01*
X116433760Y-151951184D01*
X116149926Y-152234522D01*
X115868768Y-151952872D01*
X115241233Y-151692297D01*
X114561748Y-151691704D01*
X113933760Y-151951184D01*
X113452872Y-152431232D01*
X113192297Y-153058767D01*
X113191704Y-153738252D01*
X113451184Y-154366240D01*
X113931232Y-154847128D01*
X113992000Y-154872361D01*
X113992000Y-156910000D01*
X114061117Y-157257477D01*
X114257947Y-157552053D01*
X116087947Y-159382053D01*
X116382523Y-159578883D01*
X116730000Y-159648000D01*
X124228680Y-159648000D01*
X124530047Y-159949893D01*
X125054707Y-160167751D01*
X125622801Y-160168247D01*
X126147840Y-159951305D01*
X126549893Y-159549953D01*
X126767751Y-159025293D01*
X126768247Y-158457199D01*
X126551305Y-157932160D01*
X126149953Y-157530107D01*
X125625293Y-157312249D01*
X125057199Y-157311753D01*
X124532160Y-157528695D01*
X124228325Y-157832000D01*
X117106106Y-157832000D01*
X115808000Y-156533894D01*
X115808000Y-154872880D01*
X115866240Y-154848816D01*
X116150074Y-154565478D01*
X116431232Y-154847128D01*
X117058767Y-155107703D01*
X117738252Y-155108296D01*
X118366240Y-154848816D01*
X118847128Y-154368768D01*
X119092864Y-153776970D01*
X121372125Y-156056231D01*
X121371753Y-156482801D01*
X121588695Y-157007840D01*
X121990047Y-157409893D01*
X122514707Y-157627751D01*
X123082801Y-157628247D01*
X123607840Y-157411305D01*
X124009893Y-157009953D01*
X124227751Y-156485293D01*
X124228247Y-155917199D01*
X124011305Y-155392160D01*
X123609953Y-154990107D01*
X123085293Y-154772249D01*
X122655980Y-154771874D01*
X121826907Y-153942801D01*
X123911753Y-153942801D01*
X124128695Y-154467840D01*
X124530047Y-154869893D01*
X125054707Y-155087751D01*
X125622801Y-155088247D01*
X126147840Y-154871305D01*
X126549893Y-154469953D01*
X126767751Y-153945293D01*
X126768247Y-153377199D01*
X126551305Y-152852160D01*
X126149953Y-152450107D01*
X125625293Y-152232249D01*
X125057199Y-152231753D01*
X124532160Y-152448695D01*
X124130107Y-152850047D01*
X123912249Y-153374707D01*
X123911753Y-153942801D01*
X121826907Y-153942801D01*
X117952053Y-150067947D01*
X117657477Y-149871117D01*
X117310000Y-149802000D01*
X113990464Y-149802000D01*
X113875170Y-149686505D01*
X113431340Y-149502210D01*
X112950768Y-149501791D01*
X112506617Y-149685310D01*
X112166505Y-150024830D01*
X111982210Y-150468660D01*
X111981791Y-150949232D01*
X106234874Y-150949232D01*
X110276106Y-146908000D01*
X123199536Y-146908000D01*
X123314830Y-147023495D01*
X123758660Y-147207790D01*
X124239232Y-147208209D01*
X124683383Y-147024690D01*
X125023495Y-146685170D01*
X125124128Y-146442820D01*
X126757440Y-144809508D01*
X134467695Y-144809508D01*
X134625230Y-145103514D01*
X135028256Y-145502634D01*
X135553340Y-145717142D01*
X135780000Y-145565851D01*
X135780000Y-144590000D01*
X136380000Y-144590000D01*
X136380000Y-145565851D01*
X136606660Y-145717142D01*
X137131744Y-145502634D01*
X137534770Y-145103514D01*
X137600000Y-144981776D01*
X137665230Y-145103514D01*
X138068256Y-145502634D01*
X138593340Y-145717142D01*
X138820000Y-145565851D01*
X138820000Y-144590000D01*
X139420000Y-144590000D01*
X139420000Y-145565851D01*
X139646660Y-145717142D01*
X140171744Y-145502634D01*
X140574770Y-145103514D01*
X140732305Y-144809508D01*
X140615376Y-144590000D01*
X139420000Y-144590000D01*
X138820000Y-144590000D01*
X137624624Y-144590000D01*
X137600000Y-144636226D01*
X137575376Y-144590000D01*
X136380000Y-144590000D01*
X135780000Y-144590000D01*
X134584624Y-144590000D01*
X134467695Y-144809508D01*
X126757440Y-144809508D01*
X128783474Y-142783474D01*
X129023659Y-142424014D01*
X129046745Y-142307952D01*
X129108000Y-142000000D01*
X129108000Y-129900000D01*
X129065268Y-129685170D01*
X129023659Y-129475986D01*
X128783474Y-129116526D01*
X120866948Y-121200000D01*
X127000000Y-121200000D01*
X127077811Y-121184243D01*
X127143362Y-121139454D01*
X127185695Y-121074278D01*
X129185695Y-116074278D01*
X129200000Y-116000000D01*
X129200000Y-107082842D01*
X129246285Y-107036557D01*
X129658660Y-107207790D01*
X130083361Y-107208160D01*
X129976505Y-107314830D01*
X129792210Y-107758660D01*
X129791791Y-108239232D01*
X129975310Y-108683383D01*
X130314830Y-109023495D01*
X130758660Y-109207790D01*
X131239232Y-109208209D01*
X131485065Y-109106633D01*
X131276505Y-109314830D01*
X131092210Y-109758660D01*
X131091791Y-110239232D01*
X131275310Y-110683383D01*
X131614830Y-111023495D01*
X132058660Y-111207790D01*
X132539232Y-111208209D01*
X132983383Y-111024690D01*
X133323495Y-110685170D01*
X133507790Y-110241340D01*
X133507934Y-110076172D01*
X133962106Y-109622000D01*
X134672725Y-109622000D01*
X134765576Y-109760962D01*
X135123323Y-110000000D01*
X134765576Y-110239038D01*
X134449522Y-110712048D01*
X134338538Y-111270000D01*
X134449522Y-111827952D01*
X134765576Y-112300962D01*
X135123323Y-112540000D01*
X134765576Y-112779038D01*
X134449522Y-113252048D01*
X134338538Y-113810000D01*
X134449522Y-114367952D01*
X134765576Y-114840962D01*
X135123323Y-115080000D01*
X134765576Y-115319038D01*
X134449522Y-115792048D01*
X134338538Y-116350000D01*
X134449522Y-116907952D01*
X134765576Y-117380962D01*
X135123323Y-117620000D01*
X134765576Y-117859038D01*
X134449522Y-118332048D01*
X134338538Y-118890000D01*
X134449522Y-119447952D01*
X134765576Y-119920962D01*
X135123323Y-120160000D01*
X134765576Y-120399038D01*
X134449522Y-120872048D01*
X134338538Y-121430000D01*
X134449522Y-121987952D01*
X134765576Y-122460962D01*
X135123323Y-122700000D01*
X134765576Y-122939038D01*
X134663370Y-123092000D01*
X132800464Y-123092000D01*
X132685170Y-122976505D01*
X132241340Y-122792210D01*
X131760768Y-122791791D01*
X131316617Y-122975310D01*
X130976505Y-123314830D01*
X130792210Y-123758660D01*
X130791791Y-124239232D01*
X130975310Y-124683383D01*
X131314830Y-125023495D01*
X131758660Y-125207790D01*
X132239232Y-125208209D01*
X132683383Y-125024690D01*
X132800276Y-124908000D01*
X134703461Y-124908000D01*
X134765576Y-125000962D01*
X135123323Y-125240000D01*
X134765576Y-125479038D01*
X134690097Y-125592000D01*
X132800464Y-125592000D01*
X132685170Y-125476505D01*
X132241340Y-125292210D01*
X131760768Y-125291791D01*
X131316617Y-125475310D01*
X130976505Y-125814830D01*
X130792210Y-126258660D01*
X130791791Y-126739232D01*
X130975310Y-127183383D01*
X131314830Y-127523495D01*
X131758660Y-127707790D01*
X132239232Y-127708209D01*
X132683383Y-127524690D01*
X132800276Y-127408000D01*
X134676734Y-127408000D01*
X134765576Y-127540962D01*
X135123323Y-127780000D01*
X134765576Y-128019038D01*
X134716825Y-128092000D01*
X132800464Y-128092000D01*
X132685170Y-127976505D01*
X132241340Y-127792210D01*
X131760768Y-127791791D01*
X131316617Y-127975310D01*
X130976505Y-128314830D01*
X130792210Y-128758660D01*
X130791791Y-129239232D01*
X130975310Y-129683383D01*
X131314830Y-130023495D01*
X131758660Y-130207790D01*
X132239232Y-130208209D01*
X132683383Y-130024690D01*
X132800276Y-129908000D01*
X134650007Y-129908000D01*
X134765576Y-130080962D01*
X135123323Y-130320000D01*
X134765576Y-130559038D01*
X134683416Y-130682000D01*
X132780481Y-130682000D01*
X132675170Y-130576505D01*
X132231340Y-130392210D01*
X131750768Y-130391791D01*
X131306617Y-130575310D01*
X130966505Y-130914830D01*
X130782210Y-131358660D01*
X130781791Y-131839232D01*
X130965310Y-132283383D01*
X131304830Y-132623495D01*
X131748660Y-132807790D01*
X132229232Y-132808209D01*
X132673383Y-132624690D01*
X132800294Y-132498000D01*
X134683416Y-132498000D01*
X134765576Y-132620962D01*
X135123323Y-132860000D01*
X134765576Y-133099038D01*
X134449522Y-133572048D01*
X134338538Y-134130000D01*
X134449522Y-134687952D01*
X134765576Y-135160962D01*
X135123323Y-135400000D01*
X134765576Y-135639038D01*
X134449522Y-136112048D01*
X134338538Y-136670000D01*
X134449522Y-137227952D01*
X134765576Y-137700962D01*
X135123323Y-137940000D01*
X134765576Y-138179038D01*
X134449522Y-138652048D01*
X134338538Y-139210000D01*
X134449522Y-139767952D01*
X134765576Y-140240962D01*
X135123323Y-140480000D01*
X134765576Y-140719038D01*
X134449522Y-141192048D01*
X134338538Y-141750000D01*
X134449522Y-142307952D01*
X134765576Y-142780962D01*
X135140532Y-143031499D01*
X135028256Y-143077366D01*
X134625230Y-143476486D01*
X134467695Y-143770492D01*
X134584624Y-143990000D01*
X135780000Y-143990000D01*
X135780000Y-143970000D01*
X136380000Y-143970000D01*
X136380000Y-143990000D01*
X137575376Y-143990000D01*
X137600000Y-143943774D01*
X137624624Y-143990000D01*
X138820000Y-143990000D01*
X138820000Y-143970000D01*
X139420000Y-143970000D01*
X139420000Y-143990000D01*
X140615376Y-143990000D01*
X140732305Y-143770492D01*
X140574770Y-143476486D01*
X140171744Y-143077366D01*
X140059468Y-143031499D01*
X140434424Y-142780962D01*
X140750478Y-142307952D01*
X140861462Y-141750000D01*
X140750478Y-141192048D01*
X140434424Y-140719038D01*
X140076677Y-140480000D01*
X140434424Y-140240962D01*
X140750478Y-139767952D01*
X140861462Y-139210000D01*
X140750478Y-138652048D01*
X140434424Y-138179038D01*
X140076677Y-137940000D01*
X140434424Y-137700962D01*
X140750478Y-137227952D01*
X140861462Y-136670000D01*
X140750478Y-136112048D01*
X140434424Y-135639038D01*
X140076677Y-135400000D01*
X140434424Y-135160962D01*
X140750478Y-134687952D01*
X140861462Y-134130000D01*
X140750478Y-133572048D01*
X140434424Y-133099038D01*
X140076677Y-132860000D01*
X140434424Y-132620962D01*
X140750478Y-132147952D01*
X140861462Y-131590000D01*
X140750478Y-131032048D01*
X140434424Y-130559038D01*
X140076677Y-130320000D01*
X140434424Y-130080962D01*
X140549993Y-129908000D01*
X142199536Y-129908000D01*
X142314830Y-130023495D01*
X142758660Y-130207790D01*
X143239232Y-130208209D01*
X143683383Y-130024690D01*
X144023495Y-129685170D01*
X144207790Y-129241340D01*
X144208209Y-128760768D01*
X144024690Y-128316617D01*
X143685170Y-127976505D01*
X143241340Y-127792210D01*
X142760768Y-127791791D01*
X142316617Y-127975310D01*
X142199724Y-128092000D01*
X140483175Y-128092000D01*
X140434424Y-128019038D01*
X140076677Y-127780000D01*
X140434424Y-127540962D01*
X140523266Y-127408000D01*
X142199536Y-127408000D01*
X142314830Y-127523495D01*
X142758660Y-127707790D01*
X143239232Y-127708209D01*
X143683383Y-127524690D01*
X144023495Y-127185170D01*
X144207790Y-126741340D01*
X144208209Y-126260768D01*
X144024690Y-125816617D01*
X143685170Y-125476505D01*
X143241340Y-125292210D01*
X142760768Y-125291791D01*
X142316617Y-125475310D01*
X142199724Y-125592000D01*
X140509903Y-125592000D01*
X140434424Y-125479038D01*
X140076677Y-125240000D01*
X140434424Y-125000962D01*
X140750478Y-124527952D01*
X140861462Y-123970000D01*
X140750478Y-123412048D01*
X140434424Y-122939038D01*
X140076677Y-122700000D01*
X140434424Y-122460962D01*
X140750478Y-121987952D01*
X140861462Y-121430000D01*
X140750478Y-120872048D01*
X140434424Y-120399038D01*
X140076677Y-120160000D01*
X140434424Y-119920962D01*
X140750478Y-119447952D01*
X140861462Y-118890000D01*
X140750478Y-118332048D01*
X140434424Y-117859038D01*
X140076677Y-117620000D01*
X140434424Y-117380962D01*
X140750478Y-116907952D01*
X140861462Y-116350000D01*
X140750478Y-115792048D01*
X140434424Y-115319038D01*
X140076677Y-115080000D01*
X140434424Y-114840962D01*
X140750478Y-114367952D01*
X140861462Y-113810000D01*
X140750478Y-113252048D01*
X140434424Y-112779038D01*
X140076677Y-112540000D01*
X140434424Y-112300962D01*
X140750478Y-111827952D01*
X140861462Y-111270000D01*
X140750478Y-110712048D01*
X140434424Y-110239038D01*
X140076677Y-110000000D01*
X140434424Y-109760962D01*
X140750478Y-109287952D01*
X140861462Y-108730000D01*
X140750478Y-108172048D01*
X140434424Y-107699038D01*
X140076677Y-107460000D01*
X140434424Y-107220962D01*
X140750478Y-106747952D01*
X140861462Y-106190000D01*
X140750478Y-105632048D01*
X140434424Y-105159038D01*
X140076677Y-104920000D01*
X140434424Y-104680962D01*
X140750478Y-104207952D01*
X140861462Y-103650000D01*
X140750478Y-103092048D01*
X140434424Y-102619038D01*
X140076677Y-102380000D01*
X140434424Y-102140962D01*
X140527275Y-102002000D01*
X141246000Y-102002000D01*
X141593477Y-101932883D01*
X141888053Y-101736053D01*
X142932053Y-100692053D01*
X142990181Y-100605059D01*
X143128883Y-100397477D01*
X143198000Y-100050000D01*
X143198000Y-79490000D01*
X143128883Y-79142523D01*
X142932053Y-78847947D01*
X140542053Y-76457947D01*
X140247477Y-76261117D01*
X139900000Y-76192000D01*
X135100000Y-76192000D01*
X134752523Y-76261117D01*
X134457947Y-76457947D01*
X128357947Y-82557947D01*
X128161117Y-82852523D01*
X128092000Y-83200000D01*
X128092000Y-87199536D01*
X127976505Y-87314830D01*
X127792210Y-87758660D01*
X127791791Y-88239232D01*
X127975310Y-88683383D01*
X128314830Y-89023495D01*
X128758660Y-89207790D01*
X129239232Y-89208209D01*
X129683383Y-89024690D01*
X130023495Y-88685170D01*
X130207790Y-88241340D01*
X130208209Y-87760768D01*
X130024690Y-87316617D01*
X129908000Y-87199724D01*
X129908000Y-83576106D01*
X131044936Y-82439170D01*
X134372000Y-82439170D01*
X134372000Y-82853000D01*
X134549000Y-83030000D01*
X135780000Y-83030000D01*
X135780000Y-82049000D01*
X136380000Y-82049000D01*
X136380000Y-83030000D01*
X137611000Y-83030000D01*
X137619889Y-83021111D01*
X137624624Y-83030000D01*
X138820000Y-83030000D01*
X138820000Y-82054149D01*
X139420000Y-82054149D01*
X139420000Y-83030000D01*
X140615376Y-83030000D01*
X140732305Y-82810492D01*
X140574770Y-82516486D01*
X140171744Y-82117366D01*
X139646660Y-81902858D01*
X139420000Y-82054149D01*
X138820000Y-82054149D01*
X138593340Y-81902858D01*
X138068256Y-82117366D01*
X137774998Y-82407781D01*
X137680213Y-82178950D01*
X137481050Y-81979787D01*
X137220830Y-81872000D01*
X136557000Y-81872000D01*
X136380000Y-82049000D01*
X135780000Y-82049000D01*
X135603000Y-81872000D01*
X134939170Y-81872000D01*
X134678950Y-81979787D01*
X134479787Y-82178950D01*
X134372000Y-82439170D01*
X131044936Y-82439170D01*
X135476106Y-78008000D01*
X139523894Y-78008000D01*
X141382000Y-79866106D01*
X141382000Y-99673894D01*
X140869894Y-100186000D01*
X140505893Y-100186000D01*
X140434424Y-100079038D01*
X140076677Y-99840000D01*
X140434424Y-99600962D01*
X140750478Y-99127952D01*
X140861462Y-98570000D01*
X140750478Y-98012048D01*
X140434424Y-97539038D01*
X140076677Y-97300000D01*
X140434424Y-97060962D01*
X140750478Y-96587952D01*
X140861462Y-96030000D01*
X140750478Y-95472048D01*
X140434424Y-94999038D01*
X140076677Y-94760000D01*
X140434424Y-94520962D01*
X140750478Y-94047952D01*
X140861462Y-93490000D01*
X140750478Y-92932048D01*
X140434424Y-92459038D01*
X140076677Y-92220000D01*
X140434424Y-91980962D01*
X140750478Y-91507952D01*
X140861462Y-90950000D01*
X140750478Y-90392048D01*
X140434424Y-89919038D01*
X140076677Y-89680000D01*
X140434424Y-89440962D01*
X140750478Y-88967952D01*
X140861462Y-88410000D01*
X140750478Y-87852048D01*
X140434424Y-87379038D01*
X140076677Y-87140000D01*
X140434424Y-86900962D01*
X140750478Y-86427952D01*
X140861462Y-85870000D01*
X140750478Y-85312048D01*
X140434424Y-84839038D01*
X140059468Y-84588501D01*
X140171744Y-84542634D01*
X140574770Y-84143514D01*
X140732305Y-83849508D01*
X140615376Y-83630000D01*
X139420000Y-83630000D01*
X139420000Y-83650000D01*
X138820000Y-83650000D01*
X138820000Y-83630000D01*
X137624624Y-83630000D01*
X137619889Y-83638889D01*
X137611000Y-83630000D01*
X136380000Y-83630000D01*
X136380000Y-83650000D01*
X135780000Y-83650000D01*
X135780000Y-83630000D01*
X134549000Y-83630000D01*
X134372000Y-83807000D01*
X134372000Y-84220830D01*
X134479787Y-84481050D01*
X134678950Y-84680213D01*
X134879161Y-84763143D01*
X134765576Y-84839038D01*
X134449522Y-85312048D01*
X134338538Y-85870000D01*
X134449522Y-86427952D01*
X134765576Y-86900962D01*
X135123323Y-87140000D01*
X134765576Y-87379038D01*
X134449522Y-87852048D01*
X134338538Y-88410000D01*
X134449522Y-88967952D01*
X134765576Y-89440962D01*
X135123323Y-89680000D01*
X134765576Y-89919038D01*
X134449522Y-90392048D01*
X134338538Y-90950000D01*
X134449522Y-91507952D01*
X134765576Y-91980962D01*
X135123323Y-92220000D01*
X134765576Y-92459038D01*
X134449522Y-92932048D01*
X134338538Y-93490000D01*
X134449522Y-94047952D01*
X134765576Y-94520962D01*
X135123323Y-94760000D01*
X134765576Y-94999038D01*
X134703461Y-95092000D01*
X132800464Y-95092000D01*
X132685170Y-94976505D01*
X132241340Y-94792210D01*
X131760768Y-94791791D01*
X131316617Y-94975310D01*
X130976505Y-95314830D01*
X130792210Y-95758660D01*
X130791791Y-96239232D01*
X130975310Y-96683383D01*
X131314830Y-97023495D01*
X131758660Y-97207790D01*
X132239232Y-97208209D01*
X132683383Y-97024690D01*
X132800276Y-96908000D01*
X134663370Y-96908000D01*
X134765576Y-97060962D01*
X135123323Y-97300000D01*
X134765576Y-97539038D01*
X134730188Y-97592000D01*
X131100464Y-97592000D01*
X130985170Y-97476505D01*
X130541340Y-97292210D01*
X130060768Y-97291791D01*
X129616617Y-97475310D01*
X129276505Y-97814830D01*
X129092210Y-98258660D01*
X129091791Y-98739232D01*
X129275310Y-99183383D01*
X129614830Y-99523495D01*
X130058660Y-99707790D01*
X130539232Y-99708209D01*
X130983383Y-99524690D01*
X131100276Y-99408000D01*
X134636643Y-99408000D01*
X134765576Y-99600962D01*
X135123323Y-99840000D01*
X134765576Y-100079038D01*
X134756915Y-100092000D01*
X131100464Y-100092000D01*
X130985170Y-99976505D01*
X130541340Y-99792210D01*
X130060768Y-99791791D01*
X129616617Y-99975310D01*
X129276505Y-100314830D01*
X129092210Y-100758660D01*
X129091791Y-101239232D01*
X129275310Y-101683383D01*
X129614830Y-102023495D01*
X130058660Y-102207790D01*
X130539232Y-102208209D01*
X130983383Y-102024690D01*
X131100276Y-101908000D01*
X131809158Y-101908000D01*
X127858579Y-105858579D01*
X127814700Y-105924741D01*
X127800000Y-106000000D01*
X127800000Y-113961485D01*
X126398000Y-117466485D01*
X126398000Y-94531660D01*
X126497790Y-94291340D01*
X126498209Y-93810768D01*
X126397999Y-93568241D01*
X126397999Y-81678949D01*
X134076948Y-74000000D01*
X177092000Y-74000000D01*
X177092000Y-113460000D01*
X177161117Y-113807477D01*
X177357947Y-114102053D01*
X182771947Y-119516053D01*
X183066523Y-119712883D01*
X183414000Y-119782000D01*
X185472725Y-119782000D01*
X185565576Y-119920962D01*
X185923323Y-120160000D01*
X185565576Y-120399038D01*
X185249522Y-120872048D01*
X185138538Y-121430000D01*
X185249522Y-121987952D01*
X185565576Y-122460962D01*
X185923323Y-122700000D01*
X185565576Y-122939038D01*
X185249522Y-123412048D01*
X185138538Y-123970000D01*
X185249522Y-124527952D01*
X185565576Y-125000962D01*
X185923323Y-125240000D01*
X185565576Y-125479038D01*
X185249522Y-125952048D01*
X185138538Y-126510000D01*
X185249522Y-127067952D01*
X185565576Y-127540962D01*
X185923323Y-127780000D01*
X185565576Y-128019038D01*
X185249522Y-128492048D01*
X185138538Y-129050000D01*
X185249522Y-129607952D01*
X185565576Y-130080962D01*
X185923323Y-130320000D01*
X185565576Y-130559038D01*
X185249522Y-131032048D01*
X185138538Y-131590000D01*
X185249522Y-132147952D01*
X185565576Y-132620962D01*
X185923323Y-132860000D01*
X185565576Y-133099038D01*
X185249522Y-133572048D01*
X185138538Y-134130000D01*
X185249522Y-134687952D01*
X185565576Y-135160962D01*
X185923323Y-135400000D01*
X185565576Y-135639038D01*
X185494107Y-135746000D01*
X184686000Y-135746000D01*
X184338523Y-135815117D01*
X184061827Y-136000000D01*
X184043947Y-136011947D01*
X181857947Y-138197947D01*
X181661117Y-138492523D01*
X181592000Y-138840000D01*
X181592000Y-145510000D01*
X181661117Y-145857477D01*
X181857947Y-146152053D01*
X184347947Y-148642053D01*
X184642523Y-148838883D01*
X184990000Y-148908000D01*
X194500000Y-148908000D01*
X194847477Y-148838883D01*
X195142053Y-148642053D01*
X195892855Y-147891251D01*
X212761936Y-147891251D01*
X212852623Y-148564657D01*
X212935855Y-148765597D01*
X213202156Y-148873579D01*
X214075736Y-147999999D01*
X214924264Y-147999999D01*
X215797844Y-148873579D01*
X216064145Y-148765597D01*
X216238064Y-148108747D01*
X216147377Y-147435341D01*
X216064145Y-147234401D01*
X215797844Y-147126419D01*
X214924264Y-147999999D01*
X214075736Y-147999999D01*
X213202156Y-147126419D01*
X212935855Y-147234401D01*
X212761936Y-147891251D01*
X195892855Y-147891251D01*
X197642053Y-146142053D01*
X197838883Y-145847477D01*
X197908000Y-145500000D01*
X197908000Y-135249232D01*
X198271791Y-135249232D01*
X198455310Y-135693383D01*
X198794830Y-136033495D01*
X199238660Y-136217790D01*
X199403828Y-136217934D01*
X204327946Y-141142052D01*
X204622522Y-141338882D01*
X204969999Y-141407999D01*
X213027120Y-141407999D01*
X213051184Y-141466239D01*
X213334522Y-141750073D01*
X213052872Y-142031231D01*
X212792297Y-142658766D01*
X212791704Y-143338251D01*
X213051184Y-143966239D01*
X213334522Y-144250073D01*
X213052872Y-144531231D01*
X212792297Y-145158766D01*
X212791704Y-145838251D01*
X213051184Y-146466239D01*
X213531232Y-146947127D01*
X214112937Y-147188672D01*
X214500000Y-147575735D01*
X214887992Y-147187743D01*
X215466240Y-146948815D01*
X215947128Y-146468767D01*
X216207703Y-145841232D01*
X216208296Y-145161747D01*
X215948816Y-144533759D01*
X215665478Y-144249925D01*
X215947128Y-143968767D01*
X216207703Y-143341232D01*
X216208296Y-142661747D01*
X215948816Y-142033759D01*
X215665478Y-141749925D01*
X215947128Y-141468767D01*
X216207703Y-140841232D01*
X216208124Y-140358823D01*
X216283473Y-140283474D01*
X219783474Y-136783475D01*
X220023659Y-136424014D01*
X220049977Y-136291704D01*
X220108000Y-136000000D01*
X220108000Y-36500000D01*
X220023659Y-36075987D01*
X220023659Y-36075986D01*
X219783474Y-35716526D01*
X217783474Y-33716526D01*
X217424014Y-33476341D01*
X217000000Y-33392000D01*
X215807304Y-33392000D01*
X215468768Y-33052872D01*
X214841233Y-32792297D01*
X214161748Y-32791704D01*
X213533760Y-33051184D01*
X213192348Y-33392000D01*
X208100000Y-33392000D01*
X208099566Y-33392086D01*
X207760768Y-33391791D01*
X207316617Y-33575310D01*
X206976505Y-33914830D01*
X206792210Y-34358660D01*
X206791791Y-34839232D01*
X206975310Y-35283383D01*
X207314830Y-35623495D01*
X207758660Y-35807790D01*
X208239232Y-35808209D01*
X208683383Y-35624690D01*
X208700102Y-35608000D01*
X213192696Y-35608000D01*
X213334522Y-35750074D01*
X213052872Y-36031232D01*
X212792297Y-36658767D01*
X212791704Y-37338252D01*
X213051184Y-37966240D01*
X213334522Y-38250074D01*
X213052872Y-38531232D01*
X212792297Y-39158767D01*
X212791704Y-39838252D01*
X213051184Y-40466240D01*
X213531232Y-40947128D01*
X214112937Y-41188673D01*
X214500000Y-41575736D01*
X214887992Y-41187744D01*
X215466240Y-40948816D01*
X215947128Y-40468768D01*
X216207703Y-39841233D01*
X216208296Y-39161748D01*
X215948816Y-38533760D01*
X215665478Y-38249926D01*
X215947128Y-37968768D01*
X216207703Y-37341233D01*
X216208296Y-36661748D01*
X215948816Y-36033760D01*
X215665478Y-35749926D01*
X215807652Y-35608000D01*
X216541052Y-35608000D01*
X217892000Y-36958948D01*
X217892000Y-48534857D01*
X215807304Y-48534857D01*
X215468768Y-48195729D01*
X214841233Y-47935154D01*
X214161748Y-47934561D01*
X213533760Y-48194041D01*
X213052872Y-48674089D01*
X212792297Y-49301624D01*
X212791704Y-49981109D01*
X213051184Y-50609097D01*
X213334522Y-50892931D01*
X213052872Y-51174089D01*
X212792297Y-51801624D01*
X212791704Y-52481109D01*
X213051184Y-53109097D01*
X213334522Y-53392931D01*
X213052872Y-53674089D01*
X212792297Y-54301624D01*
X212791704Y-54981109D01*
X213051184Y-55609097D01*
X213531232Y-56089985D01*
X214112937Y-56331530D01*
X214500000Y-56718593D01*
X214887992Y-56330601D01*
X215466240Y-56091673D01*
X215947128Y-55611625D01*
X216207703Y-54984090D01*
X216208296Y-54304605D01*
X215948816Y-53676617D01*
X215665478Y-53392783D01*
X215947128Y-53111625D01*
X216207703Y-52484090D01*
X216208296Y-51804605D01*
X215948816Y-51176617D01*
X215665478Y-50892783D01*
X215807652Y-50750857D01*
X217892000Y-50750857D01*
X217892000Y-63677714D01*
X215807304Y-63677714D01*
X215468768Y-63338586D01*
X214841233Y-63078011D01*
X214161748Y-63077418D01*
X213533760Y-63336898D01*
X213052872Y-63816946D01*
X212792297Y-64444481D01*
X212791704Y-65123966D01*
X213051184Y-65751954D01*
X213334522Y-66035788D01*
X213052872Y-66316946D01*
X212792297Y-66944481D01*
X212791704Y-67623966D01*
X213051184Y-68251954D01*
X213334522Y-68535788D01*
X213052872Y-68816946D01*
X212792297Y-69444481D01*
X212791704Y-70123966D01*
X213051184Y-70751954D01*
X213531232Y-71232842D01*
X214112937Y-71474387D01*
X214500000Y-71861450D01*
X214887992Y-71473458D01*
X215466240Y-71234530D01*
X215947128Y-70754482D01*
X216207703Y-70126947D01*
X216208296Y-69447462D01*
X215948816Y-68819474D01*
X215665478Y-68535640D01*
X215947128Y-68254482D01*
X216207703Y-67626947D01*
X216208296Y-66947462D01*
X215948816Y-66319474D01*
X215665478Y-66035640D01*
X215807652Y-65893714D01*
X217892000Y-65893714D01*
X217892000Y-78820571D01*
X215807304Y-78820571D01*
X215468768Y-78481443D01*
X214841233Y-78220868D01*
X214161748Y-78220275D01*
X213533760Y-78479755D01*
X213052872Y-78959803D01*
X212792297Y-79587338D01*
X212791704Y-80266823D01*
X213051184Y-80894811D01*
X213334522Y-81178645D01*
X213052872Y-81459803D01*
X212792297Y-82087338D01*
X212791704Y-82766823D01*
X213051184Y-83394811D01*
X213334522Y-83678645D01*
X213052872Y-83959803D01*
X212792297Y-84587338D01*
X212791704Y-85266823D01*
X213051184Y-85894811D01*
X213531232Y-86375699D01*
X214112937Y-86617244D01*
X214500000Y-87004307D01*
X214887992Y-86616315D01*
X215466240Y-86377387D01*
X215947128Y-85897339D01*
X216207703Y-85269804D01*
X216208296Y-84590319D01*
X215948816Y-83962331D01*
X215665478Y-83678497D01*
X215947128Y-83397339D01*
X216207703Y-82769804D01*
X216208296Y-82090319D01*
X215948816Y-81462331D01*
X215665478Y-81178497D01*
X215807652Y-81036571D01*
X217892000Y-81036571D01*
X217892000Y-93963428D01*
X215807304Y-93963428D01*
X215468768Y-93624300D01*
X214841233Y-93363725D01*
X214161748Y-93363132D01*
X213533760Y-93622612D01*
X213052872Y-94102660D01*
X212792297Y-94730195D01*
X212791704Y-95409680D01*
X213051184Y-96037668D01*
X213334522Y-96321502D01*
X213052872Y-96602660D01*
X212792297Y-97230195D01*
X212791704Y-97909680D01*
X213051184Y-98537668D01*
X213334522Y-98821502D01*
X213052872Y-99102660D01*
X212792297Y-99730195D01*
X212791704Y-100409680D01*
X213051184Y-101037668D01*
X213531232Y-101518556D01*
X214112937Y-101760101D01*
X214500000Y-102147164D01*
X214887992Y-101759172D01*
X215466240Y-101520244D01*
X215947128Y-101040196D01*
X216207703Y-100412661D01*
X216208296Y-99733176D01*
X215948816Y-99105188D01*
X215665478Y-98821354D01*
X215947128Y-98540196D01*
X216207703Y-97912661D01*
X216208296Y-97233176D01*
X215948816Y-96605188D01*
X215665478Y-96321354D01*
X215807652Y-96179428D01*
X217892000Y-96179428D01*
X217892000Y-109106285D01*
X215807304Y-109106285D01*
X215468768Y-108767157D01*
X214841233Y-108506582D01*
X214161748Y-108505989D01*
X213533760Y-108765469D01*
X213052872Y-109245517D01*
X212792297Y-109873052D01*
X212791704Y-110552537D01*
X213051184Y-111180525D01*
X213334522Y-111464359D01*
X213052872Y-111745517D01*
X212792297Y-112373052D01*
X212791704Y-113052537D01*
X213051184Y-113680525D01*
X213334522Y-113964359D01*
X213052872Y-114245517D01*
X212792297Y-114873052D01*
X212791704Y-115552537D01*
X213051184Y-116180525D01*
X213531232Y-116661413D01*
X214112937Y-116902958D01*
X214500000Y-117290021D01*
X214887992Y-116902029D01*
X215466240Y-116663101D01*
X215947128Y-116183053D01*
X216207703Y-115555518D01*
X216208296Y-114876033D01*
X215948816Y-114248045D01*
X215665478Y-113964211D01*
X215947128Y-113683053D01*
X216207703Y-113055518D01*
X216208296Y-112376033D01*
X215948816Y-111748045D01*
X215665478Y-111464211D01*
X215807652Y-111322285D01*
X217892000Y-111322285D01*
X217892000Y-124249142D01*
X215807304Y-124249142D01*
X215468768Y-123910014D01*
X214841233Y-123649439D01*
X214161748Y-123648846D01*
X213533760Y-123908326D01*
X213052872Y-124388374D01*
X212792297Y-125015909D01*
X212791704Y-125695394D01*
X213051184Y-126323382D01*
X213334522Y-126607216D01*
X213052872Y-126888374D01*
X212792297Y-127515909D01*
X212791704Y-128195394D01*
X213051184Y-128823382D01*
X213334522Y-129107216D01*
X213052872Y-129388374D01*
X212792297Y-130015909D01*
X212791704Y-130695394D01*
X213051184Y-131323382D01*
X213531232Y-131804270D01*
X214112937Y-132045815D01*
X214500000Y-132432878D01*
X214887992Y-132044886D01*
X215466240Y-131805958D01*
X215947128Y-131325910D01*
X216207703Y-130698375D01*
X216208296Y-130018890D01*
X215948816Y-129390902D01*
X215665478Y-129107068D01*
X215947128Y-128825910D01*
X216207703Y-128198375D01*
X216208296Y-127518890D01*
X215948816Y-126890902D01*
X215665478Y-126607068D01*
X215807652Y-126465142D01*
X217892000Y-126465142D01*
X217892000Y-135541052D01*
X214716525Y-138716526D01*
X214640930Y-138792121D01*
X214161748Y-138791703D01*
X213533760Y-139051183D01*
X213052872Y-139531231D01*
X213027639Y-139591999D01*
X205346105Y-139591999D01*
X200688067Y-134933961D01*
X200688209Y-134770768D01*
X200504690Y-134326617D01*
X200333358Y-134154986D01*
X213626420Y-134154986D01*
X213734402Y-134421287D01*
X214391252Y-134595206D01*
X215064658Y-134504519D01*
X215265598Y-134421287D01*
X215373580Y-134154986D01*
X214500000Y-133281406D01*
X213626420Y-134154986D01*
X200333358Y-134154986D01*
X200165170Y-133986505D01*
X199721340Y-133802210D01*
X199240768Y-133801791D01*
X198796617Y-133985310D01*
X198456505Y-134324830D01*
X198272210Y-134768660D01*
X198271791Y-135249232D01*
X197908000Y-135249232D01*
X197908000Y-132748394D01*
X212761936Y-132748394D01*
X212852623Y-133421800D01*
X212935855Y-133622740D01*
X213202156Y-133730722D01*
X214075736Y-132857142D01*
X214924264Y-132857142D01*
X215797844Y-133730722D01*
X216064145Y-133622740D01*
X216238064Y-132965890D01*
X216147377Y-132292484D01*
X216064145Y-132091544D01*
X215797844Y-131983562D01*
X214924264Y-132857142D01*
X214075736Y-132857142D01*
X213202156Y-131983562D01*
X212935855Y-132091544D01*
X212761936Y-132748394D01*
X197908000Y-132748394D01*
X197908000Y-127170000D01*
X197838883Y-126822523D01*
X197642053Y-126527947D01*
X196208067Y-125093961D01*
X196208209Y-124930768D01*
X196024690Y-124486617D01*
X195685170Y-124146505D01*
X195241340Y-123962210D01*
X194760768Y-123961791D01*
X194316617Y-124145310D01*
X193976505Y-124484830D01*
X193792210Y-124928660D01*
X193791791Y-125409232D01*
X193975310Y-125853383D01*
X194314830Y-126193495D01*
X194758660Y-126377790D01*
X194923828Y-126377934D01*
X196092000Y-127546106D01*
X196092000Y-145123894D01*
X194123894Y-147092000D01*
X185366106Y-147092000D01*
X183408000Y-145133894D01*
X183408000Y-144809508D01*
X185267695Y-144809508D01*
X185425230Y-145103514D01*
X185828256Y-145502634D01*
X186353340Y-145717142D01*
X186580000Y-145565851D01*
X186580000Y-144590000D01*
X187180000Y-144590000D01*
X187180000Y-145565851D01*
X187406660Y-145717142D01*
X187931744Y-145502634D01*
X188334770Y-145103514D01*
X188400000Y-144981776D01*
X188465230Y-145103514D01*
X188868256Y-145502634D01*
X189393340Y-145717142D01*
X189620000Y-145565851D01*
X189620000Y-144590000D01*
X190220000Y-144590000D01*
X190220000Y-145565851D01*
X190446660Y-145717142D01*
X190971744Y-145502634D01*
X191374770Y-145103514D01*
X191532305Y-144809508D01*
X191415376Y-144590000D01*
X190220000Y-144590000D01*
X189620000Y-144590000D01*
X188424624Y-144590000D01*
X188400000Y-144636226D01*
X188375376Y-144590000D01*
X187180000Y-144590000D01*
X186580000Y-144590000D01*
X185384624Y-144590000D01*
X185267695Y-144809508D01*
X183408000Y-144809508D01*
X183408000Y-139216106D01*
X185062106Y-137562000D01*
X185472725Y-137562000D01*
X185565576Y-137700962D01*
X185923323Y-137940000D01*
X185565576Y-138179038D01*
X185249522Y-138652048D01*
X185138538Y-139210000D01*
X185249522Y-139767952D01*
X185565576Y-140240962D01*
X185923323Y-140480000D01*
X185565576Y-140719038D01*
X185249522Y-141192048D01*
X185138538Y-141750000D01*
X185249522Y-142307952D01*
X185565576Y-142780962D01*
X185940532Y-143031499D01*
X185828256Y-143077366D01*
X185425230Y-143476486D01*
X185267695Y-143770492D01*
X185384624Y-143990000D01*
X186580000Y-143990000D01*
X186580000Y-143970000D01*
X187180000Y-143970000D01*
X187180000Y-143990000D01*
X188375376Y-143990000D01*
X188400000Y-143943774D01*
X188424624Y-143990000D01*
X189620000Y-143990000D01*
X189620000Y-143970000D01*
X190220000Y-143970000D01*
X190220000Y-143990000D01*
X191415376Y-143990000D01*
X191532305Y-143770492D01*
X191374770Y-143476486D01*
X190971744Y-143077366D01*
X190859468Y-143031499D01*
X191234424Y-142780962D01*
X191550478Y-142307952D01*
X191661462Y-141750000D01*
X191550478Y-141192048D01*
X191234424Y-140719038D01*
X190876677Y-140480000D01*
X191234424Y-140240962D01*
X191327275Y-140102000D01*
X192093529Y-140102000D01*
X192204830Y-140213495D01*
X192648660Y-140397790D01*
X193129232Y-140398209D01*
X193573383Y-140214690D01*
X193913495Y-139875170D01*
X194097790Y-139431340D01*
X194098209Y-138950768D01*
X193914690Y-138506617D01*
X193575170Y-138166505D01*
X193131340Y-137982210D01*
X192650768Y-137981791D01*
X192206617Y-138165310D01*
X192085717Y-138286000D01*
X191305893Y-138286000D01*
X191234424Y-138179038D01*
X190876677Y-137940000D01*
X191234424Y-137700962D01*
X191550478Y-137227952D01*
X191661462Y-136670000D01*
X191550478Y-136112048D01*
X191234424Y-135639038D01*
X190876677Y-135400000D01*
X191234424Y-135160962D01*
X191550478Y-134687952D01*
X191661462Y-134130000D01*
X191550478Y-133572048D01*
X191234424Y-133099038D01*
X190876677Y-132860000D01*
X191234424Y-132620962D01*
X191550478Y-132147952D01*
X191661462Y-131590000D01*
X191550478Y-131032048D01*
X191234424Y-130559038D01*
X190876677Y-130320000D01*
X191234424Y-130080962D01*
X191550478Y-129607952D01*
X191661462Y-129050000D01*
X191550478Y-128492048D01*
X191234424Y-128019038D01*
X190876677Y-127780000D01*
X191234424Y-127540962D01*
X191550478Y-127067952D01*
X191661462Y-126510000D01*
X191550478Y-125952048D01*
X191234424Y-125479038D01*
X190876677Y-125240000D01*
X191234424Y-125000962D01*
X191550478Y-124527952D01*
X191661462Y-123970000D01*
X191550478Y-123412048D01*
X191234424Y-122939038D01*
X190876677Y-122700000D01*
X191234424Y-122460962D01*
X191550478Y-121987952D01*
X191661462Y-121430000D01*
X191550478Y-120872048D01*
X191234424Y-120399038D01*
X190876677Y-120160000D01*
X191234424Y-119920962D01*
X191327275Y-119782000D01*
X196026000Y-119782000D01*
X196373477Y-119712883D01*
X196668053Y-119516053D01*
X197171977Y-119012129D01*
X213626420Y-119012129D01*
X213734402Y-119278430D01*
X214391252Y-119452349D01*
X215064658Y-119361662D01*
X215265598Y-119278430D01*
X215373580Y-119012129D01*
X214500000Y-118138549D01*
X213626420Y-119012129D01*
X197171977Y-119012129D01*
X198578569Y-117605537D01*
X212761936Y-117605537D01*
X212852623Y-118278943D01*
X212935855Y-118479883D01*
X213202156Y-118587865D01*
X214075736Y-117714285D01*
X214924264Y-117714285D01*
X215797844Y-118587865D01*
X216064145Y-118479883D01*
X216238064Y-117823033D01*
X216147377Y-117149627D01*
X216064145Y-116948687D01*
X215797844Y-116840705D01*
X214924264Y-117714285D01*
X214075736Y-117714285D01*
X213202156Y-116840705D01*
X212935855Y-116948687D01*
X212761936Y-117605537D01*
X198578569Y-117605537D01*
X206642053Y-109542053D01*
X206838883Y-109247477D01*
X206908000Y-108900000D01*
X206908000Y-103869272D01*
X213626420Y-103869272D01*
X213734402Y-104135573D01*
X214391252Y-104309492D01*
X215064658Y-104218805D01*
X215265598Y-104135573D01*
X215373580Y-103869272D01*
X214500000Y-102995692D01*
X213626420Y-103869272D01*
X206908000Y-103869272D01*
X206908000Y-102462680D01*
X212761936Y-102462680D01*
X212852623Y-103136086D01*
X212935855Y-103337026D01*
X213202156Y-103445008D01*
X214075736Y-102571428D01*
X214924264Y-102571428D01*
X215797844Y-103445008D01*
X216064145Y-103337026D01*
X216238064Y-102680176D01*
X216147377Y-102006770D01*
X216064145Y-101805830D01*
X215797844Y-101697848D01*
X214924264Y-102571428D01*
X214075736Y-102571428D01*
X213202156Y-101697848D01*
X212935855Y-101805830D01*
X212761936Y-102462680D01*
X206908000Y-102462680D01*
X206908000Y-88726415D01*
X213626420Y-88726415D01*
X213734402Y-88992716D01*
X214391252Y-89166635D01*
X215064658Y-89075948D01*
X215265598Y-88992716D01*
X215373580Y-88726415D01*
X214500000Y-87852835D01*
X213626420Y-88726415D01*
X206908000Y-88726415D01*
X206908000Y-87319823D01*
X212761936Y-87319823D01*
X212852623Y-87993229D01*
X212935855Y-88194169D01*
X213202156Y-88302151D01*
X214075736Y-87428571D01*
X214924264Y-87428571D01*
X215797844Y-88302151D01*
X216064145Y-88194169D01*
X216238064Y-87537319D01*
X216147377Y-86863913D01*
X216064145Y-86662973D01*
X215797844Y-86554991D01*
X214924264Y-87428571D01*
X214075736Y-87428571D01*
X213202156Y-86554991D01*
X212935855Y-86662973D01*
X212761936Y-87319823D01*
X206908000Y-87319823D01*
X206908000Y-73583558D01*
X213626420Y-73583558D01*
X213734402Y-73849859D01*
X214391252Y-74023778D01*
X215064658Y-73933091D01*
X215265598Y-73849859D01*
X215373580Y-73583558D01*
X214500000Y-72709978D01*
X213626420Y-73583558D01*
X206908000Y-73583558D01*
X206908000Y-72176966D01*
X212761936Y-72176966D01*
X212852623Y-72850372D01*
X212935855Y-73051312D01*
X213202156Y-73159294D01*
X214075736Y-72285714D01*
X214924264Y-72285714D01*
X215797844Y-73159294D01*
X216064145Y-73051312D01*
X216238064Y-72394462D01*
X216147377Y-71721056D01*
X216064145Y-71520116D01*
X215797844Y-71412134D01*
X214924264Y-72285714D01*
X214075736Y-72285714D01*
X213202156Y-71412134D01*
X212935855Y-71520116D01*
X212761936Y-72176966D01*
X206908000Y-72176966D01*
X206908000Y-58440701D01*
X213626420Y-58440701D01*
X213734402Y-58707002D01*
X214391252Y-58880921D01*
X215064658Y-58790234D01*
X215265598Y-58707002D01*
X215373580Y-58440701D01*
X214500000Y-57567121D01*
X213626420Y-58440701D01*
X206908000Y-58440701D01*
X206908000Y-58000000D01*
X206838883Y-57652523D01*
X206642053Y-57357947D01*
X206318215Y-57034109D01*
X212761936Y-57034109D01*
X212852623Y-57707515D01*
X212935855Y-57908455D01*
X213202156Y-58016437D01*
X214075736Y-57142857D01*
X214924264Y-57142857D01*
X215797844Y-58016437D01*
X216064145Y-57908455D01*
X216238064Y-57251605D01*
X216147377Y-56578199D01*
X216064145Y-56377259D01*
X215797844Y-56269277D01*
X214924264Y-57142857D01*
X214075736Y-57142857D01*
X213202156Y-56269277D01*
X212935855Y-56377259D01*
X212761936Y-57034109D01*
X206318215Y-57034109D01*
X204592053Y-55307947D01*
X204297477Y-55111117D01*
X203950000Y-55042000D01*
X202762880Y-55042000D01*
X202738816Y-54983760D01*
X202455478Y-54699926D01*
X202737128Y-54418768D01*
X202997703Y-53791233D01*
X202998296Y-53111748D01*
X202738816Y-52483760D01*
X202258768Y-52002872D01*
X201677063Y-51761327D01*
X201290000Y-51374264D01*
X200902008Y-51762256D01*
X200323760Y-52001184D01*
X199842872Y-52481232D01*
X199817639Y-52542000D01*
X198550000Y-52542000D01*
X198202523Y-52611117D01*
X197981710Y-52758660D01*
X197907947Y-52807947D01*
X177357947Y-73357947D01*
X177161117Y-73652523D01*
X177092000Y-74000000D01*
X134076948Y-74000000D01*
X145208949Y-62868000D01*
X153940000Y-62868000D01*
X154364014Y-62783659D01*
X154723474Y-62543474D01*
X161357440Y-55909508D01*
X187957695Y-55909508D01*
X188165691Y-56290457D01*
X188598148Y-56663649D01*
X189140500Y-56842939D01*
X189370000Y-56676131D01*
X189370000Y-55690000D01*
X189970000Y-55690000D01*
X189970000Y-56676131D01*
X190199500Y-56842939D01*
X190741852Y-56663649D01*
X191174309Y-56290457D01*
X191382305Y-55909508D01*
X191265376Y-55690000D01*
X189970000Y-55690000D01*
X189370000Y-55690000D01*
X188074624Y-55690000D01*
X187957695Y-55909508D01*
X161357440Y-55909508D01*
X163939948Y-53327000D01*
X187862000Y-53327000D01*
X187862000Y-53740830D01*
X187969787Y-54001050D01*
X188168950Y-54200213D01*
X188393287Y-54293137D01*
X188165691Y-54489543D01*
X187957695Y-54870492D01*
X188074624Y-55090000D01*
X189370000Y-55090000D01*
X189370000Y-53150000D01*
X189970000Y-53150000D01*
X189970000Y-55090000D01*
X191265376Y-55090000D01*
X191382305Y-54870492D01*
X191174309Y-54489543D01*
X190946713Y-54293137D01*
X191171050Y-54200213D01*
X191370213Y-54001050D01*
X191478000Y-53740830D01*
X191478000Y-53327000D01*
X191301000Y-53150000D01*
X189970000Y-53150000D01*
X189370000Y-53150000D01*
X188039000Y-53150000D01*
X187862000Y-53327000D01*
X163939948Y-53327000D01*
X165307778Y-51959170D01*
X187862000Y-51959170D01*
X187862000Y-52373000D01*
X188039000Y-52550000D01*
X189370000Y-52550000D01*
X189370000Y-51569000D01*
X189970000Y-51569000D01*
X189970000Y-52550000D01*
X191301000Y-52550000D01*
X191478000Y-52373000D01*
X191478000Y-51959170D01*
X191370213Y-51698950D01*
X191171050Y-51499787D01*
X190910830Y-51392000D01*
X190147000Y-51392000D01*
X189970000Y-51569000D01*
X189370000Y-51569000D01*
X189193000Y-51392000D01*
X188429170Y-51392000D01*
X188168950Y-51499787D01*
X187969787Y-51698950D01*
X187862000Y-51959170D01*
X165307778Y-51959170D01*
X166425696Y-50841252D01*
X199551936Y-50841252D01*
X199642623Y-51514658D01*
X199725855Y-51715598D01*
X199992156Y-51823580D01*
X200865736Y-50950000D01*
X201714264Y-50950000D01*
X202587844Y-51823580D01*
X202854145Y-51715598D01*
X203028064Y-51058748D01*
X202937377Y-50385342D01*
X202854145Y-50184402D01*
X202587844Y-50076420D01*
X201714264Y-50950000D01*
X200865736Y-50950000D01*
X199992156Y-50076420D01*
X199725855Y-50184402D01*
X199551936Y-50841252D01*
X166425696Y-50841252D01*
X167073474Y-50193475D01*
X167313658Y-49834014D01*
X167313659Y-49834013D01*
X167349832Y-49652156D01*
X200416420Y-49652156D01*
X201290000Y-50525736D01*
X202163580Y-49652156D01*
X202055598Y-49385855D01*
X201398748Y-49211936D01*
X200725342Y-49302623D01*
X200524402Y-49385855D01*
X200416420Y-49652156D01*
X167349832Y-49652156D01*
X167398000Y-49410000D01*
X167398000Y-44531660D01*
X167497790Y-44291340D01*
X167498209Y-43810768D01*
X167314690Y-43366617D01*
X166975170Y-43026505D01*
X166531340Y-42842210D01*
X166050768Y-42841791D01*
X165606617Y-43025310D01*
X165266505Y-43364830D01*
X165082210Y-43808660D01*
X165081791Y-44289232D01*
X165182000Y-44531757D01*
X165182000Y-48951051D01*
X153481052Y-60652000D01*
X144750000Y-60652000D01*
X144325987Y-60736341D01*
X144206710Y-60816040D01*
X143966525Y-60976526D01*
X124506525Y-80436527D01*
X124266340Y-80795987D01*
X124266340Y-80795988D01*
X124181999Y-81220001D01*
X124181999Y-93568342D01*
X124082210Y-93808660D01*
X124081791Y-94289232D01*
X124182000Y-94531757D01*
X124182000Y-118568340D01*
X124085806Y-118800000D01*
X120108000Y-118800000D01*
X120108000Y-62481660D01*
X120207790Y-62241340D01*
X120208209Y-61760768D01*
X120108000Y-61518243D01*
X120108000Y-55909508D01*
X134617695Y-55909508D01*
X134825691Y-56290457D01*
X135258148Y-56663649D01*
X135800500Y-56842939D01*
X136030000Y-56676131D01*
X136030000Y-55690000D01*
X136630000Y-55690000D01*
X136630000Y-56676131D01*
X136859500Y-56842939D01*
X137401852Y-56663649D01*
X137834309Y-56290457D01*
X138042305Y-55909508D01*
X137925376Y-55690000D01*
X136630000Y-55690000D01*
X136030000Y-55690000D01*
X134734624Y-55690000D01*
X134617695Y-55909508D01*
X120108000Y-55909508D01*
X120108000Y-53481660D01*
X120172220Y-53327000D01*
X134522000Y-53327000D01*
X134522000Y-53740830D01*
X134629787Y-54001050D01*
X134828950Y-54200213D01*
X135053287Y-54293137D01*
X134825691Y-54489543D01*
X134617695Y-54870492D01*
X134734624Y-55090000D01*
X136030000Y-55090000D01*
X136030000Y-53150000D01*
X136630000Y-53150000D01*
X136630000Y-55090000D01*
X137925376Y-55090000D01*
X138042305Y-54870492D01*
X137834309Y-54489543D01*
X137606713Y-54293137D01*
X137831050Y-54200213D01*
X138030213Y-54001050D01*
X138138000Y-53740830D01*
X138138000Y-53327000D01*
X137961000Y-53150000D01*
X136630000Y-53150000D01*
X136030000Y-53150000D01*
X134699000Y-53150000D01*
X134522000Y-53327000D01*
X120172220Y-53327000D01*
X120207790Y-53241340D01*
X120208209Y-52760768D01*
X120024690Y-52316617D01*
X119685170Y-51976505D01*
X119643423Y-51959170D01*
X134522000Y-51959170D01*
X134522000Y-52373000D01*
X134699000Y-52550000D01*
X136030000Y-52550000D01*
X136030000Y-51569000D01*
X136630000Y-51569000D01*
X136630000Y-52550000D01*
X137961000Y-52550000D01*
X138138000Y-52373000D01*
X138138000Y-51959170D01*
X138030213Y-51698950D01*
X137831050Y-51499787D01*
X137570830Y-51392000D01*
X136807000Y-51392000D01*
X136630000Y-51569000D01*
X136030000Y-51569000D01*
X135853000Y-51392000D01*
X135089170Y-51392000D01*
X134828950Y-51499787D01*
X134629787Y-51698950D01*
X134522000Y-51959170D01*
X119643423Y-51959170D01*
X119241340Y-51792210D01*
X118760768Y-51791791D01*
X118316617Y-51975310D01*
X117976505Y-52314830D01*
X117792210Y-52758660D01*
X117791791Y-53239232D01*
X117892000Y-53481757D01*
X117892000Y-61518340D01*
X117792210Y-61758660D01*
X117791791Y-62239232D01*
X117892000Y-62481757D01*
X117892000Y-118800000D01*
X106200000Y-118800000D01*
X106200000Y-100770971D01*
X106339121Y-101107669D01*
X106889434Y-101658943D01*
X107608821Y-101957659D01*
X108387761Y-101958339D01*
X109107669Y-101660879D01*
X109658943Y-101110566D01*
X109957659Y-100391179D01*
X109958339Y-99612239D01*
X109660879Y-98892331D01*
X109110566Y-98341057D01*
X108391179Y-98042341D01*
X107612239Y-98041661D01*
X106892331Y-98339121D01*
X106341057Y-98889434D01*
X106200000Y-99229137D01*
X106200000Y-71770971D01*
X106339121Y-72107669D01*
X106889434Y-72658943D01*
X107608821Y-72957659D01*
X108387761Y-72958339D01*
X109107669Y-72660879D01*
X109658943Y-72110566D01*
X109957659Y-71391179D01*
X109958339Y-70612239D01*
X109660879Y-69892331D01*
X109110566Y-69341057D01*
X108391179Y-69042341D01*
X107612239Y-69041661D01*
X106892331Y-69339121D01*
X106341057Y-69889434D01*
X106200000Y-70229137D01*
X106200000Y-49789232D01*
X109081791Y-49789232D01*
X109265310Y-50233383D01*
X109604830Y-50573495D01*
X110048660Y-50757790D01*
X110529232Y-50758209D01*
X110771757Y-50658000D01*
X143258954Y-50658000D01*
X143265310Y-50673383D01*
X143604830Y-51013495D01*
X144048660Y-51197790D01*
X144529232Y-51198209D01*
X144973383Y-51014690D01*
X145313495Y-50675170D01*
X145497790Y-50231340D01*
X145498209Y-49750768D01*
X145314690Y-49306617D01*
X144975170Y-48966505D01*
X144732820Y-48865872D01*
X144633474Y-48766526D01*
X144274014Y-48526341D01*
X143850000Y-48442000D01*
X110771660Y-48442000D01*
X110531340Y-48342210D01*
X110050768Y-48341791D01*
X109606617Y-48525310D01*
X109266505Y-48864830D01*
X109082210Y-49308660D01*
X109081791Y-49789232D01*
X106200000Y-49789232D01*
X106200000Y-36050000D01*
X115182000Y-36050000D01*
X115182000Y-43790000D01*
X115266341Y-44214014D01*
X115506526Y-44573474D01*
X116875940Y-45942888D01*
X116975310Y-46183383D01*
X117314830Y-46523495D01*
X117758660Y-46707790D01*
X118239232Y-46708209D01*
X118683383Y-46524690D01*
X119023495Y-46185170D01*
X119207790Y-45741340D01*
X119208209Y-45260768D01*
X119024690Y-44816617D01*
X118685170Y-44476505D01*
X118442820Y-44375872D01*
X117398000Y-43331052D01*
X117398000Y-36508948D01*
X123598948Y-30308000D01*
X159841052Y-30308000D01*
X176366526Y-46833475D01*
X176725987Y-47073659D01*
X177150000Y-47158000D01*
X191808340Y-47158000D01*
X192048660Y-47257790D01*
X192529232Y-47258209D01*
X192973383Y-47074690D01*
X193313495Y-46735170D01*
X193497790Y-46291340D01*
X193498209Y-45810768D01*
X193314690Y-45366617D01*
X192975170Y-45026505D01*
X192531340Y-44842210D01*
X192050768Y-44841791D01*
X191808243Y-44942000D01*
X177608949Y-44942000D01*
X175964793Y-43297844D01*
X213626420Y-43297844D01*
X213734402Y-43564145D01*
X214391252Y-43738064D01*
X215064658Y-43647377D01*
X215265598Y-43564145D01*
X215373580Y-43297844D01*
X214500000Y-42424264D01*
X213626420Y-43297844D01*
X175964793Y-43297844D01*
X174558201Y-41891252D01*
X212761936Y-41891252D01*
X212852623Y-42564658D01*
X212935855Y-42765598D01*
X213202156Y-42873580D01*
X214075736Y-42000000D01*
X214924264Y-42000000D01*
X215797844Y-42873580D01*
X216064145Y-42765598D01*
X216238064Y-42108748D01*
X216147377Y-41435342D01*
X216064145Y-41234402D01*
X215797844Y-41126420D01*
X214924264Y-42000000D01*
X214075736Y-42000000D01*
X213202156Y-41126420D01*
X212935855Y-41234402D01*
X212761936Y-41891252D01*
X174558201Y-41891252D01*
X161083474Y-28416526D01*
X160724014Y-28176341D01*
X160300000Y-28092000D01*
X123140000Y-28092000D01*
X122715986Y-28176341D01*
X122356526Y-28416526D01*
X115506526Y-35266526D01*
X115266341Y-35625986D01*
X115266341Y-35625987D01*
X115182000Y-36050000D01*
X106200000Y-36050000D01*
X106200000Y-35000000D01*
X106184243Y-34922189D01*
X106139454Y-34856638D01*
X106072691Y-34813678D01*
X106000000Y-34800000D01*
X104000000Y-34800000D01*
X103922189Y-34815757D01*
X103856638Y-34860546D01*
X103813678Y-34927309D01*
X103800000Y-35000000D01*
X103800000Y-118800000D01*
X67783000Y-118800000D01*
X67783000Y-112338252D01*
X72791704Y-112338252D01*
X73051184Y-112966240D01*
X73334522Y-113250074D01*
X73052872Y-113531232D01*
X72792297Y-114158767D01*
X72791704Y-114838252D01*
X73051184Y-115466240D01*
X73531232Y-115947128D01*
X74158767Y-116207703D01*
X74838252Y-116208296D01*
X75466240Y-115948816D01*
X75947128Y-115468768D01*
X76207703Y-114841233D01*
X76208296Y-114161748D01*
X75948816Y-113533760D01*
X75857062Y-113441845D01*
X82172000Y-113441845D01*
X82172000Y-113538155D01*
X82359104Y-114478791D01*
X82891932Y-115276223D01*
X83689364Y-115809051D01*
X84630000Y-115996155D01*
X85570636Y-115809051D01*
X86368068Y-115276223D01*
X86465771Y-115130000D01*
X99668130Y-115130000D01*
X99668130Y-116930000D01*
X99717498Y-117192369D01*
X99872558Y-117433339D01*
X100109152Y-117594997D01*
X100390000Y-117651870D01*
X102190000Y-117651870D01*
X102452369Y-117602502D01*
X102693339Y-117447442D01*
X102854997Y-117210848D01*
X102911870Y-116930000D01*
X102911870Y-115130000D01*
X102862502Y-114867631D01*
X102707442Y-114626661D01*
X102529542Y-114505107D01*
X102775598Y-114136858D01*
X102898000Y-113521503D01*
X102898000Y-113458497D01*
X102775598Y-112843142D01*
X102427028Y-112321469D01*
X102275169Y-112220000D01*
X102427028Y-112118531D01*
X102775598Y-111596858D01*
X102898000Y-110981503D01*
X102898000Y-110918497D01*
X102775598Y-110303142D01*
X102427028Y-109781469D01*
X101905355Y-109432899D01*
X101290000Y-109310497D01*
X100674645Y-109432899D01*
X100152972Y-109781469D01*
X99804402Y-110303142D01*
X99682000Y-110918497D01*
X99682000Y-110981503D01*
X99804402Y-111596858D01*
X100152972Y-112118531D01*
X100304831Y-112220000D01*
X100152972Y-112321469D01*
X99804402Y-112843142D01*
X99682000Y-113458497D01*
X99682000Y-113521503D01*
X99804402Y-114136858D01*
X100051416Y-114506541D01*
X99886661Y-114612558D01*
X99725003Y-114849152D01*
X99668130Y-115130000D01*
X86465771Y-115130000D01*
X86900896Y-114478791D01*
X87088000Y-113538155D01*
X87088000Y-113441845D01*
X86900896Y-112501209D01*
X86368068Y-111703777D01*
X85570636Y-111170949D01*
X84630000Y-110983845D01*
X83689364Y-111170949D01*
X82891932Y-111703777D01*
X82359104Y-112501209D01*
X82172000Y-113441845D01*
X75857062Y-113441845D01*
X75665478Y-113249926D01*
X75947128Y-112968768D01*
X76207703Y-112341233D01*
X76208296Y-111661748D01*
X75948816Y-111033760D01*
X75468768Y-110552872D01*
X74841233Y-110292297D01*
X74161748Y-110291704D01*
X73533760Y-110551184D01*
X73052872Y-111031232D01*
X72792297Y-111658767D01*
X72791704Y-112338252D01*
X67783000Y-112338252D01*
X67783000Y-101481003D01*
X74943261Y-101481003D01*
X75082600Y-101773083D01*
X75830962Y-101989189D01*
X76605059Y-101902459D01*
X76917400Y-101773083D01*
X77056739Y-101481003D01*
X76000000Y-100424264D01*
X74943261Y-101481003D01*
X67783000Y-101481003D01*
X67783000Y-99830962D01*
X74010811Y-99830962D01*
X74097541Y-100605059D01*
X74226917Y-100917400D01*
X74518997Y-101056739D01*
X75575736Y-100000000D01*
X76424264Y-100000000D01*
X77481003Y-101056739D01*
X77773083Y-100917400D01*
X77989189Y-100169038D01*
X77902459Y-99394941D01*
X77773083Y-99082600D01*
X77481003Y-98943261D01*
X76424264Y-100000000D01*
X75575736Y-100000000D01*
X74518997Y-98943261D01*
X74226917Y-99082600D01*
X74010811Y-99830962D01*
X67783000Y-99830962D01*
X67783000Y-98518997D01*
X74943261Y-98518997D01*
X76000000Y-99575736D01*
X77056739Y-98518997D01*
X76917400Y-98226917D01*
X76169038Y-98010811D01*
X75394941Y-98097541D01*
X75082600Y-98226917D01*
X74943261Y-98518997D01*
X67783000Y-98518997D01*
X67783000Y-83838252D01*
X72791704Y-83838252D01*
X73051184Y-84466240D01*
X73334522Y-84750074D01*
X73052872Y-85031232D01*
X72792297Y-85658767D01*
X72791704Y-86338252D01*
X73051184Y-86966240D01*
X73531232Y-87447128D01*
X74158767Y-87707703D01*
X74838252Y-87708296D01*
X75466240Y-87448816D01*
X75947128Y-86968768D01*
X76207703Y-86341233D01*
X76208296Y-85661748D01*
X76167017Y-85561845D01*
X82162000Y-85561845D01*
X82162000Y-85658155D01*
X82349104Y-86598791D01*
X82881932Y-87396223D01*
X83679364Y-87929051D01*
X84620000Y-88116155D01*
X85560636Y-87929051D01*
X86358068Y-87396223D01*
X86455771Y-87250000D01*
X99658130Y-87250000D01*
X99658130Y-89050000D01*
X99707498Y-89312369D01*
X99862558Y-89553339D01*
X100099152Y-89714997D01*
X100380000Y-89771870D01*
X102180000Y-89771870D01*
X102442369Y-89722502D01*
X102683339Y-89567442D01*
X102844997Y-89330848D01*
X102901870Y-89050000D01*
X102901870Y-87250000D01*
X102852502Y-86987631D01*
X102697442Y-86746661D01*
X102519542Y-86625107D01*
X102765598Y-86256858D01*
X102888000Y-85641503D01*
X102888000Y-85578497D01*
X102765598Y-84963142D01*
X102417028Y-84441469D01*
X102265169Y-84340000D01*
X102417028Y-84238531D01*
X102765598Y-83716858D01*
X102888000Y-83101503D01*
X102888000Y-83038497D01*
X102765598Y-82423142D01*
X102417028Y-81901469D01*
X101895355Y-81552899D01*
X101280000Y-81430497D01*
X100664645Y-81552899D01*
X100142972Y-81901469D01*
X99794402Y-82423142D01*
X99672000Y-83038497D01*
X99672000Y-83101503D01*
X99794402Y-83716858D01*
X100142972Y-84238531D01*
X100294831Y-84340000D01*
X100142972Y-84441469D01*
X99794402Y-84963142D01*
X99672000Y-85578497D01*
X99672000Y-85641503D01*
X99794402Y-86256858D01*
X100041416Y-86626541D01*
X99876661Y-86732558D01*
X99715003Y-86969152D01*
X99658130Y-87250000D01*
X86455771Y-87250000D01*
X86890896Y-86598791D01*
X87078000Y-85658155D01*
X87078000Y-85561845D01*
X86890896Y-84621209D01*
X86358068Y-83823777D01*
X85560636Y-83290949D01*
X84620000Y-83103845D01*
X83679364Y-83290949D01*
X82881932Y-83823777D01*
X82349104Y-84621209D01*
X82162000Y-85561845D01*
X76167017Y-85561845D01*
X75948816Y-85033760D01*
X75665478Y-84749926D01*
X75947128Y-84468768D01*
X76207703Y-83841233D01*
X76208296Y-83161748D01*
X75948816Y-82533760D01*
X75468768Y-82052872D01*
X74841233Y-81792297D01*
X74161748Y-81791704D01*
X73533760Y-82051184D01*
X73052872Y-82531232D01*
X72792297Y-83158767D01*
X72791704Y-83838252D01*
X67783000Y-83838252D01*
X67783000Y-72481003D01*
X74943261Y-72481003D01*
X75082600Y-72773083D01*
X75830962Y-72989189D01*
X76605059Y-72902459D01*
X76917400Y-72773083D01*
X77056739Y-72481003D01*
X76000000Y-71424264D01*
X74943261Y-72481003D01*
X67783000Y-72481003D01*
X67783000Y-70830962D01*
X74010811Y-70830962D01*
X74097541Y-71605059D01*
X74226917Y-71917400D01*
X74518997Y-72056739D01*
X75575736Y-71000000D01*
X76424264Y-71000000D01*
X77481003Y-72056739D01*
X77773083Y-71917400D01*
X77989189Y-71169038D01*
X77902459Y-70394941D01*
X77773083Y-70082600D01*
X77481003Y-69943261D01*
X76424264Y-71000000D01*
X75575736Y-71000000D01*
X74518997Y-69943261D01*
X74226917Y-70082600D01*
X74010811Y-70830962D01*
X67783000Y-70830962D01*
X67783000Y-69518997D01*
X74943261Y-69518997D01*
X76000000Y-70575736D01*
X77056739Y-69518997D01*
X76917400Y-69226917D01*
X76169038Y-69010811D01*
X75394941Y-69097541D01*
X75082600Y-69226917D01*
X74943261Y-69518997D01*
X67783000Y-69518997D01*
X67783000Y-55338252D01*
X72791704Y-55338252D01*
X73051184Y-55966240D01*
X73334522Y-56250074D01*
X73052872Y-56531232D01*
X72792297Y-57158767D01*
X72791704Y-57838252D01*
X73051184Y-58466240D01*
X73531232Y-58947128D01*
X74158767Y-59207703D01*
X74838252Y-59208296D01*
X75466240Y-58948816D01*
X75947128Y-58468768D01*
X76207703Y-57841233D01*
X76208296Y-57161748D01*
X75948816Y-56533760D01*
X75741265Y-56325845D01*
X81742000Y-56325845D01*
X81742000Y-56422155D01*
X81929104Y-57362791D01*
X82461932Y-58160223D01*
X83259364Y-58693051D01*
X84200000Y-58880155D01*
X85140636Y-58693051D01*
X85938068Y-58160223D01*
X86035771Y-58014000D01*
X99238130Y-58014000D01*
X99238130Y-59814000D01*
X99287498Y-60076369D01*
X99442558Y-60317339D01*
X99679152Y-60478997D01*
X99960000Y-60535870D01*
X101760000Y-60535870D01*
X102022369Y-60486502D01*
X102263339Y-60331442D01*
X102424997Y-60094848D01*
X102481870Y-59814000D01*
X102481870Y-58014000D01*
X102432502Y-57751631D01*
X102277442Y-57510661D01*
X102099542Y-57389107D01*
X102345598Y-57020858D01*
X102468000Y-56405503D01*
X102468000Y-56342497D01*
X102345598Y-55727142D01*
X101997028Y-55205469D01*
X101818864Y-55086424D01*
X102050241Y-54915229D01*
X102373408Y-54377440D01*
X102262788Y-54134000D01*
X101160000Y-54134000D01*
X101160000Y-54154000D01*
X100560000Y-54154000D01*
X100560000Y-54134000D01*
X99457212Y-54134000D01*
X99346592Y-54377440D01*
X99669759Y-54915229D01*
X99901136Y-55086424D01*
X99722972Y-55205469D01*
X99374402Y-55727142D01*
X99252000Y-56342497D01*
X99252000Y-56405503D01*
X99374402Y-57020858D01*
X99621416Y-57390541D01*
X99456661Y-57496558D01*
X99295003Y-57733152D01*
X99238130Y-58014000D01*
X86035771Y-58014000D01*
X86470896Y-57362791D01*
X86658000Y-56422155D01*
X86658000Y-56325845D01*
X86470896Y-55385209D01*
X85938068Y-54587777D01*
X85140636Y-54054949D01*
X84200000Y-53867845D01*
X83259364Y-54054949D01*
X82461932Y-54587777D01*
X81929104Y-55385209D01*
X81742000Y-56325845D01*
X75741265Y-56325845D01*
X75665478Y-56249926D01*
X75947128Y-55968768D01*
X76207703Y-55341233D01*
X76208296Y-54661748D01*
X75948816Y-54033760D01*
X75468768Y-53552872D01*
X74841233Y-53292297D01*
X74161748Y-53291704D01*
X73533760Y-53551184D01*
X73052872Y-54031232D01*
X72792297Y-54658767D01*
X72791704Y-55338252D01*
X67783000Y-55338252D01*
X67783000Y-53290560D01*
X99346592Y-53290560D01*
X99457212Y-53534000D01*
X100560000Y-53534000D01*
X100560000Y-52434800D01*
X101160000Y-52434800D01*
X101160000Y-53534000D01*
X102262788Y-53534000D01*
X102373408Y-53290560D01*
X102050241Y-52752771D01*
X101545871Y-52379589D01*
X101403437Y-52320613D01*
X101160000Y-52434800D01*
X100560000Y-52434800D01*
X100316563Y-52320613D01*
X100174129Y-52379589D01*
X99669759Y-52752771D01*
X99346592Y-53290560D01*
X67783000Y-53290560D01*
X67783000Y-41838252D01*
X72791704Y-41838252D01*
X73051184Y-42466240D01*
X73334522Y-42750074D01*
X73052872Y-43031232D01*
X72792297Y-43658767D01*
X72791704Y-44338252D01*
X73051184Y-44966240D01*
X73531232Y-45447128D01*
X74158767Y-45707703D01*
X74838252Y-45708296D01*
X75466240Y-45448816D01*
X75947128Y-44968768D01*
X76207703Y-44341233D01*
X76208296Y-43661748D01*
X75948816Y-43033760D01*
X75665478Y-42749926D01*
X75947128Y-42468768D01*
X75950002Y-42461845D01*
X81832000Y-42461845D01*
X81832000Y-42558155D01*
X82019104Y-43498791D01*
X82551932Y-44296223D01*
X83349364Y-44829051D01*
X84290000Y-45016155D01*
X85230636Y-44829051D01*
X86028068Y-44296223D01*
X86125771Y-44150000D01*
X99328130Y-44150000D01*
X99328130Y-45950000D01*
X99377498Y-46212369D01*
X99532558Y-46453339D01*
X99769152Y-46614997D01*
X100050000Y-46671870D01*
X101850000Y-46671870D01*
X102112369Y-46622502D01*
X102353339Y-46467442D01*
X102514997Y-46230848D01*
X102571870Y-45950000D01*
X102571870Y-44150000D01*
X102522502Y-43887631D01*
X102367442Y-43646661D01*
X102189542Y-43525107D01*
X102435598Y-43156858D01*
X102558000Y-42541503D01*
X102558000Y-42478497D01*
X102435598Y-41863142D01*
X102087028Y-41341469D01*
X101908864Y-41222424D01*
X102140241Y-41051229D01*
X102463408Y-40513440D01*
X102352788Y-40270000D01*
X101250000Y-40270000D01*
X101250000Y-40290000D01*
X100650000Y-40290000D01*
X100650000Y-40270000D01*
X99547212Y-40270000D01*
X99436592Y-40513440D01*
X99759759Y-41051229D01*
X99991136Y-41222424D01*
X99812972Y-41341469D01*
X99464402Y-41863142D01*
X99342000Y-42478497D01*
X99342000Y-42541503D01*
X99464402Y-43156858D01*
X99711416Y-43526541D01*
X99546661Y-43632558D01*
X99385003Y-43869152D01*
X99328130Y-44150000D01*
X86125771Y-44150000D01*
X86560896Y-43498791D01*
X86748000Y-42558155D01*
X86748000Y-42461845D01*
X86560896Y-41521209D01*
X86028068Y-40723777D01*
X85230636Y-40190949D01*
X84290000Y-40003845D01*
X83349364Y-40190949D01*
X82551932Y-40723777D01*
X82019104Y-41521209D01*
X81832000Y-42461845D01*
X75950002Y-42461845D01*
X76207703Y-41841233D01*
X76208296Y-41161748D01*
X75948816Y-40533760D01*
X75468768Y-40052872D01*
X74841233Y-39792297D01*
X74161748Y-39791704D01*
X73533760Y-40051184D01*
X73052872Y-40531232D01*
X72792297Y-41158767D01*
X72791704Y-41838252D01*
X67783000Y-41838252D01*
X67783000Y-39426560D01*
X99436592Y-39426560D01*
X99547212Y-39670000D01*
X100650000Y-39670000D01*
X100650000Y-38570800D01*
X101250000Y-38570800D01*
X101250000Y-39670000D01*
X102352788Y-39670000D01*
X102463408Y-39426560D01*
X102140241Y-38888771D01*
X101635871Y-38515589D01*
X101493437Y-38456613D01*
X101250000Y-38570800D01*
X100650000Y-38570800D01*
X100406563Y-38456613D01*
X100264129Y-38515589D01*
X99759759Y-38888771D01*
X99436592Y-39426560D01*
X67783000Y-39426560D01*
X67783000Y-26635311D01*
X68791445Y-26635311D01*
X69278805Y-27814812D01*
X70180442Y-28718024D01*
X71359090Y-29207441D01*
X72635311Y-29208555D01*
X73814812Y-28721195D01*
X73822588Y-28713432D01*
X110050832Y-28713432D01*
X110221251Y-29031397D01*
X111060853Y-29289565D01*
X111935340Y-29206779D01*
X112358749Y-29031397D01*
X112529168Y-28713432D01*
X111290000Y-27474264D01*
X110050832Y-28713432D01*
X73822588Y-28713432D01*
X74718024Y-27819558D01*
X75132722Y-26820853D01*
X109050435Y-26820853D01*
X109133221Y-27695340D01*
X109308603Y-28118749D01*
X109626568Y-28289168D01*
X110865736Y-27050000D01*
X111714264Y-27050000D01*
X112953432Y-28289168D01*
X113271397Y-28118749D01*
X113465569Y-27487271D01*
X114081618Y-27487271D01*
X114417057Y-28299097D01*
X115037636Y-28920760D01*
X115848875Y-29257616D01*
X116727271Y-29258382D01*
X117539097Y-28922943D01*
X118160760Y-28302364D01*
X118497616Y-27491125D01*
X118498362Y-26635311D01*
X213791445Y-26635311D01*
X214278805Y-27814812D01*
X215180442Y-28718024D01*
X216359090Y-29207441D01*
X217635311Y-29208555D01*
X218814812Y-28721195D01*
X219718024Y-27819558D01*
X220207441Y-26640910D01*
X220208555Y-25364689D01*
X219721195Y-24185188D01*
X218819558Y-23281976D01*
X217640910Y-22792559D01*
X216364689Y-22791445D01*
X215185188Y-23278805D01*
X214281976Y-24180442D01*
X213792559Y-25359090D01*
X213791445Y-26635311D01*
X118498362Y-26635311D01*
X118498382Y-26612729D01*
X118162943Y-25800903D01*
X117542364Y-25179240D01*
X116731125Y-24842384D01*
X115852729Y-24841618D01*
X115040903Y-25177057D01*
X114419240Y-25797636D01*
X114082384Y-26608875D01*
X114081618Y-27487271D01*
X113465569Y-27487271D01*
X113529565Y-27279147D01*
X113446779Y-26404660D01*
X113271397Y-25981251D01*
X112953432Y-25810832D01*
X111714264Y-27050000D01*
X110865736Y-27050000D01*
X109626568Y-25810832D01*
X109308603Y-25981251D01*
X109050435Y-26820853D01*
X75132722Y-26820853D01*
X75207441Y-26640910D01*
X75208535Y-25386568D01*
X110050832Y-25386568D01*
X111290000Y-26625736D01*
X112529168Y-25386568D01*
X112358749Y-25068603D01*
X111519147Y-24810435D01*
X110644660Y-24893221D01*
X110221251Y-25068603D01*
X110050832Y-25386568D01*
X75208535Y-25386568D01*
X75208555Y-25364689D01*
X74721195Y-24185188D01*
X73819558Y-23281976D01*
X72640910Y-22792559D01*
X71364689Y-22791445D01*
X70185188Y-23278805D01*
X69281976Y-24180442D01*
X68792559Y-25359090D01*
X68791445Y-26635311D01*
X67783000Y-26635311D01*
X67783000Y-21783000D01*
X221217000Y-21783000D01*
X221217000Y-160217000D01*
G36*
X199841184Y-54416240D02*
X200124522Y-54700074D01*
X199842872Y-54981232D01*
X199582297Y-55608767D01*
X199581704Y-56288252D01*
X199841184Y-56916240D01*
X200124522Y-57200074D01*
X199842872Y-57481232D01*
X199582297Y-58108767D01*
X199581704Y-58788252D01*
X199841184Y-59416240D01*
X200321232Y-59897128D01*
X200948767Y-60157703D01*
X201628252Y-60158296D01*
X202256240Y-59898816D01*
X202737128Y-59418768D01*
X202997703Y-58791233D01*
X202998296Y-58111748D01*
X202738816Y-57483760D01*
X202455478Y-57199926D01*
X202737128Y-56918768D01*
X202762361Y-56858000D01*
X203573894Y-56858000D01*
X205092000Y-58376106D01*
X205092000Y-108523894D01*
X195649894Y-117966000D01*
X191305893Y-117966000D01*
X191234424Y-117859038D01*
X190876677Y-117620000D01*
X191234424Y-117380962D01*
X191550478Y-116907952D01*
X191661462Y-116350000D01*
X191550478Y-115792048D01*
X191234424Y-115319038D01*
X190876677Y-115080000D01*
X191234424Y-114840962D01*
X191550478Y-114367952D01*
X191661462Y-113810000D01*
X191550478Y-113252048D01*
X191234424Y-112779038D01*
X190876677Y-112540000D01*
X191234424Y-112300962D01*
X191463583Y-111958000D01*
X198489536Y-111958000D01*
X198604830Y-112073495D01*
X199048660Y-112257790D01*
X199529232Y-112258209D01*
X199973383Y-112074690D01*
X200313495Y-111735170D01*
X200497790Y-111291340D01*
X200498209Y-110810768D01*
X200314690Y-110366617D01*
X199975170Y-110026505D01*
X199531340Y-109842210D01*
X199050768Y-109841791D01*
X198606617Y-110025310D01*
X198489724Y-110142000D01*
X191089196Y-110142000D01*
X190876677Y-110000000D01*
X191234424Y-109760962D01*
X191550478Y-109287952D01*
X191661462Y-108730000D01*
X191550478Y-108172048D01*
X191234424Y-107699038D01*
X190876677Y-107460000D01*
X191234424Y-107220962D01*
X191327275Y-107082000D01*
X192337894Y-107082000D01*
X193947947Y-108692053D01*
X194242523Y-108888883D01*
X194590000Y-108958000D01*
X198489536Y-108958000D01*
X198604830Y-109073495D01*
X199048660Y-109257790D01*
X199529232Y-109258209D01*
X199973383Y-109074690D01*
X200313495Y-108735170D01*
X200497790Y-108291340D01*
X200498209Y-107810768D01*
X200314690Y-107366617D01*
X199975170Y-107026505D01*
X199584257Y-106864183D01*
X199713495Y-106735170D01*
X199897790Y-106291340D01*
X199898209Y-105810768D01*
X199714690Y-105366617D01*
X199375170Y-105026505D01*
X198931340Y-104842210D01*
X198450768Y-104841791D01*
X198006617Y-105025310D01*
X197889724Y-105142000D01*
X195566106Y-105142000D01*
X193416053Y-102991947D01*
X193121477Y-102795117D01*
X192774000Y-102726000D01*
X191305893Y-102726000D01*
X191234424Y-102619038D01*
X190876677Y-102380000D01*
X191234424Y-102140962D01*
X191550478Y-101667952D01*
X191661462Y-101110000D01*
X191550478Y-100552048D01*
X191234424Y-100079038D01*
X190876677Y-99840000D01*
X191234424Y-99600962D01*
X191550478Y-99127952D01*
X191661462Y-98570000D01*
X191550478Y-98012048D01*
X191234424Y-97539038D01*
X190876677Y-97300000D01*
X191234424Y-97060962D01*
X191327275Y-96922000D01*
X194901736Y-96922000D01*
X195249213Y-96852883D01*
X195543789Y-96656053D01*
X199973331Y-92226511D01*
X200048660Y-92257790D01*
X200529232Y-92258209D01*
X200973383Y-92074690D01*
X201313495Y-91735170D01*
X201497790Y-91291340D01*
X201498209Y-90810768D01*
X201314690Y-90366617D01*
X200975170Y-90026505D01*
X200531340Y-89842210D01*
X200050768Y-89841791D01*
X199606617Y-90025310D01*
X199266505Y-90364830D01*
X199258170Y-90384904D01*
X199223683Y-90407947D01*
X194525630Y-95106000D01*
X191305893Y-95106000D01*
X191234424Y-94999038D01*
X190876677Y-94760000D01*
X191234424Y-94520962D01*
X191550478Y-94047952D01*
X191661462Y-93490000D01*
X191550478Y-92932048D01*
X191234424Y-92459038D01*
X190876677Y-92220000D01*
X191234424Y-91980962D01*
X191550478Y-91507952D01*
X191661462Y-90950000D01*
X191550478Y-90392048D01*
X191234424Y-89919038D01*
X190876677Y-89680000D01*
X191234424Y-89440962D01*
X191550478Y-88967952D01*
X191661462Y-88410000D01*
X191550478Y-87852048D01*
X191234424Y-87379038D01*
X190876677Y-87140000D01*
X191234424Y-86900962D01*
X191550478Y-86427952D01*
X191661462Y-85870000D01*
X191550478Y-85312048D01*
X191234424Y-84839038D01*
X190859468Y-84588501D01*
X190971744Y-84542634D01*
X191374770Y-84143514D01*
X191532305Y-83849508D01*
X191415376Y-83630000D01*
X190220000Y-83630000D01*
X190220000Y-83650000D01*
X189620000Y-83650000D01*
X189620000Y-83630000D01*
X188424624Y-83630000D01*
X188419889Y-83638889D01*
X188411000Y-83630000D01*
X187180000Y-83630000D01*
X187180000Y-83650000D01*
X186580000Y-83650000D01*
X186580000Y-83630000D01*
X185349000Y-83630000D01*
X185172000Y-83807000D01*
X185172000Y-84220830D01*
X185279787Y-84481050D01*
X185478950Y-84680213D01*
X185637773Y-84746000D01*
X182527660Y-84746000D01*
X182287340Y-84646210D01*
X181806768Y-84645791D01*
X181362617Y-84829310D01*
X181022505Y-85168830D01*
X180838210Y-85612660D01*
X180837791Y-86093232D01*
X181021310Y-86537383D01*
X181360830Y-86877495D01*
X181804660Y-87061790D01*
X182285232Y-87062209D01*
X182527757Y-86962000D01*
X185656926Y-86962000D01*
X185923323Y-87140000D01*
X185565576Y-87379038D01*
X185249522Y-87852048D01*
X185138538Y-88410000D01*
X185249522Y-88967952D01*
X185565576Y-89440962D01*
X185923323Y-89680000D01*
X185565576Y-89919038D01*
X185249522Y-90392048D01*
X185138538Y-90950000D01*
X185249522Y-91507952D01*
X185565576Y-91980962D01*
X185923323Y-92220000D01*
X185565576Y-92459038D01*
X185249522Y-92932048D01*
X185138538Y-93490000D01*
X185249522Y-94047952D01*
X185565576Y-94520962D01*
X185923323Y-94760000D01*
X185565576Y-94999038D01*
X185249522Y-95472048D01*
X185138538Y-96030000D01*
X185249522Y-96587952D01*
X185565576Y-97060962D01*
X185923323Y-97300000D01*
X185565576Y-97539038D01*
X185249522Y-98012048D01*
X185138538Y-98570000D01*
X185249522Y-99127952D01*
X185565576Y-99600962D01*
X185923323Y-99840000D01*
X185565576Y-100079038D01*
X185249522Y-100552048D01*
X185138538Y-101110000D01*
X185249522Y-101667952D01*
X185565576Y-102140962D01*
X185923323Y-102380000D01*
X185565576Y-102619038D01*
X185249522Y-103092048D01*
X185138538Y-103650000D01*
X185249522Y-104207952D01*
X185565576Y-104680962D01*
X185923323Y-104920000D01*
X185565576Y-105159038D01*
X185249522Y-105632048D01*
X185138538Y-106190000D01*
X185249522Y-106747952D01*
X185565576Y-107220962D01*
X185923323Y-107460000D01*
X185565576Y-107699038D01*
X185249522Y-108172048D01*
X185138538Y-108730000D01*
X185249522Y-109287952D01*
X185565576Y-109760962D01*
X185923323Y-110000000D01*
X185565576Y-110239038D01*
X185249522Y-110712048D01*
X185138538Y-111270000D01*
X185249522Y-111827952D01*
X185565576Y-112300962D01*
X185923323Y-112540000D01*
X185565576Y-112779038D01*
X185249522Y-113252048D01*
X185138538Y-113810000D01*
X185249522Y-114367952D01*
X185565576Y-114840962D01*
X185923323Y-115080000D01*
X185565576Y-115319038D01*
X185249522Y-115792048D01*
X185138538Y-116350000D01*
X185249522Y-116907952D01*
X185565576Y-117380962D01*
X185923323Y-117620000D01*
X185565576Y-117859038D01*
X185494107Y-117966000D01*
X183790106Y-117966000D01*
X178908000Y-113083894D01*
X178908000Y-82439170D01*
X185172000Y-82439170D01*
X185172000Y-82853000D01*
X185349000Y-83030000D01*
X186580000Y-83030000D01*
X186580000Y-82049000D01*
X187180000Y-82049000D01*
X187180000Y-83030000D01*
X188411000Y-83030000D01*
X188419889Y-83021111D01*
X188424624Y-83030000D01*
X189620000Y-83030000D01*
X189620000Y-82054149D01*
X190220000Y-82054149D01*
X190220000Y-83030000D01*
X191415376Y-83030000D01*
X191532305Y-82810492D01*
X191374770Y-82516486D01*
X190971744Y-82117366D01*
X190446660Y-81902858D01*
X190220000Y-82054149D01*
X189620000Y-82054149D01*
X189393340Y-81902858D01*
X188868256Y-82117366D01*
X188574998Y-82407781D01*
X188480213Y-82178950D01*
X188281050Y-81979787D01*
X188020830Y-81872000D01*
X187357000Y-81872000D01*
X187180000Y-82049000D01*
X186580000Y-82049000D01*
X186403000Y-81872000D01*
X185739170Y-81872000D01*
X185478950Y-81979787D01*
X185279787Y-82178950D01*
X185172000Y-82439170D01*
X178908000Y-82439170D01*
X178908000Y-74376106D01*
X198926106Y-54358000D01*
X199817120Y-54358000D01*
X199841184Y-54416240D01*
X199841184Y-54416240D01*
G37*
X199841184Y-54416240D02*
X200124522Y-54700074D01*
X199842872Y-54981232D01*
X199582297Y-55608767D01*
X199581704Y-56288252D01*
X199841184Y-56916240D01*
X200124522Y-57200074D01*
X199842872Y-57481232D01*
X199582297Y-58108767D01*
X199581704Y-58788252D01*
X199841184Y-59416240D01*
X200321232Y-59897128D01*
X200948767Y-60157703D01*
X201628252Y-60158296D01*
X202256240Y-59898816D01*
X202737128Y-59418768D01*
X202997703Y-58791233D01*
X202998296Y-58111748D01*
X202738816Y-57483760D01*
X202455478Y-57199926D01*
X202737128Y-56918768D01*
X202762361Y-56858000D01*
X203573894Y-56858000D01*
X205092000Y-58376106D01*
X205092000Y-108523894D01*
X195649894Y-117966000D01*
X191305893Y-117966000D01*
X191234424Y-117859038D01*
X190876677Y-117620000D01*
X191234424Y-117380962D01*
X191550478Y-116907952D01*
X191661462Y-116350000D01*
X191550478Y-115792048D01*
X191234424Y-115319038D01*
X190876677Y-115080000D01*
X191234424Y-114840962D01*
X191550478Y-114367952D01*
X191661462Y-113810000D01*
X191550478Y-113252048D01*
X191234424Y-112779038D01*
X190876677Y-112540000D01*
X191234424Y-112300962D01*
X191463583Y-111958000D01*
X198489536Y-111958000D01*
X198604830Y-112073495D01*
X199048660Y-112257790D01*
X199529232Y-112258209D01*
X199973383Y-112074690D01*
X200313495Y-111735170D01*
X200497790Y-111291340D01*
X200498209Y-110810768D01*
X200314690Y-110366617D01*
X199975170Y-110026505D01*
X199531340Y-109842210D01*
X199050768Y-109841791D01*
X198606617Y-110025310D01*
X198489724Y-110142000D01*
X191089196Y-110142000D01*
X190876677Y-110000000D01*
X191234424Y-109760962D01*
X191550478Y-109287952D01*
X191661462Y-108730000D01*
X191550478Y-108172048D01*
X191234424Y-107699038D01*
X190876677Y-107460000D01*
X191234424Y-107220962D01*
X191327275Y-107082000D01*
X192337894Y-107082000D01*
X193947947Y-108692053D01*
X194242523Y-108888883D01*
X194590000Y-108958000D01*
X198489536Y-108958000D01*
X198604830Y-109073495D01*
X199048660Y-109257790D01*
X199529232Y-109258209D01*
X199973383Y-109074690D01*
X200313495Y-108735170D01*
X200497790Y-108291340D01*
X200498209Y-107810768D01*
X200314690Y-107366617D01*
X199975170Y-107026505D01*
X199584257Y-106864183D01*
X199713495Y-106735170D01*
X199897790Y-106291340D01*
X199898209Y-105810768D01*
X199714690Y-105366617D01*
X199375170Y-105026505D01*
X198931340Y-104842210D01*
X198450768Y-104841791D01*
X198006617Y-105025310D01*
X197889724Y-105142000D01*
X195566106Y-105142000D01*
X193416053Y-102991947D01*
X193121477Y-102795117D01*
X192774000Y-102726000D01*
X191305893Y-102726000D01*
X191234424Y-102619038D01*
X190876677Y-102380000D01*
X191234424Y-102140962D01*
X191550478Y-101667952D01*
X191661462Y-101110000D01*
X191550478Y-100552048D01*
X191234424Y-100079038D01*
X190876677Y-99840000D01*
X191234424Y-99600962D01*
X191550478Y-99127952D01*
X191661462Y-98570000D01*
X191550478Y-98012048D01*
X191234424Y-97539038D01*
X190876677Y-97300000D01*
X191234424Y-97060962D01*
X191327275Y-96922000D01*
X194901736Y-96922000D01*
X195249213Y-96852883D01*
X195543789Y-96656053D01*
X199973331Y-92226511D01*
X200048660Y-92257790D01*
X200529232Y-92258209D01*
X200973383Y-92074690D01*
X201313495Y-91735170D01*
X201497790Y-91291340D01*
X201498209Y-90810768D01*
X201314690Y-90366617D01*
X200975170Y-90026505D01*
X200531340Y-89842210D01*
X200050768Y-89841791D01*
X199606617Y-90025310D01*
X199266505Y-90364830D01*
X199258170Y-90384904D01*
X199223683Y-90407947D01*
X194525630Y-95106000D01*
X191305893Y-95106000D01*
X191234424Y-94999038D01*
X190876677Y-94760000D01*
X191234424Y-94520962D01*
X191550478Y-94047952D01*
X191661462Y-93490000D01*
X191550478Y-92932048D01*
X191234424Y-92459038D01*
X190876677Y-92220000D01*
X191234424Y-91980962D01*
X191550478Y-91507952D01*
X191661462Y-90950000D01*
X191550478Y-90392048D01*
X191234424Y-89919038D01*
X190876677Y-89680000D01*
X191234424Y-89440962D01*
X191550478Y-88967952D01*
X191661462Y-88410000D01*
X191550478Y-87852048D01*
X191234424Y-87379038D01*
X190876677Y-87140000D01*
X191234424Y-86900962D01*
X191550478Y-86427952D01*
X191661462Y-85870000D01*
X191550478Y-85312048D01*
X191234424Y-84839038D01*
X190859468Y-84588501D01*
X190971744Y-84542634D01*
X191374770Y-84143514D01*
X191532305Y-83849508D01*
X191415376Y-83630000D01*
X190220000Y-83630000D01*
X190220000Y-83650000D01*
X189620000Y-83650000D01*
X189620000Y-83630000D01*
X188424624Y-83630000D01*
X188419889Y-83638889D01*
X188411000Y-83630000D01*
X187180000Y-83630000D01*
X187180000Y-83650000D01*
X186580000Y-83650000D01*
X186580000Y-83630000D01*
X185349000Y-83630000D01*
X185172000Y-83807000D01*
X185172000Y-84220830D01*
X185279787Y-84481050D01*
X185478950Y-84680213D01*
X185637773Y-84746000D01*
X182527660Y-84746000D01*
X182287340Y-84646210D01*
X181806768Y-84645791D01*
X181362617Y-84829310D01*
X181022505Y-85168830D01*
X180838210Y-85612660D01*
X180837791Y-86093232D01*
X181021310Y-86537383D01*
X181360830Y-86877495D01*
X181804660Y-87061790D01*
X182285232Y-87062209D01*
X182527757Y-86962000D01*
X185656926Y-86962000D01*
X185923323Y-87140000D01*
X185565576Y-87379038D01*
X185249522Y-87852048D01*
X185138538Y-88410000D01*
X185249522Y-88967952D01*
X185565576Y-89440962D01*
X185923323Y-89680000D01*
X185565576Y-89919038D01*
X185249522Y-90392048D01*
X185138538Y-90950000D01*
X185249522Y-91507952D01*
X185565576Y-91980962D01*
X185923323Y-92220000D01*
X185565576Y-92459038D01*
X185249522Y-92932048D01*
X185138538Y-93490000D01*
X185249522Y-94047952D01*
X185565576Y-94520962D01*
X185923323Y-94760000D01*
X185565576Y-94999038D01*
X185249522Y-95472048D01*
X185138538Y-96030000D01*
X185249522Y-96587952D01*
X185565576Y-97060962D01*
X185923323Y-97300000D01*
X185565576Y-97539038D01*
X185249522Y-98012048D01*
X185138538Y-98570000D01*
X185249522Y-99127952D01*
X185565576Y-99600962D01*
X185923323Y-99840000D01*
X185565576Y-100079038D01*
X185249522Y-100552048D01*
X185138538Y-101110000D01*
X185249522Y-101667952D01*
X185565576Y-102140962D01*
X185923323Y-102380000D01*
X185565576Y-102619038D01*
X185249522Y-103092048D01*
X185138538Y-103650000D01*
X185249522Y-104207952D01*
X185565576Y-104680962D01*
X185923323Y-104920000D01*
X185565576Y-105159038D01*
X185249522Y-105632048D01*
X185138538Y-106190000D01*
X185249522Y-106747952D01*
X185565576Y-107220962D01*
X185923323Y-107460000D01*
X185565576Y-107699038D01*
X185249522Y-108172048D01*
X185138538Y-108730000D01*
X185249522Y-109287952D01*
X185565576Y-109760962D01*
X185923323Y-110000000D01*
X185565576Y-110239038D01*
X185249522Y-110712048D01*
X185138538Y-111270000D01*
X185249522Y-111827952D01*
X185565576Y-112300962D01*
X185923323Y-112540000D01*
X185565576Y-112779038D01*
X185249522Y-113252048D01*
X185138538Y-113810000D01*
X185249522Y-114367952D01*
X185565576Y-114840962D01*
X185923323Y-115080000D01*
X185565576Y-115319038D01*
X185249522Y-115792048D01*
X185138538Y-116350000D01*
X185249522Y-116907952D01*
X185565576Y-117380962D01*
X185923323Y-117620000D01*
X185565576Y-117859038D01*
X185494107Y-117966000D01*
X183790106Y-117966000D01*
X178908000Y-113083894D01*
X178908000Y-82439170D01*
X185172000Y-82439170D01*
X185172000Y-82853000D01*
X185349000Y-83030000D01*
X186580000Y-83030000D01*
X186580000Y-82049000D01*
X187180000Y-82049000D01*
X187180000Y-83030000D01*
X188411000Y-83030000D01*
X188419889Y-83021111D01*
X188424624Y-83030000D01*
X189620000Y-83030000D01*
X189620000Y-82054149D01*
X190220000Y-82054149D01*
X190220000Y-83030000D01*
X191415376Y-83030000D01*
X191532305Y-82810492D01*
X191374770Y-82516486D01*
X190971744Y-82117366D01*
X190446660Y-81902858D01*
X190220000Y-82054149D01*
X189620000Y-82054149D01*
X189393340Y-81902858D01*
X188868256Y-82117366D01*
X188574998Y-82407781D01*
X188480213Y-82178950D01*
X188281050Y-81979787D01*
X188020830Y-81872000D01*
X187357000Y-81872000D01*
X187180000Y-82049000D01*
X186580000Y-82049000D01*
X186403000Y-81872000D01*
X185739170Y-81872000D01*
X185478950Y-81979787D01*
X185279787Y-82178950D01*
X185172000Y-82439170D01*
X178908000Y-82439170D01*
X178908000Y-74376106D01*
X198926106Y-54358000D01*
X199817120Y-54358000D01*
X199841184Y-54416240D01*
M02*
