G04 #@! TF.FileFunction,Soldermask,Bot*
%FSLAX46Y46*%
G04 Gerber Fmt 4.6, Leading zero omitted, Abs format (unit mm)*
G04 Created by KiCad (PCBNEW 4.0.7) date 07/23/18 11:07:22*
%MOMM*%
%LPD*%
G01*
G04 APERTURE LIST*
%ADD10C,0.400000*%
%ADD11O,3.900000X3.900000*%
%ADD12R,2.200000X2.200000*%
%ADD13O,2.200000X2.200000*%
%ADD14C,3.400000*%
%ADD15C,2.400000*%
%ADD16C,1.840000*%
%ADD17C,1.900000*%
%ADD18C,2.900000*%
%ADD19C,5.400000*%
%ADD20R,2.600000X1.900000*%
%ADD21O,2.600000X1.900000*%
%ADD22O,2.400000X1.900000*%
%ADD23R,2.400000X1.900000*%
G04 APERTURE END LIST*
D10*
D11*
X84620000Y-85610000D03*
D12*
X101280000Y-88150000D03*
D13*
X101280000Y-85610000D03*
X101280000Y-83070000D03*
D11*
X84630000Y-113490000D03*
D12*
X101290000Y-116030000D03*
D13*
X101290000Y-113490000D03*
X101290000Y-110950000D03*
D14*
X116290000Y-27050000D03*
X111290000Y-27050000D03*
D15*
X124000000Y-138000000D03*
X101000000Y-156000000D03*
X105290000Y-144050000D03*
X96290000Y-148350000D03*
D11*
X84290000Y-42510000D03*
D12*
X100950000Y-45050000D03*
D13*
X100950000Y-42510000D03*
X100950000Y-39970000D03*
D11*
X84200000Y-56374000D03*
D12*
X100860000Y-58914000D03*
D13*
X100860000Y-56374000D03*
X100860000Y-53834000D03*
D16*
X125340000Y-158740000D03*
X122800000Y-156200000D03*
X125340000Y-153660000D03*
X80290000Y-153670000D03*
X82830000Y-156210000D03*
X80290000Y-158750000D03*
D17*
X110380000Y-130000000D03*
X105500000Y-130000000D03*
D18*
X108000000Y-71000000D03*
X76000000Y-71000000D03*
X108000000Y-100000000D03*
X76000000Y-100000000D03*
D15*
X201290000Y-58450000D03*
X201290000Y-55950000D03*
X201290000Y-53450000D03*
X201290000Y-50950000D03*
D19*
X72000000Y-26000000D03*
X217000000Y-26000000D03*
X217000000Y-156000000D03*
X72000000Y-156000000D03*
D15*
X214500000Y-140499999D03*
X214500000Y-142999999D03*
X214500000Y-145499999D03*
X214500000Y-147999999D03*
X214500000Y-125357142D03*
X214500000Y-127857142D03*
X214500000Y-130357142D03*
X214500000Y-132857142D03*
X214500000Y-110214285D03*
X214500000Y-112714285D03*
X214500000Y-115214285D03*
X214500000Y-117714285D03*
X214500000Y-95071428D03*
X214500000Y-97571428D03*
X214500000Y-100071428D03*
X214500000Y-102571428D03*
X214500000Y-79928571D03*
X214500000Y-82428571D03*
X214500000Y-84928571D03*
X214500000Y-87428571D03*
X214500000Y-64785714D03*
X214500000Y-67285714D03*
X214500000Y-69785714D03*
X214500000Y-72285714D03*
X214500000Y-49642857D03*
X214500000Y-52142857D03*
X214500000Y-54642857D03*
X214500000Y-57142857D03*
X214500000Y-34500000D03*
X214500000Y-37000000D03*
X214500000Y-39500000D03*
X214500000Y-42000000D03*
X74500000Y-44000000D03*
X74500000Y-41500000D03*
X74500000Y-57500000D03*
X74500000Y-55000000D03*
X74500000Y-86000000D03*
X74500000Y-83500000D03*
X74500000Y-114500000D03*
X74500000Y-112000000D03*
X74500000Y-129000000D03*
X74500000Y-126500000D03*
X74500000Y-138000000D03*
X74500000Y-135500000D03*
X74500000Y-147000000D03*
X74500000Y-144500000D03*
X117400000Y-153400000D03*
X114900000Y-153400000D03*
X90800000Y-153400000D03*
X88300000Y-153400000D03*
D20*
X189670000Y-52850000D03*
D21*
X189670000Y-55390000D03*
D22*
X186880000Y-144290000D03*
X186880000Y-141750000D03*
X186880000Y-139210000D03*
X186880000Y-136670000D03*
X186880000Y-134130000D03*
X186880000Y-131590000D03*
X186880000Y-129050000D03*
X186880000Y-126510000D03*
X186880000Y-123970000D03*
X186880000Y-121430000D03*
X186880000Y-118890000D03*
X186880000Y-116350000D03*
X186880000Y-113810000D03*
X186880000Y-111270000D03*
X186880000Y-108730000D03*
X186880000Y-106190000D03*
X186880000Y-103650000D03*
X186880000Y-101110000D03*
X186880000Y-98570000D03*
X186880000Y-96030000D03*
X186880000Y-93490000D03*
X186880000Y-90950000D03*
X186880000Y-88410000D03*
X186880000Y-85870000D03*
D23*
X186880000Y-83330000D03*
D22*
X189920000Y-83330000D03*
X189920000Y-85870000D03*
X189920000Y-88410000D03*
X189920000Y-90950000D03*
X189920000Y-93490000D03*
X189920000Y-96030000D03*
X189920000Y-98570000D03*
X189920000Y-101110000D03*
X189920000Y-103650000D03*
X189920000Y-106190000D03*
X189920000Y-108730000D03*
X189920000Y-111270000D03*
X189920000Y-113810000D03*
X189920000Y-116350000D03*
X189920000Y-118890000D03*
X189920000Y-121430000D03*
X189920000Y-123970000D03*
X189920000Y-126510000D03*
X189920000Y-129050000D03*
X189920000Y-131590000D03*
X189920000Y-134130000D03*
X189920000Y-136670000D03*
X189920000Y-139210000D03*
X189920000Y-141750000D03*
X189920000Y-144290000D03*
X139120000Y-144290000D03*
X139120000Y-141750000D03*
X139120000Y-139210000D03*
X139120000Y-136670000D03*
X139120000Y-134130000D03*
X139120000Y-131590000D03*
X139120000Y-129050000D03*
X139120000Y-126510000D03*
X139120000Y-123970000D03*
X139120000Y-121430000D03*
X139120000Y-118890000D03*
X139120000Y-116350000D03*
X139120000Y-113810000D03*
X139120000Y-111270000D03*
X139120000Y-108730000D03*
X139120000Y-106190000D03*
X139120000Y-103650000D03*
X139120000Y-101110000D03*
X139120000Y-98570000D03*
X139120000Y-96030000D03*
X139120000Y-93490000D03*
X139120000Y-90950000D03*
X139120000Y-88410000D03*
X139120000Y-85870000D03*
X139120000Y-83330000D03*
D23*
X136080000Y-83330000D03*
D22*
X136080000Y-85870000D03*
X136080000Y-88410000D03*
X136080000Y-90950000D03*
X136080000Y-93490000D03*
X136080000Y-96030000D03*
X136080000Y-98570000D03*
X136080000Y-101110000D03*
X136080000Y-103650000D03*
X136080000Y-106190000D03*
X136080000Y-108730000D03*
X136080000Y-111270000D03*
X136080000Y-113810000D03*
X136080000Y-116350000D03*
X136080000Y-118890000D03*
X136080000Y-121430000D03*
X136080000Y-123970000D03*
X136080000Y-126510000D03*
X136080000Y-129050000D03*
X136080000Y-131590000D03*
X136080000Y-134130000D03*
X136080000Y-136670000D03*
X136080000Y-139210000D03*
X136080000Y-141750000D03*
X136080000Y-144290000D03*
D21*
X136330000Y-55390000D03*
D20*
X136330000Y-52850000D03*
M02*
